<mxfile host="Electron" modified="2024-04-07T13:01:14.753Z" agent="Mozilla/5.0 (Windows NT 10.0; Win64; x64) AppleWebKit/537.36 (KHTML, like Gecko) draw.io/24.1.0 Chrome/120.0.6099.109 Electron/28.1.0 Safari/537.36" etag="9UTIiQ_R2NGIBPOhAT98" version="24.1.0" type="device">
  <diagram name="Страница — 1" id="HlcpY1YNtVyu5KhveJSC">
    <mxGraphModel dx="1105" dy="842" grid="1" gridSize="10" guides="0" tooltips="1" connect="1" arrows="1" fold="1" page="1" pageScale="1" pageWidth="827" pageHeight="1169" math="1" shadow="0">
      <root>
        <mxCell id="0" />
        <mxCell id="1" parent="0" />
        <mxCell id="yaBp7Eti7UO0OfGM8S6b-2" value="" style="rounded=0;whiteSpace=wrap;html=1;fontSize=20;fontStyle=0" parent="1" vertex="1">
          <mxGeometry x="40" y="40" width="260" height="170" as="geometry" />
        </mxCell>
        <mxCell id="yaBp7Eti7UO0OfGM8S6b-3" value="" style="rounded=1;whiteSpace=wrap;html=1;fontSize=20;fontStyle=0" parent="1" vertex="1">
          <mxGeometry x="50" y="50" width="240" height="150" as="geometry" />
        </mxCell>
        <mxCell id="yaBp7Eti7UO0OfGM8S6b-4" value="" style="rounded=0;whiteSpace=wrap;html=1;fontSize=20;fontStyle=0" parent="1" vertex="1">
          <mxGeometry x="110" y="270" width="120" height="20" as="geometry" />
        </mxCell>
        <mxCell id="yaBp7Eti7UO0OfGM8S6b-5" value="" style="shape=trapezoid;perimeter=trapezoidPerimeter;whiteSpace=wrap;html=1;fixedSize=1;fontSize=20;fontStyle=0" parent="1" vertex="1">
          <mxGeometry x="130" y="210" width="80" height="60" as="geometry" />
        </mxCell>
        <mxCell id="yaBp7Eti7UO0OfGM8S6b-6" value="" style="endArrow=none;html=1;rounded=0;startArrow=classic;startFill=1;fontSize=20;fontStyle=0" parent="1" edge="1">
          <mxGeometry width="50" height="50" relative="1" as="geometry">
            <mxPoint x="170" y="85" as="sourcePoint" />
            <mxPoint x="170" y="165" as="targetPoint" />
          </mxGeometry>
        </mxCell>
        <mxCell id="yaBp7Eti7UO0OfGM8S6b-8" value="" style="endArrow=none;html=1;rounded=0;startArrow=classic;startFill=1;fontSize=20;fontStyle=0" parent="1" edge="1">
          <mxGeometry width="50" height="50" relative="1" as="geometry">
            <mxPoint x="250" y="125" as="sourcePoint" />
            <mxPoint x="90" y="125" as="targetPoint" />
          </mxGeometry>
        </mxCell>
        <mxCell id="yaBp7Eti7UO0OfGM8S6b-9" value="$$x$$" style="text;html=1;align=center;verticalAlign=middle;whiteSpace=wrap;rounded=0;fontSize=20;fontStyle=0" parent="1" vertex="1">
          <mxGeometry x="220" y="120" width="60" height="30" as="geometry" />
        </mxCell>
        <mxCell id="yaBp7Eti7UO0OfGM8S6b-10" value="$$y$$" style="text;html=1;align=center;verticalAlign=middle;whiteSpace=wrap;rounded=0;fontSize=20;fontStyle=0" parent="1" vertex="1">
          <mxGeometry x="150" y="70" width="60" height="30" as="geometry" />
        </mxCell>
        <mxCell id="lGv7E5U7d9qnfZNcLOAO-19" value="" style="group" parent="1" vertex="1" connectable="0">
          <mxGeometry x="80" y="400" width="414.65" height="400" as="geometry" />
        </mxCell>
        <mxCell id="lGv7E5U7d9qnfZNcLOAO-17" value="" style="shape=image;verticalLabelPosition=bottom;labelBackgroundColor=default;verticalAlign=top;aspect=fixed;imageAspect=0;image=data:image/png,iVBORw0KGgoAAAANSUhEUgAABCgAAAQhCAYAAADvZ740AAAAAXNSR0IArs4c6QAAAARnQU1BAACxjwv8YQUAAAAJcEhZcwAAGdYAABnWARjRyu0AAP+lSURBVHhe7J0HfBTV24UXNoCgAYRYKEoREFEUBEVRQYpUEVGwiw2QooiIgqAQSggthBZ6ExGRIlKkd6QIIiUUCcGKtA/8CyqiGM537+xMMju5u2m72Z3d8+T3KJmZnZ3ZMjPvyZ17Hd3KOvB2+bzoVi5Pqm+Z7FpWWPEqdLv7RnSrfQvernsb3q5XFd0a3OVm94bV8U6juzXfblgN3eqL6UL573ceqa7N79G4Bno0qalNe0vOb1AN3eU8oWs91bR5b4tl5TRtPWKaXPatenfhHTH9bfHvHo1qaL/L/79dX6xDTpePFXYTv7ueW/9dm14dXcXy3cT/3xLT36h7F94Uv78lp9d3+aaY/qb4/xvCLvWqofPD1dBJWq+6Zkfx79fF4zqKf7evI/5f/250fKIpOgkfeuihoLP722/js88+wxtvvKGcb7VV/8l4ZtJq5TyrjzZvrq17+LBhyvnZcfXq1Zpffvklnn/+eeUyUrnM3LlzlfNo5mzcuLGmal6w+eILL2jvd1xcXOq0ESNGaNPat2/vtuyDDz4Y9g4dOhSffvopXnvtNeX8Zp1745kJK9Gg9QvK+Z7M7uPsbKNGjfDaq6+iZcuWyvlmH6rzMBo+/Qoavdgpc77QEQ83e0y5rlB0zpw5GDF8uHJenfoN8dSYxXhm/ArNR5718NntJD6DYn6DJ59XzpfK55DPpZoXaj799NPavr4tzvWq+XXq1cdj74/UXrOnRn+BR55rr1zO6kN16qQ+Tv5f/q5aLlSV5xpffoamT5+OcePGKecFSnlsk6rm+dMuXbpor+34hAS357ceH9q0aYOPPvpIU/7bmG7YKnqi9vm0TveVzcU17rx587BixQrt/xMmTMCYMWMwdepUfPLJJ9q/VY/zlfJ55L6r5lF726dPH+1zJd9j1XxD+ZmTyw0cOFA5Pxx0pAYRKm8vim4P3upW7LuUxb67MnxwhRMybJAhQzXtdyN8kKFAVxkcyPkyeJBBhJwnfn9LzO/+iFzWpZwnp8nl5f/fEuuTIcU7Yp7cDhlMvFFHrEtsV9eHZTgiHiP+7do21/PL5WUooa1DzJPrcP1eDd0b1RTbey+6imU7i+16o141l2KeEVBo4YRux4ero6MMJ2RIIXztobvQTjx/pyebCpu5FUnBYkxMjBYiNG3SRDnfalYCCunEiRMxc+ZM5bzsuGrVKq2wkv//+OOPlctIjeVU8+yi6ouYmxoBhWpeMNqvXz/tPe/cqZP2e/fu3THcQ7ETzjZo0EC70JPffdV8aWaKPJXZfZydzUpAUf+xNlrwIF+feo8+4d0WrUWx2E4LKWSwoVpfqGktQMw27fCe9tlq/mY/7f+tBqgv3BhQuJtRQPHYu8Pw9PjleLzfBNRt1FS5jCcfqvsw2sTN0x7f8KmXlMuEqvJ8M0cUoU0U50h5TOjQvj3qmEIb+W85TVXw169XT1vXkNjYdPMCqdxW1fb6004dO2qvRYIlnJDK6dZzugwm5DWmtHXr1m7z5GdafjbN03zpsGHDsHz58oAVh/K5ZRCimkfVvvjii9qxMDeUz6Xahsy6ePFiTdU8w4ULF2a4TKjr6HaLUwsj3izr0P7/Vrm86FqxALo9UElrnSAL/36tG2BSz05YNmkk9qxZhjPfH8E/53+jlIaM/6OUZsvfQ8vfg9HzNEMvhJl/0FT/pLniX1lQ9ficqnoeQ9XyNHCqvqdUrer4fkEGFBF4s2wevFHGof2/a+VIvP3wHa4WCcJlk+LFRYuqoKGUho6qwotSmrGigA41lSFBIFUV5NRd9UVeaKu62A03VcURpTRwqr6nVK3quO7S0e2WfHijbB50kQFF5Uh0q3enFkyM6PA0juzYLC5WVMUMpTR0VBVdlNLMKQroUFMZEgRaVVFO01Rf5IW+qovecFJVIFFKA6PqO0rVqo7naTpeL+VAt4oF0LVSQbxV93a8+fBd+GLccHGRoipkKKW5p6oYopQGl6J4DiWV4UAwqSrOqeoCL3zMyoWvdVk7qyqQKKW5o+o7SdWqjsXedXQpmwfvVL4K3R6qrHUwObz90+IiRVUsUUpzT1UhRCkNPkXRHEoqQ4FgU1Wgh7vqi7zwMSsXwuYLZ7uqKpgopbmj6jtJ3VUdezOvo3MZB7rdFaWNdCFHuPiOt3VQGgSqCiFKaXAqiuZQURkIBJuqAj3cVV/kUZWqi2m7qSqaKKW5o+o7Sd1VHXszr6NDaQe61K6EN+vdhSXsEJPSIFJVCNnBUNoXSjOjKJpDRWUgEGyqCvRwV32RR1WqLqbtpqpoopQGVtV3laqPw951dHr4LnR9sik+aPecuDhRFRaU0sCoKoTsoGpfrKoeR6mdFYVzKKgMBIJNVYEe7qov8qhK1QW03VQVR5TSwKv6vlK1quOzS0eXJrW1gGLCgN7i4kRVSFBKA6OqCLKDqn3xpOrxlNpZUUDbWWUgEGyqCvRwV32RR1WqLpTtpqowopT6xpx+z8zfVZp1L8CxYcMGLFu2DIf27xMXJ6oCglIaOFUFUDCr2odAq9pOSv2lKKDtrDIQCDZVBXq4qyrEqWdVF8V2UlUUUUp9Y06/Y9bvK82qjjVr1mgBxfHvk8XFieriXm2e9WtzVdU2UBo+qgqhYFG1vcGkapsp9ZeigLa7ylAgmFQV6FRdiFO16otie6kqjCilgVX1XaVZ8wIcy5cvx9KlS3Hh/06JCxPVxb1aGRo4NqzLNVXbQGl4qSqGgkHVtgaTqm2m1F+KAjoUVAYDwaKqOKfpi3DqWdVFcbipKq4opdlX9T2jWdN1jHbIcEKqvrD3LAMKSnNbVTEUDKq2NVhVbT+lvlQU0KGkMiAItKrinLoX4NS7qgvjcFRVZFFKs6bqu0WzbtoxOqgCijxCp2WaoWobKA0/VQVRIFVtYzCr2gdKfakooENJZUAQaFXFOTVf3NGMVF0ch5uqQotSmjVV3y2aeVXHZx8HFHk3rsdj+/bioxO/Yvf58zj055849Ffm/UpceNy1c0e69UpV20Bp+KoqjPypahvsqGrfKPWlooAOJdOFA8GiqkAPd9UXelSl6kI5XFQVWZTS7Kn6jtHMqTo2u/RZQFFxxzasOXcWf/z3H/69cgVXkHXO/PsPau3e5bZeQ9U2UBreqoojf6l6fn+oem5K7aYooENFZTgQTKoK9XBVfaFHVaoulsNBVYFFKc26qu8Xzbyq43KaPgko7ty5A4l//IGUK9mJJdJgQEFpVlQVRv5Q9dz+UvX8lNpVUUDbXWUoEGyqivVwVH2hR1WqLpjDQVWhRSnNmqrvFs2aquNymjkOKGTLiU3/+y3H4YSEAQWlWVVVFPla1fP6Q9VzU2p3RQFtZ5WBQLCpKtbDUfWFHvWk6qI51FUVW5TSzKv6XtGMVR2DPZujgKLolk0Y+8vP+DslRY8YXPwjft//xx9Y/9tvWGtx9W/nUk26+Bcum4KN7AYUDocDjzSon276iR+SUaN6dW3+x9Onppu/eP5naPNEK1xbtKi2jLR8uXLaNDnPurwnv9v3LV5/7VXtscZ6DM3LDe4frU1bv3K523Szcp5cRi6rmm/obb/MGtthVu6vfL3GjRqpbbvqccZ2eNK8D8Z+WZXP4e11lNsul7E+LqN9pypVhVFOVT2PP1VtA6V2VxTQdlYZCASbqmI9nFVf8FGrqovoUFdVcFFKM6fqO0UzVnX89W6OAor6e77F9xcv6vGCi4v//YeYH79H7d27UG77Vty8zd3S275KdfCPP+CCWN7A1wGFDA3kPGsRL4MLozCWxboMJGRRLJc3Cn+p+TGelOu2rkcq1y8DC/OyRiFvLu6tGsGAtyJ919bN2jJyW+VzqpYxlMvJ7TC2SyofY4QpcrtVIYexHXI/zI81NAcb8ne5rHz9jPnyOYzgR/X6G6+z/H/Pd7prj5GPN57PvDzNjKrCKCeqnsPfqraDUrsrCmg7qwwEgk1VkR7uqi/6qFnVhXQ4qCq8VKoea1b1GEpDUdXnn2ZO1bE3Y7WAYsmSJeJCRFUweLbAxvV4/1gy/jO1gLgi/t372FEU3rxRGTJY7Zl8FOcvX9Yf7duAwlw0m6ebi2PZgsA8z1AW39b1eVIW4XJ9cr2q+WaNbZLFv2q+VM6Ty3gr0mVBLwMGIxzx1ApCKud72hf5XEaIYG3pkJntMPS0XzJIkeuXmqfL110urwpGaE5UFUfZUbXu3FC1LZQGk6IYTqdqOUPV8jZTGQgEm6oCPdxVX/RRs6qL6XBQVYBJVct6U7UOSkNN1WefZk7VcTdzZjuguH7LJsw7fUqPFlzs+P1/KCKmG6FC8/17MenX45h58kSq8rYQY76/AgqjcLeGE1I5zVfFcVaKeKmvAgpZ8Mv5MhSRy3oKWqRyvrewxVOI4IuAQirDFOs8uT1ymnk56gtVBVJ2VK07t1RtD6XBqCiMNVXzDI1lbKwyEAg2VQU6VV30UbOqC+pw0JdFmGpdlIaKqs88Vas6xmbfbAcUVXZsww5xYWCmx9Ek5DWFCu8lH8Xvly9rw44altz2Vep8fwQU5tsfrMvJlgZyniq4yI7Gc8kiXDXfqi8CCtnSQc43Wk0Yt2tYlzOUy3oLKKTGdplbUWS0HWa97ZdqntxmOS0zrU5oVlUVSVlVtd7cVrVdlAabojjWVM2TGvNtbrpAINhUFefUs+oLwvBTdZEdDvqyEFOti9JQUPV5p55VHWOzb7YDirt3fY0Df/6hRwsuWuzfizymUKHXsaP409THhMSfAYXRGsDTLRdGsSyXs87LrhndLmLWWyFvKOfJZTwFA7K4N4cvRmsRT/sk52UUUBhBi/k5M9oOs972y2ixYn4/jJBF7oe321NodlUVSllRtc5AqNo2SoNJURynmtF8m6sMBoJFVRFOvau+KKRWVRfidteXxZhqXZTaWdXnnGas6viZfbMdUNy5cwf2/3FBjxZcPHUgMWABhSx2pTKg8FT0Gn+5V83LrrK4NzqclM+vKtINcxpQqG7pMKZ5ahUi52UUUEity3nbDque9ssIPlTbZtz6YTwHW1P4WlWxlFlV6wuEqm2jNJgUxXG4qQwIAq2qAKfeVV8UUpWqi3E768uiTLUuSu2q6jNOM6fq2Jl9sx1QlNq6BWvPndOjBRfTTxyHc+P61FAhNwMKQxlCqJaRygJcLuNtnllvQYJZWVzLIluGI/Jxcl2qFg1GIZ8ZVcGA0bmkNYCR+yyfW1Xky+VzElCotK7P2C8ZRMh/S40wSC7rKXyQzyHny+Xk9qv2meZEVUGVGVXrCoSqbaM0mBTFcYZmdfkgVxkQBFpVAU4zVn1hSK2qLsbtrK+KMut6KLWzqs84zbyqY2f2zXZAcc2mDRj9y896tODit3//RdO936aGCrl9i4dxO4GnPiGMYlg1T94qYRTXxnKZDSgMjaBCPlZq7YjTmGcu5K0a+yD/bX6s1GglYp1u3Oah6vhTTpf7Y51uVm63sV3GNCOgkI+1bqOn/bIqp5uX86R8Lrlf8jHy/54CDZodzcVRZlStI1Cqto/SYFIUx5kyq8sHscqAIBhUFeA0a6ovFMNb1YV4KJjTosxc2FFqZ1Wfb5p1VcfP7JvtgMK5YR2eP3gAF0wBgyTprz/x6D5XXxS5HVDIfxuFrqpYN24r8NRfg6FRcMvCWTU/I+X6je0wt3bIzHrlPLmMtbg3bpfwpiqI8DTdrNEnhPnWEU/bodK6X3Kfjf23Dl/qTWM95qCE+kJzQeVJ1eMCrWo7KQ0mRWGcabO6fJCqDAeCSVXhTTOn+kIxvFVdiFN1oUep3VR9tmn2VB0/s2+2A4o869fi1h3bse633/R4IY1fLv2NWSd/xcqz/4d/UlL0qS68BRQyzJh4/Bf0OZbsZsGN65XbYCiLWqMIl399N/qEsBbHRiGeUdFtLbizo+q5MrNeT8GAEa7I6SpVgYhUTssooDBabZgf62k7VMpl5LLm/TLeB0+3nnjS2A/VPJoTrYWVVdVjAqlqGykNJkUxHI4qQ4FgU1V804xVXyiGt6oL8XBXVehRakdVn2+aPVXHz+ybo4Ai78b1eOPIdzj77796xJDG5StXNK14Cyjk0jLQ+Nti8S2blNtgaC3CZWsDWRhLra0ljKLZWysKVcGdVVUFfmbWq3qcVG6zLN7N08x6Cl/kNG8BhXF7iLXVgqftUOlpv4x1eOsXxKrcVvkY1TyaU1VFllS1bDCo2lZKg0lRDIebykAg2FQV3zRj1ReK4a3qQjzcVRV6lNpB1eeZ+kbV8TP75iigkCFD5OaNmH3yZLqWEp7wFlB4IqsBhdQo2K1/wTeKZjndWlAbGq0VPM03lPPlbRGqFgJGqwTzrSbZDSiMfcloKFO5TzKAMU+Tj1MFFHKbje2RwYd1H1Tb4Ulv+2V0lin3wZgmX19VQGQES9Z9oL7UKKxU84JRczFIaTArCuNwUBkIBJuq4ptmrPpCMbxVXYiHu6rCj9JgV/VZpr5RdezMmTkOKKQyQPjk5En87/JlrRWEN3IroJAao15YC3BZLMtC2JgnwwRZZMv/G7cYSL21spAaRbxclyzE5Tpk8W2sw9oqwVshb2is0xwMGEW+9fYNq0YoYl6//F0W/HJ9hvK1MvZf/lsVsBjbIeebH2tofg75u/V5DeW65XNJjeeR65TLy9dJvl7y8XIfjeUyet1puKkqBikNNkVhHA4qA4FgU1V804xVXyiGt6qL8XBXVfxRGuyqPss056qOmznXJwGF9KpNG9D20AEsPHMa+//4A8cvXcKpf/5J541bt6Q+psuR7/DdX3/iV7GsN6/NZkAhNYp263xZLMvC2BxIGMvJYCOjMMBQLmsU3OZ1qDrp9FbIG8p5chm5rPxdbqf8XW6ndVmrRksLczAif7cqAwu5TGa2w5PG9kkz2i8jKJJhhPxdBhDy+eV2GOsztimzrzsNN1UFIaXBpCiMw0FlIBBsqopvmrHqC0WquigPZ1XFH6XBruqzTHOm6njpG30WUBgW2bIJ9+/ehccT96HNgcR0Fty0IXXZiju2aSN+tErc79X8GXSSSSkNdVUFIaXBpCiMw0FlIBBsqopvmjnVF4vhrerCPJxVFX9Z1VfroTSzWj/HVjO7XLirOkb6Xp8HFP5StQ2U0nBRVRBSGkyKwjgcVAYCwaaq8KaZU32xGN6qLtLDXXPhR6kdVH2OzWZmmXBXdXz0jwwoKKU2UFUQUhpMisI4XFSGAsGkqvCmmVN9sRjeqi7Uw11r8UdpsKv6HNPMqzo2+k8toJg/f7646FAVBZ5lQEEpzT1VBSGlwaQojMNNZTgQDKoKb5o51ReL4a3qYp2qi0CV2XkMpf7Q/Fk0620edak6NvpPLaAYOdL78JUqGVBQSnNPVUFIaTApCuNwVBkQBFpV4U0zp/piMbxVXazT9MWf1ew8hlJ/q/pcUs+qjon+VwsoYmNjxYWGqiiglIaOsohSTbeD1mKQ0mBTFMbhqDIgCAZVxTfNWPXFYnirumin6uLPbHYeQ6k/VX0mqWdVx8PckQEFpWGhuZBSzQ92zdtPaTAqiuJwVBkOBJOqIpx6Vn2xGN6qLtypugA0q3qMVLUspf5W9VmknlUdC3NPLaBISEgQFxqqooBSan9VxZRquWBWtQ+UBpOiGA5HlaFAsKkqxKla9cUiVV3Ah7OqAtCq6nFS1bKU+lvVZ5F6VnUczD21gCI7o3hQSu2iqphSLRfMqvaB0mBSFMLhqDIQCDZVhThVq75YpKoLeJo9VcUjpf5W9VmkGas6HvpfBhSUhryqYkq1XDCr2gdKg0lRCIejykAg2FQV4lSt+mKRqi7cafZVFZCU+kvVZ5DmTNVx0ncyoKA05FUVU6rlglnVPlAaTIpCOBxVBgLBpqoQp2rVF4tUdYFOs6+qiKTUH6o+f9Q/qo6d2ZMBBaUhr6qYUi0XrKq2n9JgUxTC4agyEAg2VYU4Vau+WKSqi3GaM1XFJKW+VPW5o/5VdfzMugwoKA15VcWUarlgVbX9lAabohAOR5WBQLCpKsSpWvXFIlVdiNOcqSooKfWVqs8c9b+q42fWZUBBaciqKqIMVcsHs6p9oDRYFEVwuKoMBIJNVSFOPau+YAxvVRfiNGeqikpKfaHq80b9r+rYmT0dMpxgQEFpqKkqosyqHhPsqvaD0mBQFMHhqjIQCDZVRTj1rPqCkaouyGn2VRWWlGZX1WeM+k/VMdJ3MqCgNORUFVBWVY+zi6r9oTSQiiKYiouKYFVVhFPPqi8YqeoinWZPVYFJaXZVfcao/1QdH30rAwpKQ05VAWVV9Ti7qNofSgOpKIKpS2VAEGhVRTj1rPqCkaou1KnvVRWglHpS9Rmi/lN1bPS9qQEFIYQQQgghhBBCSKBgQEEIIYQQQgghhJCAw4CCEEIIIYQQQgghAYcBBSGEEEIIIYQQQgKOzwOKbt260RDVV6jWTak/9RWqdVMaKhL/onrNKQ1VfYVq3ZSGm+GGXwKKfv36Yc6cOTRElO+nL78c/IzQ3JKfXUoz1tffE6KGxw8aDvK8S6nvDNfzs18CCvmCHjt2jIaI8v309cmGnxGaG/KzS2nG+vp7QtTw+EHDQZ53KfWd4Xp+ZkBBM5QnG2pX+dmlNGN9/T0hanj8oOEgz7uU+s5wPT8zoKAZypMNtav87FKasb7+nhA1PH7QcJDnXUp9Z7ienx0rV66E1FfwQBJ68mRD7So/u5RmrK+/J0QNjx80HOR5l1LfGa7nZwYUNEN5sqF2lZ9dSjPW198ToobHDxoO8rxLqe8M1/MzAwqaoTzZULvKzy6lGevr7wlRw+MHDQd53qXUd4br+ZkBBc1QnmyoXeVnl9KM9fX3hKjh8YOGgzzvUuo7w/X8zICCZihPNtSu8rNLacb6+ntC1PD4QcNBnncp9Z3hen5mQEEzlCcbalf52aU0Y339PSFqePyg4SDPu5T6znA9PzOgoBnKkw21q/zsUpqxvv6eEDU8ftBwkOddSn1nuJ6fGVDQDOXJhtpVfnYpzVhff0+IGh4/aDjI8y6lvjNcz88MKGiG8mRD7So/u5RmrK+/J0QNjx80HOR5l1LfGa7nZ0evMQsYUFCv8mRD7So/u5RmrK+/J0QNjx80HOR5l1LfGa7nZwYUNEN5sqF2lZ9dSjPW198ToobHDxoOht15NykRuzYtxSeTRqDnM03QacbX6uUozYbhen4Oils8Dn+9HFN6tcTd5aJQMK8DDoduRBGUfHEK9igeQ3PPoDjZHN2HjfOGoX2d21CySETaZ8SRFwWj7kG/LxWPoWFvoD67Sd+swqR3m6NameIokMf1WS143W2o23EcVu1PVj6G0kDp6+8JUZO540cyDm37AnEd66JKqaKI0M9z15SshmbvzcTmw6rHUBo8Buq862bSHqyfE4O2tSvhxkin2zVjoevrIXat4jFZMgm7l4xA2/vKINJprNuBiKLV8fa8vYrlaeb9BjOeiYLjhmcxY1fa9ANLe6CKowDuH7LBtGzoG67n5wAHFIexYcJzqJBffrGvQvHqTdH2tdfwmuZzaHJ3OUQ9Pg67lY+luWWgTzZHdy9AnweLaQd/Z+EyqPOk8Rl5DS8/UQe3lbwNPRarH0vD20B9djfH1UPBgtehZvOX0KXvKIzo0wGtahRFXnkBc2dPLElkSEGDR19/T4iazB0/vsOXvaog7zWl8VCr9nh70BjE9ngJzW4rKM6BeRDZcAQ2JKkeR2lwGKjzrmHS15/inXuL6IFBBdR/Ou2ase3jtVHpxprou0r92Mx5CGtHNEWUMwIlHngJ/cbMwhfrd2D3gSTFsjQ77p3XBRWchXBvrwX45oh4T3cvwod1iiBviWcx/Wv1Y0LVcD0/BzCgSMKmMc1RLK8DxR58Fx9vPoBk5XI00AbyZJO873N0rxIBR/4KeGbkMuzmhRnNgoH67CZu3YDth6whxB7M6XAznOKiqdagjUhym0dp4PT194Soydzx4yi+3bQR31jPdUnbkNBSFl1X4/GJu9znURpEBuq8Kz26ew46VnDCUeh2vDxuJfb44Zrxuw3D0aCQKJ4/WIpExXzqCw9h06xeeOyOYsgvrpkcEUVRofkHmLf9iGLZ0DZcz8+OmBmBCSiSVvRF9fwOFGsxFpuPqJehwWHATjbJuzH92WJw5L8d3RfsUy9DqRcD9tn15Odv4YY8DkS0nsILGxo0+vp7QtTk9PiROLUNIhx5cMObC5XzKQ0GA3bePboN42WIV+hefLA0Ub1Mjj2ApT2qwFHiJczerZpPqW8N1/NzgAKK3ZjZ9gbkjaiDIRuzmIYl7caysa+jfgWjv4oIFCl5N54bsgjbTUGHEYBEPjoWW90S1J2Y9sz1bs+9uHspsZ6mGLv7ML76pAcalims/ZXTcVVxVH+iHz7dln4bD3/1Cfq0vBulC+v3tsllnxuDVZam22nrdn982ryKeHvxgdRpW8c2RaRy+X2Y066k1kS86djd2jTX4+VroNa13FaMbRoJR8W3sfiAdZ2ZM1Anm+/WDMB9EXlRst0c7FPM92wyDmz+BP2euDu1v4q8BaNQoWF3TFtnCjqMACTiVnRf6H4yO7SyL2qan3v3WDQV6ynVfTGO7lmO+Oeqo/hV8nV2onCZ+nh93Ir023h0D5aPbo86txbHVdp7IpdtiHc/3e7+13PTut0eb5oX2VR8jo1pBxbj7Yrq5Y9sHII6EeK5SnXHYjlNf7z1s5GqvtyBxW+joiNSfGa2pltnptS3yW07xfuQuGooGhZzIH+FFzB5k9H88Sj2LB+N9nVu1V9D1607Dd/9FNvdvqu7xWc3bRuN6Ue2fYwOVSKQt8gD+HCJ9+AqUJ9djy7thVuc4r3rNB8HzdMPb8ZHPZujWslrtO+4w1EQ19Vsi4S1B91bli3ogmLm90/3tp7LcNg0//GJiTi8+SO8Ve8mRGrHSbm+Nhgwb0faZ29tDO4t4EDE4xOxJ1mfZjJpcQ9tW2v0W4sjOxZiaKemqF4yUt++CBQtdQ/ajl2F/UdNj9Oe/zb0XHbYbV2yxdyq/veggGlbtdtg9O1XmbrcyPooJNb5Xrp1ZtLNI1G/kPo5Um05MS0w0pe/7b1lSPxmCYY9exeuvyqPWE7sc4U6eH38WhxQvF7Ge5j2GhVE1G3N0H3GevXySd9gyah2qHuTvrz8C1HT9zHnq0Nu77ly/5O2YcYrFUSxGoW6A5ciUbzuxc37Y1Xs337TOq36+ntC1OT0+HHw45dQxJEP1aJXuU1P3r8KCR3r4rbr5G0g4v3Oew1KP9wVs7e5NzlPnNQq/WfDcRUeHrHJNP9adJ6fjP2rxqJtzetc31G5vjqvYtSyPanrOvx5V5Rx5MF1necpWoMlY9/M58W2FkLzcTvEeWk2PnzJtH15CqB4uYfRdeZm13FLV3v+qx7GiE3mdQmTE7GgcxnTtrpug0m/L4aW5VTrzKTffdkLVeQ689dEjId+C1yvhVhGue37sSqhI+repr+WWn8id+Pp6PnY5umv+4mT0Cp1XwzT3iezrve+DioU1a91rimNh7t66qvEw+t2bWfMT10mEZNaWadlzUCddw8s64Vqzryo8NbCLP4B4CgS189Er8fuSu2vIm+h61G5eS/M2mgJOr5bg353O3DDs9OxYVlcWh8UeQuh5N1tMHDBLsv3YS8+e118dqPaYOr2RKyf3g31ykRqNUbeQiVxd5uBWLDLemuIantK4r7247EmUV9m72d4vYzpPbQqn0/eCqEvF9VmKr52e47Matp+t1srtmF4HdPzWKdX+QCrUqdJjX26A8W02/rzolDJ+9De2spF394qH7gf46SHVvVDTflap1u3y23D63h+HdyWtfYfIs/tzfHBvO04Ylpu72evi+91FNpM3S62fTq61cvovfa07xaN9y6j5XTD9fwcmIAicQ7aXS8ujJuNxS7VhZsnE1djWNNi4mLuKtz0QHsMmjgVU+M/wLO1orQvu3trjH2Y92ZFcQHnHgAkLuyOWyMiULPvShzSp7kK/UfwbnRzXF/0drTqFY9JU+PxwbO1ECU/jMVaYYLbiX4xupcS239DLTzfWy6bgJhXa6KIvF2l1QS3k46vAop9c9qhpN6BqBFQ7Fr+EaZOFa+BMK59NXHyuxHNP5yQOm3BRnlBa9eAIglbhjwoDgRl0P2LrNzXl4Sv53RBFVGkO6+9HS3fixevxUTEdG2EirIYtrTGOLIpHk0iLYV1knjNHhVFw/XPYNpOfZpe6Jd8tR+6334NStZpj5iEqZgY0xWNKl4l3pf8qPruF24nxd3ivXTkvRqVmnbRlp0U3wvNy8jbVari3S9MJz1fBRRHNmJIHb0DUaOoP7wRC/TPw9QJH6L5jQ4UrNYecca0j5Zjl1jOHwHFkc1j0aKYOLEWa44xqeGEUNunvLi6UlN0iUnA1Enx6NW8jPiuWl/D9AFF2i0/mWtVE5jPridlkV4T+R1F8NyMfW5F6IIuMigrgfvbfohRk6diXExbVLtaFMVRT2PK10fT1qEHEDW7jE/9nks/WbnbdaLU5zfvFY2GxYriztZ9tPXF9XkKNYrmFZ+NKDw95Wv9pLoDCY9eLZ73cUzcY70dJQmLe9wCZ0RjjNou3ju53oJlUKd1d8ROktvXCfVukp+1CDQeZQrcPAQUSav6454CruOXETwkbpiH6cY+9G6Mqy37ZeyTrwKKUi2jxbE67TXTHPEKqsiLJVVA8Xo/vFYxEmXqvI4YfZ8fuaUQ8oh9rvr+l26F1bGvZ+GVCuL1iEh7zd2W77kEiW7nuj34rIs4P5mWl+9RzWvFexTVChNN55v0+y8fW0l8X0zr/XoZZpj26XaxT277u3CT24WXVV9/T4iaHB0/jCLdWc5yTnQVlHkK3oKGnQZh3NTJGN2nJW6R58CKb2KBUdAIXQFEITR6X/9caE7HvPWu85FrflG07dcLd119A2q/LNc3CbHdm+G2guJ74qyINxfo564jaxFdUzzvdZ0xz1poJ+/DzOeLIE/xl/CxeH653rxFKqPRi73FuUds34dtUfM6sb48xfHSx2nnQnVAkYzEBZ1dAUBqkX4Uu1d+kroP47vcY9kvY598GFCI81PNmLWKZQ6J96W0mC+WsT7PkQ0Y3ew6LZC5ofbLGDRuKiaP/hBta5fQWsJ47E9ECyjyocrLw7X9mdT/cZRWBBTJiUvR604Z1ldGs+5xmDp5ND5sWxslIjytW9/WQo3wvvY6jUeXe8R2h0RA8R3W9LtbXHPdgQ9WZuWa8TtsnfEqKohr/YjrqqHN+2PE65KAgZ3qo5w8N1hbY3wzA89EiYL/7ntQ4aoSeOD5dzFkwiSM6PkU7o5yiucvgWcmb0s7J6YW+I+iZ4+GKG48hxzx46m7tRojXb8KegEbUeIBvNTPtT39nq+KIuK6qcSz011Bw3c7sHSW8XmPw0u3im0t2RqDtN+FMxdhy8G0dQU6oDi0djgaFsmLQmUaossQUackDESn+uXE9ZDlVhlPAcWhVehXU/+DsLeAIrIW3hglX4Nx6NkwSrF94tgxp6N4vyNwXbU2eH+M+H6N6Imn7hZ1pOW9MwKKR3v2QMPi16Fam/cxRhwPze/1s9PNI7YwoPAlgQkoVvbFHeLkWaPvGnynmq80CSv6Vhcf5mJoMXaz5WJrH5b2qSUu4iJQb/iWtAPDvjloVzIvIuoMwUYZXCStReyDhRBRsy9WHjIea2qJULEL5u02FQPiOXfPelULBkq/Ps9UOC1FXK+PsPmA+aLeaOFQA33XfJc63ScBxb55eLNiBCJuqoBy4iLBCCjMuh7nvi6Xdg0o9mL6M2K7iz2DGYrXzpPJu6fjWfkX+9u7Y8E+93lHvpqKZ0qLk0Gpjvgs9aLtCDYOqYOIvCXRbo4seJOxZ047lM57PZ6ZtjP1sWktESLRaMQGt+Ik+cA6xMhgoFAdjNiYNv3badGIWaYXjrpGC4diz8xI6/zVJwHFEWyKb4LIvIVRocKN6VodmB/n3srBpa8DCiNIULZy+HYaomMs/YkY4Yrb+20JKI5sxtgW8pafCnhh8ia319WTgfnspjcpcSsWDm2FsuK9j3piUrq/nH0+vCfmbHX/y/memS+geB5LfxV6APH4JNMFk1l9vkMUtG99vhdHTfOSvpmG54vngaPMm1ioH/92JDyKq8Vx8/GJe9xbaiTNR5cb8qS1rtizE19b+9TYkYBHrxbPJZZJPTaqAoqkDRj+cEHxvBVQoUBaQJE6X2rs18T0++WrgEK2iEj3vEbrCkVA4XAUQYsxm3DIHCwcXo6+NQvAEdHIFdxo03eIC/qiyBNRFT2XJFpex20Y3+pa5HHcjDcXHkqdvkMUYkXzKN6jjcNRTzx3kbazUrfHff+TsDHuERTJE4HyL89Q/wXW2/560NffE6Ime8ePZHy3ZwNmv/8wrnM4UaHzXMvIZomYMaAflnxjLsqSsHVkQ1EEu/dX4QogZAsJYzl3XfPFZ/+qOohZY/6+JePQpmFoKI5f+WvGYK027QjWRtcUxfd16DzPvSBM3isKbFEkG60rkr75Ol2fGkfWRqOmeK5rO89PnaYKKGQR3qOKbIVXQRQL6lYEnvfLVwFFfnFeLQNnue74wrIfyftm4vmihcR8Ufi7Pc8RrBt0PyLyRKKhuGZwO18lH8Tq/rW1UF4VehxZ1Qd3Ogrj+Zmu46FrGyz7nrwfH798HZw3tcfHlvd+W0JLUcyq+ipxhQ9XPTwCm0y/h0ZA8TXGP1oIjtLt8Ole1Xy1R7eNR8siDhS69wMsNYV50kMbxuLxG8Q1463iGkQW+3L6tuGoI78jittIUvu/cCuK9QJfPKZAtffw+R7LezXladzgyItbxfVcaqvKvQsxZOAct1bhx47uxIxnb4CjwP0YssE0XdNLYRwMAUXiYvS4w4moVgnut/Qf3Y057cW6zfukDCgOYc3guiiUtxgq3BLlobDfhwVdysNR/i0s0t4r9Xa73u8CqPbe5+4tNw6tweC67p8fV0Ah9qVANbz3+R6373DStil42vrZYEDhUwITUCzujlLiTVcV2h5N/AwdS+VFRL3h2KK6KNPnOx4c4jZ/57RncL34UD87fTe+SmiBYvmqoIeliHcFBZFoPWW3+8Wl5jrE3i8ursuLi3rLwcuqKiTIeUChtwSJENs9eRiaRoZLQKFu3u/dJGwZXg8ReUuh42eqAk6f77ge7eaY5h9aKYqOCOSv3hcr9osDaZV8KNYiwb2I14OCiCq98aXi87d/zmu40XENGo7anG6em6qQwAcBhaslSF6x3SMw6e2KgQ0oUoOErPQdcgCL5XZHis/+VmOa6TOQvA+fd68i3ttiaC6KxsyEE9LAfHYNF6BLMbH98gSneSMei12Knarjl8rNcahXUJyoe5r+Wp/JgKLIczOwV9E6bVV/GfJWxDtL9OIjcTZeiTIFEfpyibNfQVQe2dJjr+KYqJs0Fx2uFfvlNaBIwobhD6Og1nJjEjqK18M2AcXd/bDGfDGlmzjrRRQV29p83Leu12ZdDGoVcODmNxemtspzU59fquM8/QJ0HWJqFfBwa803ojiQx2vxmddDJPP+7/msCyrJkKvVRM/NwxlQBC1ZOn5Ym/lH3IpXxq/FXtWyClVFbeYCCifKdf9CcYzV//pe4EEM1YuJoztGo4kpiHAtdxQ7RjdBRLqWHu4m703Ao2K/vAYUyYmu+/1ly41Z8eL1CFRAcS1e6dUVZdKFMcnYK54733WvIVpup/l5Dn+OrqIISQt0LOrz81WLTlekaLfyOMuj51LX76r30vXaq1+PYwc/xkui6C7a/lP39/HIKvS504GrxbFHtpwMrYAik8Whm99h7YBacOa9Fd0XH/Q831Eeby3S5+sBxa29liu+I0exbUwzcbyORKPRW/RpRkBRAi/NVtQ8+i0jjlt7YXkG1wauWxiq4IN0I5AEd0CxW5wzb/DQssU1dGgxtJq03TVNEVAcWjMYdQvJ1iOjMV5ui/I9dgVUBe4fgg3a76rt1t/PdNvs8uvxj4r37lb0Wu7aTiOgKPHSbMVoknqLHdPyDCh8S0ADikfid3q++LWaYauL7ZjQoogocJ7BdHN6mrQJo5pEisLyftQqlhcVuy7EPstFoSsoeBBDtqhPpsqQISkRmxZNQkz39niuyd245SajTwz3ACGnAcW+eW+iYkQEqnT/HPu+EsVqdgMKsV1ueugzQ2VgTjZ6cVryTSzMbEEnDkgZtbo4KA6GtzkicEfflabpydi3sCsqiuK31v2iCI5sglHmWxKkelBwfbs5aYWMYr57yJCMw9+swCfxH6DLy0+gTpUyqX1iuAUIOQ0ojmxCvPiMu26l2O8q9LMVUJg+H5oe+sxQaay7QQ/00sKJyujwsefHJR/+Bis+iccHXV7GE3WqoEzJInCN919KXCgYyxmfgVfRTw8nGg9ekaX+SALz2TXcgWUz9OaWcX3QodV9uKFAHkTc8gpmWu4Nl4V84oaFmBDzNto/2wjVyt+E4mJZ7X14fJIlAMg4oKg/wsNrny4ISMTsV6KQx+02D32aqaWF1aTEDZjTsy4K54lC21mm21UsAUXShuF4uKBsNSILaldgk72AwvhMGhZEVA3ZR0cmRn/KZkCRFihYtKzvG1GgRDqKiNfBw3ty7HO8daN4L2sNdDW5/kYUnuI47r4/Vlti4n7X442AokO/dq5womkc1ri13rPIgCJoydLx48hmLNSba0+K7YGXmt+FohF5cHUN+VdYy7LJ3+HbVZ9idL8ueKV1XVQpU0os6/ospQsAMgwo0v5yr55vevzRHRjdJML9Ng99msfCXLYI+XYlprS7ExHOW0URnnYsdA8okpGoFS96qxEtsMlmQGH9fnnoo0OlEVB0niNvacmD4i99nHas0Pa1AMp1n4+lliAkaeMg3Ce2vXzPpW7rSzMRU9uI64GrxbF3l3m6vs2Fn8dM/Y9iqoDC1R+JZb8sprWU0NWCC3Mnq14CCsu68hS4Dnc+MwzLrJ89hYE57+rFYSYK/TQzbnWxT5ybyjsK4P4hG1zT9IBC1UeCeX75txbp5w+9UI5shNFbLMua51uL5qQ9WL9gMgZ2ew3PN6qGsjfpo1lofSKYbyuQZhxQWN9POfxq874LsCvD1yqnAYXeqajl+a2mvp7WgEJv2ZC3xDOYvG23a1u87Ge6191t+/T3W/H8aaa9vq6Awhw2uZvWR4Xxfuj7blmnx/5DGFB4JTABxVZXoX3ja3O8dtzlZiZaXXgKA5JWRuNuef9zoVaY9E36CztvIYJqftKmyXihQn4xzdVBZ9O2r6HLB/EYrvUDoQoo3D+s7noJKPRbOxwVu2LhPrHd+uuWrYDixub4cIJeLMn+NZ6qrvWZ4bFFisnAnGz0v6gXvB+x61TzVWai1YWnMCB5N2Y8X1y8H07c2mtp+uLOW4igmp+8D1/0e1ArurQOOus8idfad0fMKFc/EKqAQv35cOk5oNBv7RAH0SajZMsC/XXLVkBRENXax+mfEdm/xpuoJ/vM8NgixaS+7rz58mlBwzUex+pPxr4v+uFB2bIgrygyK9TBk6+1R/eYUfiw+Y1iXxUBRd58yCcutp1lO2Gu5badjAzMZ9ezSRtGoGHhPIi4bxDWGn+dT9qA8W3Kaq9bRNFSuKf5S3itS1+MGvYKquQT+5+NgEJV6Hua7+oM09SXROIsvFjEgTKKFgFaXxni8ZqFaqHHfKM/C11t/XpAYdzaUaQFxm2VhUBOAopSaBk9KfWzGdfnCdwp++hwu9XCg9kMKDwW+Jb5Gbfw2IyR9cVF0W3vYZnsuE5/vLJPjFQXYpP++XCtPwL58snAqiK6fm65jcRqRtuv0NffE6ImZ8cPWbD3wp0ReVD08QnYoU9PTlyGmIevE5+NPChQvBweavUa2r89CGO0fguyE1BkZb7eGaapL4mjO0aigfLWBffCN+91zRC7Yq/bMuaAwri1Q97CMEcWxTkJKPJVwcvDje+W7FOjodZHh9FHhvtj3E0NKOYnYeOg+8RxrznG7XDN0/ZVa+mQvqWGKlRw10PrjqSNGHSfe7igWpdrn639ibg7fd76tOOa0BWaFETDUV/p07wEFKn9VAi1vi1q4jrxvnkOntIMzHk3oyBApZfC3tAaSGQUUOjFZ1qLBU8FvmH6+Yc2jMOTpWR/CxEoWuYeNH9B1Bj9xiDupVvFtOwFFJG13sAo4/1MGIjXHyoFp/XWEqU5DSiM98XoG0LtJ6u+dT3eLaDQb+0Q+/zkJNk3hL4uxX66WmKYXxvVduvbZu6rI50zsWiLq7VM+gDCXY8BhXn9sq+R1rL/EAeKNNdbZjOgyBSBCSiOrUTfO0ThU7qdOPFk/Bd8zaXvoqwoqD23oBAF5jPi4vnG1zBH/8uTS33UjmI34sb87p1jGnoPKPT1RjyGCd/K33diypNFxZetCeLWu//1zhUSqAKKaugwxvwFcNn30WvFPE8BxT4s6H671hy760L9L5Q5CSjS3eKRiM86lkrXZ4bKwJxsxJd/+jNinwrhwdi16QMDpd9iwmPic+WlBcV3a/qihjhB3x+7zm26a9SO/LjxxmJw6xzTMIOAwrXevCj7ruuvJYdWvo+7xMml4hufuve1oBfyqoDi2kf7pvuMTB3TAdXEPE8BhdERZWSTUdikPU9OAor0t3gkbRmOeuJCzq3PDJWp647HgrEtRLGZHxVemKxvk8lDK/H+XaIQr/gGPt1tLiz17VYFFKW64ZPPu6NKRF4UeeBDLMlCSBGoz65nkzC3g/zeP45J+oXxjoTmuNpRBI+N2eze34F+i4cvAwr51/5rxOey9RTz/KXoVcGJiMajtFFU5C0MRcRxod/a9KMX7Vg2w/W5jOuDtg1uQaE8BVGj99K0DiBTA4oD2BDXEIXzFEGLcVv1729OAor0AYC8DeU62UfHQMv93Va9Fez6vCwFFKJIlB2qVX1/pXYu2jq6kdg+by0oXK+vo/4I1yg1W0ejkVh/ZoeaTd3/z2ajSyVxfIuqi4FLvYQUDCiClhwfP5L3IuFR8XlNLSj1fiCcN6H9x9+4fQ9cRa0vAwq9QM9zA95caJqu/1Xe1bLgKHaMbOBWxKd5BJsXus5rk2LfQWvZUWTeYmgyMu37mxZQJGJpL9nCQuzXHH3kkJwEFNYQwLgNRdlPg7tpAYX1tgrXa+8q2NM/j6sfCW8tKA7i45eKuLWUkLr65nDfT2VAoQ05aw4bMlZ7jOnWEa8BRbpbPA7j866i4HN7vNpAnXddTfSLoMnozN4Gug0j64tjs6hFPLWgcBW+pr+i651klm73qfp2q23i+CvOD2m3gHgq8A31v+rf8CxmyJY0R7dhTDPxe1QrJGx2Pwe7bvHIXkCR7haP79ZiQC3v++4ypwGFqGVk3xB570S/1eblPGgKKFwda4ptf9Lot8tTQJGIL7pVsmyLOqDQ3m/jtXZbR3ozCihcn7cb8OwM4xji6X3YjVkvmvoPYUCRKQIUUBgFtX7rQrr7cBXuFgcFcXGbUR8U1vlpfVBsFQX/rYhQDG3qChFuxGtz9rtN10zXt4VrBA+HKPKsBdvKvndofwVNH1Coww/XPHVAMXzmu6iaXx4E56Tdp+zTgMLbY9wN1Mkm9a/y1lEgPPod1vSt4eUv/h76qDD1QbFUFPyPRiqGNtVDhIL3x2Kdebpm+r4ttBE83Ipt3b3T8Yxs3q0IKJThhz5PGVC8ORkTWhUTF4MPInat8fr4NqDw9hg3zcsZ/UU48uP27guUr2P6fdVvz1EGFHJfxMWtFnzkRbHmY9IHHx4M2GfXo+kDClerhLTfU9WHJM1OQJFuGFNN/dYNR32MsLQ6WBtzLwpoI3Z8LS5Or0krpk3LpFcf6cNRCwM36uszAoqpw/CIbCnSYAS+Sl2PbwOKTBfi2QwoPL0G62JqoYD4nHacp9+TrAcWGfVBkTZfDyxKdcS81M61PGve/6SNcXhEFIPWkT7cZEARtOT4+JEuoPBUTKbdApD1gCL9MKaa+q0b1oLaKFy11gh7XH/9L/z8zIzDN32kD/MtDkZAMXiaKO4j8qCYWE9qh6A+DSjURb9Kc0BhbLMWSnz3JXpVMVqKKJ5H7wcioz4o3OfrIYAl4FFtq6s1RCZfa01XIOI+6kpWAoqMPz+GATvv6oWf63aAzFwz6rcfZNQHhXn+0S2iCBXH7xIvYbbiuv6bGc8gSvWXfHM/FmZ3z8KLN4hrp0ajsUX+7ilQMLbVVwGFx+DBak4DCqOQ93yrhJtGQNFzKkY2EceHIk0wOvX630NAob+G7n1FqLbbeA09vBcWXQGF+bYRs3ro4NZix/P74NZ/CAOKTBGwgEL2DTGmuWvI0GpdZllGxHB5+KsZ6PjGJHyr/Z6IhTJg8DqKh6szzNS/LO2chmeuz4vIR0XRJA/I+u+po3roy7mCAgci7umD5W59MhitGCLxqCjcXGmoHlDc9b7bSCBJm8ageTE5jJ8vAorSqFDBdV+cWwsTv7Sg8Nz3hmHATjay+aj2l3MHnDc8iiGWETE0j+7Bspi26K8n+kniNXpUvEbeRvHQOsNMPUEfwsq+NRERIU5AC2VxpP+eOqqHvpxeWDvy3oBnJrvf32+0Yoi4tXtqR6qugKIonpxiGgkktXAX6/FBQFGoQgWUTtfCxD8tKDz2vWFoXbfRUWbeq1G9hymk0Pen6JNTsNOYZnqfPQcU4vfU18+JG1qNy1RIEZjP7g5s3LBf+Rfuw2uGum7xkK0VjrqmuQIKS4uFpA0Y0bAw8sjPSjYCCkfE/YhefdBtG2QHixXFa1yk1UTssL52a2Nwb4EINP5wAB67xjJ0qDBx59dI1Lc3TSOgqIreK/VWWNrzlxLHr6uRJ6IBRnxlPrb4pwWFx/42DLMbUDhuRtsZ5uHixPdhQ5wWvKTerqFN12/h8DaKR8R9GJj6/iZhaa/bxOfYNExo6mOS8M2coRi9Kq1Vm3X/jY4yI0o8rQ4pGFAELZk6fhz5Chs2q24XEsfJRe9qhXtaPwh6MWkpaI3hJ+X1SNYDCgfyFH0c49w+W0nYNulJbRSRmzt/lu5ccPhz2YFkcTw/6H3cZxk6VLZW2PP1rvSfRSOgKNgQo75yTdOeP185VCgbgTzFnsdMc38HfmlB4bm/DUO3gMK4pSVfNbw/VkxPfd1Vz6NP8zaKR56ieHzCjtTpSVtHomFE+tdYGaYcWYdB94v32FkBnefqrUwMxWv7xYA4fGGalrQtAS1TW7oY07MSUOjhidj36HSdNLobmPOu1BhCUhwfb34Ko1a6j7ygmbQbi/q9iqH6X/O/2zAcDcTx0tsoHoUeGoJ1qefMo9g2Xo6SUgDVei12e5+MUTzy3iyu3VOv+Y2AQpx768dghfk55CgWHSuIc6gpdNCL1wK1YrDGdJ42WhP4vAVF6qgXnsx5QGGMlKIKjo4mrsK44XP0TluF+vYWEde3N6RrDaMKKA5hVb+acBa4Gx8sM4cO6u1OXNwDd4jPh+r9Tvr6EwxKSLs1zQgoHEXqI2aF+zHN+Jy5v66e3gdLmMGAIlMELqCQ7luCfg9HiS+neKNkp41N2+K1114TPocmd92gdTpZ7MWP0oqbfQvQo/rVWqhx0wPtMWjiVEyN/wDP1i4plrW2xtBv7XBrMZGETaP0+/Xj08aFdwUF9+GZF25H4YqN0DVmIqYmxKB9HblesQ0txpqGxknEF+9WRX5xcXlDrXbaNsR/8CxqRV2HWvWq4xqxLzkPKMTrYQ1bpH7og6JYqwmee4PXDdzJRnoEX019GRWvkq+J7LRR9lkgPyOv4eUnHsQtstPJ/NUxILXp2BFsHvcEbpChxrW3o+V78WJ/JyKmaxPcLpa1tsZw3drh3mIied9CdBXFdkTFNzHPCDn0wjqqxQtocV0Uaj37AeKnTkJ8r1baeq0jViRtm4BWohjLe3UlNJfbMDEGXRtVROFb6uHB8mJffBBQyBOee9gi9UMfFPmr4t0vvF/EqdadLE48QxvKkMI08oYo2LRWH3mvRqXm74nXUL43jVCx8C2o92B5sU9eAgrpkW34uIOH1hkKA/PZlYV4BIpWqIPWr3RB31GTMS7mbTzf6DbtO+eIaoZR69PCiMQFb+kF5/14PWaSdvvEUzWK4voH6qGa/NxnI6Co88wLqBhZGU27x2LS1HGIeaU2brhK/uX9CQ9/ed+BhEevRpFrr4WzyHOYsdc9MN4cVw/XXlcTzTv2xajJ4vOReouH+E5oHWDqyxoBiTg+3jdwrSVI9kMfFFFPYcrXqv0xmc2AomKr5/FQsZK4v+2H2j7HvdMctxXJqwwikjaMQrMoOa8o7mzdR1t+XEwnNL2tiDhfReGJie5Bx7E9n6FrlULII16nEve3xYfiM6K97/fdgKvyuIcx6QMaUSzOeAUV5Gemak8ssXZ0zIAiaMnU8UMW4nkK4Lo7GuHZ9m9j0LjJGN2vM1rXKaP1ceUs/xJmpoYRR7Fz6jO4zpEHBW9pjO5x8vaJ7mh2WyTK1KuDSmL5rAcU16D5C0/i+qI10Ka3OB9MHo0P2sgOOsVzV+iMuapOEo/IDiSduPbaIoqhOGWhfjuuKf0Qnnx7EMaJ72/qLR7inG4eNtUISByWwl3TD31QOMU5foGlSLHqHlAItZYPeZAvXwQKNR+n9wWiCihcQVGfmgXF/hTADbVfFu/lVEwe/SFe0t5L877L218m4YNm14ljSAW8GGtsq8tJWn8i+VDl5eGYOmOp/pyyT5I+qClvA8xbFDXa9EbcVPFZ+fAl1CkjnlMPGI7uXolPJsXgxdsKIk9kQ8S7BTVeAgplHxR5ENkw3r3jTYWBOe8aHsKGhGdQLr/YB3F8LVqhPp7WrxnbPn4fykSKotxtSPhDWDuiKaJkqHFdNbR5f4zY5wQM7NQQt4plla0xvtuI+OaydhHH74e7YIi4tk7o1xZ3R4l1R9yMF6aaj/d6oVysDp59rCKKVXkM3YZMEDVGP7StVVLUEnlR4pnJpuvwvZjXRYYWxronYUTPp3D39eVRr24lsU/ZCyjUfVAUQq1+yzPXB0W6PiTi8NKt4jk9TbeECMZrnLdIFTzWbQgmmF5jtyLfKN7FccA9GJJaAorEdfhsTHfUKSKWvbuT+Pybt2McejaMSt2+1D4uju7Gp2/cJl53ec31AF7qJ95v2U/EM7VQUnxmzH2LuAKKYqjz7GOoWCxtu/u1dS2b/rOhvw/KPijkKCTTXfvJgCJTOGQ4EbCAQvMwvvqkP56tUwFRBV0tEBwRRVDy7ifQa8pK7LH+1e7wV/ikT0vcXbqwK9gQJ6zi1Z9Av08244DpL1GuWzsiUKXHYhwwPz5pBfpWzy8OFq0wQf9gpYYIu7bj03cbokxhcZAR676qeHU80e9TbDO1tnCtw7xcBIrc0gjvzdmGTXq44IuAopj4IO+23vqSk4BCe61MBv0oHu4e3bMcY7o2xd2poz3kRcGoCqjffjjmfWX9a9NR7Fk+Gu3r3IriWrAhLkQKl0H918dimbnfA/3WjrzFWiAhdWhLaTJ2T39WFEz5UfXdL1yFS2qIIH5fNQbPVS+Oq+R2OAujTP3XMW6FdThNcfFgWi5vwRtwd9t4rPhaDxd8EVDkr46+K6zFWU4CCtdrlWY2RvGwrDt53+foXiXCLaSQwcWY56q73pu8BXHD3W0Rv+JrL31QWPbFaJ2RiZAiMJ/dPVg2uguaViuTNhKHvFAqdQ+ad0/Aqv3W75woOGe/hXo3XSOKWXHSLFoBzXp/hh0bc9IHxR6xzm5inZHaOh0Fr0PNNgMwb4f185Kmq38KB4q0neV+zBQmLhmBZx4qL94z9/1pM+BTfHXItD/680fcNzCtE9BUcxJQyOc06/9RPOTyO5cNx7N3XY+r8ohlIoqiQp3XMd7DcyZ9swSj2tVF+eJXuVq+6MuPW7UfRxXLHzu8GR+9Vc9t+VI122DAp1+59UWibkGShI1xj6CI2K50IQUDiqAlU8ePpB2YH/MS6lZJG4lDFrjFyz2ENn1nYnNqyx3d5INYN74tal4nilLZUeZ1d+KZYeKzqxXW2eyDYp55neL8dU1p1Hl1lJcRHPT+KcQ5I32fC0exa86HaH6PdX/q4NX4JfjGVIC4nt+9E9BUcxJQyOc0m51RPFLXbazT3PpCHVBIkw9txdyBbXBPqaKuaxex79fd0Qzvzdxs+n7qoYB1O1W6hQnJOLT1U/Rufhuuk+cKMT/vNSVRrdl7mKm3wnH1hSE+FzfUwfufW1paeAsoLM8b/KN4uJu0ewlGdmqEu26M1GuFvCh0fWU06hKPz7e73+YtP7+7xTmube0KKKYFG67zcKOuk7Byj4fPSNJuLBnRFveV0dcvj/eNumJSulYbpr/kb9mEGd3quUISuT0l70abgYqRNA6Zl5MhS3P0XbALW3LQB4X1/czyKB6Wx2doum2Rr/EQtL7rRkQ65TL6+2F9jY3tLfQQhqyzvvaWgELvsFT5/BbdOjU9moj107uhQQVjZBTxGpcR1zP952G76bolrQ+KLdg0Q1xP6e+1HJXj7jYDsWCXdfv098H0vFKO4pE9giCgCLzeQgQaHCebgOstRKBBa9h9dr0U+hm5I+FRXO0ogzcXHlLODxuzUeDbXV9/T4iaYD9+ZBRgeFbvrDN/TcSsVc2n3nWFAumGBbWovT/pbr0IPsPuvOtVU0DxtWo+zbZaQKEKbMy6QgOPo654MaNOMnPLcD0/M6AQMqDwLk82QgYUtjTsPrvZDijWIubeAnDc1tPUt0KYyoCC+IlgP35kO6DQO3zMqMCmnmRA4Y2gP+96lQGF32RAEdIwoBAyoPAuTzZCBhS2NOw+u9kMKPbM6YAyzgg0GPFVxrfzhLoMKIifCPbjR/YCiiRsS2iJInmK4fmZ1lsIaOZkQOGNoD/vepUBhd9kQBHSMKAQMqDwLk82QgYUtjTsPrtZCig+x8D2gzAmpi2qX50HEXf2xpfh3npCyoCC+IlgP35kKaBInIFeHUdgdJ+WuCUic50n0vAw7M67XmVAYVcZUAQWBhRCBhTe5clGyIDClobdZzeLAcVbN+Rxde7VtD++2HtUsUwYyoCC+IlgP35kLaCYijYReueJz43BGoabVDfszrteZUBhVxlQBBYGFDRDebKhdpWfXUoz1tffE6KGxw8aDvK8S6nvDNfzs2Px4sWQ+goeSEJPnmyoXeVnl9KM9fX3hKjh8YOGgzzvUuo7w/X87Pjiiy8g9RU8kISePNlQu8rPLqUZ6+vvCVHD4wcNB3nepdR3huv52RETEwOpr+CBJPTkyYbaVX52Kc1YX39PiBoeP2g4yPMupb4zXM/P7IOCZihPNtSu8rNLacb6+ntC1PD4QcNBnncp9Z3hen7mLR40Q3myoXaVn11KM9bX3xOihscPGg7yvEup7wzX87NfAop+/fppLygNDeX76euTDT8jNDfkZ5fSjPX194So4fGDhoM871LqO8P1/OyXgIKGpr5CtW5K/amvUK2b0lCR+BfVa05pqOorVOumNNwMN3weUBBCCCGEEEIIIYRkFceiRYsgJYQQQgghhBBCCAkUDCgIIYQQQgghhBAScBhQEEIIIYQQQgghJOAwoCCEEEIIIYQQP5KSkoK///7bq5cvX9aXJiR8SQ0oFixYEJISQgghhBBCSCCR4cPvv//uVRlSqOoZSjNjqOAWUCxZsgTbt28PCeW+hNIbRQghhBBCCLEnWQkoQqkmo/431Opet4BC7mCoIPeFAQUhhBBCCCEk0GQloAilmoz4n1Cre0M2oPjqq6+0faL2kBBCCCGEkFCFAQXxF6FW94ZsQLF161Ztn3bv3k2D2C+//FJ7nwghhBBCCAlVGFAQfxFqdW/IBxSqLz8NHuWHkAEFIYQQQggJZRhQEH8RanVvyAcU//vf/2gQy4CCEEIIIYSEOgwoiL8ItbqXAQUNqAwoCCGEEEJIqMOAgvgLBhQ2gQGFPWRAQQghhBBCQh0GFMRfMKCwCcYb9dtvv9Eg9ptvvmFAQQghhBBCQhoGFMRfhFrdy4CCBlQGFIQQQgghJNRhQEH8BQMKm8CAwh4yoCCEEEIIIaEOAwriLxhQqDj/LT5+pwVqlItCfocDDkd+RJWrj3eWJOOivoiZ1Z3lMlavQcmKNdDinQSs+e4C/tWXzS7GG3Xu3DkaxDKgIIQQQgghoU5uBBQ/TWuQvsbKVwx3PDkASw79jv/05UiAOL0Mr17vQOkua/B/+iTgT3wz8E44CjbCzO/1SVkk1Ope3wQUSdPwWP3n0H3YDCxbtgzLZgzDc/dcI74U+fFQwqF0YYMroKiCx7p3R/dUn0N9U8BRrt3n+DEHKQUDCnvIgIIQQgghhIQ6uRdQFEfttmk1VscWt6NwhKivrmmICQf+1pckgeE3bO55KyKuqYeRX/+fqJEv4/92xKFhUSfKdFmF0/pSWYUBRWb59xBG3ye+DPnbYvF5fZqOK6DojNX672b+PbUdCa1Ki/kOlO68Gmf16VklM2/UnvENcJU5YfTk05/guOLxNOcyoCCEEEIIIaFO7gUUNTHmO32CRgrOrOuGcqKmuaXnFljKMpLb/P09Vg19BtWjCmh1Zr5id+DZMVtxMmB/mD+CKc0cuPbJj3BQOT/39WsfFEkJ94kX/j4kJOkTdLwFFC7O4vNn84tlSqP31uy9W8YbdfbsWY8eWTYMb3bujM6Gj92hteAo37B92jTp2HU4oXg8zbkMKAghhBBCSKgTuIBC8NtGvFPOgZIdVmT7r/QkeMlM3etZPaB4YiYOKOfnvkEaUAj2D0cVhwP5O6/OVn8U2XqjvuyGa8VzPj37F/V86nMZUBBCCCGEkFAnkAHFP4fH4sGIgmg4NSldPxSX/28XZnR5GLcUjhCP9fQX/Z8wrYGo32qOwXeX/w+7przs1gLgyQFLceRPfVEd9bb8ho3vlPM8vWQHrEhNUPRp8jn1Kan8nYj4++X2uq/HY0AjcM0riQ5pT4DfNr6DcpZpBq55DtR0fwI0sE5ToHqsa5pq2/5GYvz9iMjEej2R1br3dPIWzO73FO4pVUR73tS7BhwRKFKmFp6KWYL9J9SPzQ39GFDorSCqDMd+fYpBpgIKHMLoGmK5GqPFv7IOAwp7yICCEEIIIYSEOgEJKFL+xpkDi9HnweIo1mgc9lpChJQz6/HurRHIV+J+tBs5F8sWfYTYV+/D9RFOlOn4JX5NTTP0gKL6+xj77m0oWulxfDj9cyybPx49m1dAAVE/XdNwAsxdXPgvoEgr6EMhoPg7MR73yz5CMrFeT2Sl7j2xewpa3xABR0RxVHusEwZPnoLO1RwodO9bGDdxILo0vwNFxPZElH4eH+09rVyHv/VDQPEvLvz0DT57607kz38n+m1Nf6dT5gKKzC+nwnij/u///i/zGgHFxz+r52sex7fzPsBjd16PAnnk9hXC9fe1w/StP+CMeTnlupKxIbYBCufJh0od5+PAKdPyJ7/D2okdUf+WKH29+XDtTfej3+pf8e24+l77yqj6Tj+8WDwPHFWjsflX0zoND0zDY4UcKPrqfPxw5v/09VVF9Oaf8d3a0Xixur4v+a7FrQ264aOvf3Hfl2/Hof5V4nmiN+NX83Sr+j5nuJxJBhSEEEIIISTUyb2AwlorFECFlz9G4u+WthMpv2De00VRsPYI7HKb9zcOTWyEaxy3oOcWo47TAwqxvpKvLMLP5tYVKRewZ4QMDIrjuc9/1Sd6CgtyHlD8fWgiGl3jxPVVKuN6uwcUfx/CxEbXwHl9FVS+PucBharWMnsmeTnerRKBvNc/iSnf/KpP/w6TtVs8ZiBR+/0Mftg8Eo2KOVCgZn+s+9l4vGs5R/kPsOHUUWxMaIsaUVdpn4mIIregSbcZ+OoHY1nDUzi6cSI6PnwbokQtaSz7aL9lOGSug411i/maPgsoVndOW6n0gd5Yf0w1yKidA4qT2Dm2EQrnKYTy9bsh/uM5mD7iLTStUBB58t2N6A0/pxX26dZlPNaB658VBwnzm5K8Eh/cczXyONLWO2f6CPR85gF0mvszfti5DHPniGnS6GYoJNZ7f/eZrt+Fi7Ycxsr3y8OphQ7Ghy3NA9MeE48pj/dWu+YZAUW32I6oFFke9bvF4+M50zHiraaoUDAPHGJfBpnXw4CCEEIIIYSQbJN7AYX7KB5vPF8HNxVwwFmsEcaZmlC4bvtQF+c4MQ9trnGgetwB/ZYQPaAo2BBTk6w3iQj04TNveHUpTuqT/BJQGAV9mS6YOz99wW+vgEIPgpxl0GXufK2PEP8GFCfx7eh6iHBE4cW5R0zTrQGFa9k9k1sg0nEDXpt/1G05R9nOiH33dhS+qSG6xs/AnJlxeKdZJe2P6e6BhvC7yWjmyIvI21qih1z24wn4sEVZsQ0FULP/Ovyc+nz6uq9rjSGitvVdQPHLN64hRoUzhrVHi8pymNFr0GD4rnQjcWQueDiPz58Vy+V/C+v0KVnBHwHFyXUf4raIomg9bQ9+PWOal7wInW92wvFQHHaf1KdZ1pW8pBsqRThwfcOR2PjzmbTH/l8y5r1cDHkc1+PZjxNxKnW6Bz1s48nV76O8UxUOfItx9a9ya12R2iKjaGtM2/OrW2uJ45sG4p78DuRrMQWHTuvTGVAQQgghhBCSbQLZB8Xlk6vR/dYIOCv1xKbfXNNOzGuDa2Q94MW0TjX1gKLKQOxWjlSqzzeFCb4PKNIK+o5f/oqzihYJuRVQuL9OTlxTpgF6LjoCI/7JTEBhtATRbqU56+rE1L8BRRI+eTYSjhtew/yj5umqgOL/cOZAAhqJfSj/wQa35eQ+X/vYRHxjbrV/5mdsG1oHEaL2bzTh27TpRz5B7OhNSDL/Yf7XnYirE2HZDn3dsnWG+N2PfVD8i0MJDyG/Iz+ai2LaTOYCiq3oHSWWa/5xahKXFYw36syZM5l32Vtagf3UrJ8U87/HgnbFkUcU+puOW+edwboPb4HT8QRmJJ92TTOt68TXY9GocB7kuzsa63/S5xvudhX/RV+Zj+9Pm6Z70uM2bsPwe/NrQYTb9m0bjnvzO1Br6A6c0Kft1gMK87Q0v8e8lwqL98e0L/o2Vo3ehOPpljepb1uGy5lkQEEIIYQQQkKdQAYUElcgkXbbhmvZcnhtsusPzCpX7fwZrjwifQDhjv8DCldB70DJdku1vjHSt0gwnlPWmZ5UBRSq5dJUBRTlXpuc+hot+igWL99dVCybdotLhgGF3hLEUbIdlrp2xicBharWSvMwJjUV+1T+A6xXTJcBxX7z9MOT0FTsQ4nXP0eyaTlH/rsRs/lk2nKGyQvR/kYHirSYij3WeW7+gJU9KsFxrag19xvT3LdNCyg+//xzPwQUgn+/RHv55nZ2jyIyE1CcX90ZUeKxj0x3Dzcyi+8DinX48Ban2wc2vVURvem4a3l9XU9ED9HDiXew9ED6N/P7eS+hsCMfnp+jek6FXrZx2/B7kd+8Dca0fC0w+eCp1GmugOImvL08bTmzrvmm9egBhXV/C11/H9rN3IGfjWAlGwHFrl27GFAQQgghhJCQJtABhatATivQf/moCSIcpdFlzf9pv3sng4Diz28w8E4HnLUnwBi80acBxd+HMe3RomkFvZzrMaBQhy4fvXG7mKcKKIqiQb9P0y0/L/ZRXC/qGlVAkS5I+L+V6FjCgYKNZuJ78av3gOJvHJ72KIqKbWm39FfXLTS5ElAkY2H7G+Eo9hRmHTBPVwcUJ74ZgYcceXFr9Ea35Ryl38Syn9KWS9M9ZDCmnz5+GJsXjseAbu3xVN3bUS515JDy+GC9+rHBGVCcXY3OpcUypd/CuvR9bGYK3wcUy/DWtWKb7u+OmZ98gk+Ufo4tR/QgQF9Xvvz5kcdxNVpO2YeT6dapCAMy0ts2Jk7VOsMs/+4qPSDYgti78yFfi8k4eCptuYye01NAcVObYZhl7GtCf7SpJvvNyIcWkw/ilFyOAQUhhBBCCCHpCGxAkYKfP23l1oLiz28G4k5x3V5l4G69lYQ39ICiaBvM+0WfZMLVn4X7unwXUAzHso9aioK+OJ6e91PqMKmeAwrV/hvzfHOLR/ogwT3A8RZQDF/2EVoWdaD40/PwU9rO5EJAcRqHZrVBpONaPDFjv2m6KqA4jq9HPISIvOXQfblRc6oDiDSt80/j6MqBeKiYmJa3IK6/tQGe7dQFvUdOxIAWN4r3wq8BRRI+7Tcdien6w0y7xaPtYveUwXNA8S9ObU/AU+Xyw+FhBJDM4vuAYgXeuT4PHNUHYsuv1nkKjXXN2ISxjQojT75K6Dg/MV1IsWdCY1zlKIoOC392m+5Rr9t4GDNbXy3e3HexSt7msSUWd+crilfmf4/TpuUyCihct6tUx8Atv7qmebrF4/sFaCdHD3loBL45IX5nQEEIIYQQQkg6gq0PClzYiYHVIuC4ph7GWMcfvXwSayd9jmT919QC3OHEre9twP8ZhbXEaN1Q8CGM2Z8WdfgsoCheBVVKWAp6QVAFFHoLiqJt5kHmN54DiuKoUqWE2KenMc99Z3IhoBD+vAkDaspRPFpi1MYjel1qDShO4rsl3VElIi+ubz0d3540Hp9BQPHLFgy424G8t0Zjo/z9543oe6cD+W9/D8uOmO8i0G/x8HdAkXCfWOE1ldHinQR8tmwZPkvoi+ceiEJ+8caU7rzaQyeZVfBY97QeZru3b4EaJWXHmmJHyj2FhF3WR2UN4406ffp05l36FoqK539q1o+K+Ycw40lR/DsaY/yBk4r5Fs3rSvoCb1UUB4B81dFv3Y84ZV5u7Qe4xelq9fCLebonvW7jaRyb3w7F85THu6t+wdoPboHzpm748hf3Zb4ZKwMKBxqPP4CTpukut2L4vfngMD/um7GugKLfRhx3W/YbjNU64OyHjcfF7/q2pV/OswwoCCGEEEJIqJN7AYV6FA/HNTXRe41+S4FGCs5seB9V5bx8N6NRt7GYu2wRPopthzo3FbDczqEHFLe+iM6PXoebG3XD2Lmy/4WBeOr2wlrniPXG7E3tJFLi2hbr7RbzEPvo9Z6nqwIKUVs4rmmGmcnmVMQo+AMTUCj7oJCjcaxyrcdzQCFr4GvQbGay6X0Q+CigUNVaVo/vnoW2ZUVdmrcgbqr7LDp2fAl1SjmQ7+b6eLFjezz10E2iTsyLyFp9seqY+bGHXCFCoXoY87V5ustfv4lHvQgHSr25FD/KaYdcfViU77POsuwRzJaddTrKo886Y5q+7vJ9sE787pNbPC4mL0G/FjVQ8hr5ogvzR6Fc/Y5IWJMM1UCjroDC4jUlUbH+cxj22T6cMo+tm018H1Ccxv4ZT6KoNkzoLOw74T7v561jEL/gp7RplnX9umMMHimcR7yptTDQLaTQA4F81fHBqmT38EJlBtt4+th8rVVD+XeHocctTmXwYQQUjvLtMW//CdO8X7FjzCPaUKhuIYOngEJ/Lkfj8ThwUvzOgIIQQgghhJB05F5AYamx8hXDHU8OwJJDv7sXxRopuJC0DP2aV0aUDCrE8vmKVUSddhOw9aS5IEu7heHQ//Zg2svV9eXzodgdT2LA0rQRLAyU25KRyoBCUdALAhlQuG93VkbxcOCaZjNhyVrkzFwLKKSnfhT116A2qFnS6A9CV7sVozHeHLcMe+Qfn90ep4cIjrwo+cocHDDXwsd3YVLLYuKzVhV9Vuk1qh5QRL0wB4dT13EKSV/2QJUIuR4/BxTBiPFGnTp1KvMu6eoq/j/6QT3/+HaMa14cecUyhW5vgV4jP8LsqcPw5qNVUCSv5XGKdR1ZG4P6MqS4/hl8tPfX1OnHt49D8+J5xZtaFNUf64WRH83W1vvuU7XRcY5lWzLaxlPHsbJneTiLFEMxZy0M2XY83TK7xsiAojKeerkOipV6CO0GTcSs2WPRq4VrP/JV74u1P5xMe8yuMXofFEPw0WyxbdKx0Whzl+yD4nq8+MkBnJDL6dtWte8G/GI8NgMZUBBCCCGEkFAnNwIK/+HexwIJLrJV96Z6EBObOlC01TTsVc43dC3nKPEEXn7sOtxQ+2UMmjAbHyV8iNZ3yKCjAKr3WYlkY/nj32LqE8XgyBuJ2574EBNmT8fw7k1RscitaFinvCugWGtZd/k+WCt+Z0BhNsPiX3j8IFbHv4CaJSO1oMLhKITr76iPrlO3IPmkaTkP6zryRVdUlKmRNaQ4uBrjX6+PmyLzuhKsfEVR+r7nMGnzL26Pz9Q2rnHdNuJ4cDh2Hk8/3xVQVEXfDQexdtQLqHZ9AeQR68xXtBLqd52BbT+awgmpHlCkJYUuC11fC69N34Yfjf1mQEEIIYQQQkg6GFAQf5GrAUX5PliTvAnjX7wbUVp9GIEitzTGW9M2p4UTuifNy+UtiBK12mPi5v1Y8U5F8TgGFGHl8ZU9Ud6ZD49OSnS1bLCYFlBYwo8AyICCEEIIIYSEOgwoiL/InbrXPURQL+MbQz6gOHnyZJh5FJ+9Vhx58j2FmUknFPNPYueYerjKcQf6rv9ZOT83ZUBBCCGEEEJCHQYUxF/kTt17ABOayICiN9Yq5/tOBhQh5i/bRuLhqxwo/9ZSHDuhXoYBBSGEEEIIIbkHAwriLxhQ2ITwCih2YkavDzB+TC88cnMEHNe/gNmJvyqWc8mAghBCCCGEkNzD3gEFCWYYUNiE8AoodiOh0VXQOuys9Sbm7P4JJ5TLuWRAQQghhBBCSO7BgIL4CwYUNsF4o06cOEGD2J07dzKgIIQQQgghIQ0DCuIvQq3udchwYuHChQwoaEBkQEEIIYQQQkIdBhTEXzCgsAnGG/Xrr7/SIJYBBSGEEEIICXUYUBB/EWp1LwMKGlAZUBBCCCGEkFCHAQXxFyEdUGzatEnfTfsj90XuE6WUUkoppZQG0t27dytDCbNGQBFKNRnxP6FW97oFFFu2bNF30/7s2LFD26d9+/ZRSimllFJKaUBcvnx5lgKKUKrJiP8JtbrXLaCQEwghhBBCCCGE+AZZY2UloGBNRsIZBhSEEEIIIYQQ4icYUBCSeRhQEEIIIYQQQoifYEBBSOZhQEEIIcR2REe7JIQQQoKdnAQUcvSPf//9l9KwkQEFIYQQ28GAghBCiF3ISUAhC7ZAILeDw52SQMCAghBCiO1gQEEIIcQu2DGgICRQMKAghBBiOxhQEEIIsQt2DCjOnz+Pf/75R/+NkNyDAQUhhBDbwYCCEEKIXbBjQDFy5EjIOpGQ3IYBBSGEENvBgIIQQohdsGNAcfjwYZw8eVL/jZDcgwEFIYQQ28GAghBCiF2wY0BBMsMlHFvQDrcUcKL4A/2x6Yw+meQIBhSEEEJsBwMKQgghdiHQAcWVv3/FvjVzMWH4QHHujMaQ+Xv1OZ5Zu3YtEhMT9d+Imh8wpa4DDoe0FDqtYkLhCxhQEEIIsR0MKAghhNiFwAQUV/DPb4exfu4EDB8YrQUThpkJKKZOnaqFFMQbbEHhDxhQEEIIsR0MKAghhNiFwAQUf2L77BhXKDFoJGat/gYrpmY+oCAkUDCgIIQQYjsYUBBCCLELgQkogL92L8CEWatx4Ox/4rcL2Dg98wEFhxklgYIBBSGEENvBgIIQQohdCFRA4U7WAgqfDTN6Zjna3+iAw1kDw/b+rU80k4IfZz+Gqx0OlO+xCf/Tp0ounzuCdVPeQ8sapVDY6errIX/xSqjbYRK2n1K8Lj9MQV2xTKlOq3Am5QKOLP0QzSpHoYCY5owsi4bvL0bSX/qyuISDo2vDqXjeVM5vR5/K4nkLNsb0ZBnyuDi3vhvKise5+p7QLdUJHrugOLce3co6UKL9cpy6eAwrhzyNalEF9P2piufG74SWIVmR+7B8CJ427b9VbV/1xbPKmeXtcaNYh7PGMKjfmh8x+7GrxfOUR49NllfI2LZqrtfX4ciP4lVbY+DSw/hdtS86l8/sxvwBT6NGqcLaa+9wRqLsQx0wafspGO8oAwpCCCG2gwEFIYQQu2DHgMJ3w4yex/Y+lUUB60SNYXuRrg5OOYYp9Z2KAOMc1ncrm1qIW3WW64IVJyyVsBFQvBiP+OdLuwpgi+aCPuXH2XjsajHdQ7hgFPBRLy7GCX2aJLsBhaNUQ7SqXcT9cZoF8XDCActrcxGHpjRDkXTLupuTgCI1gPEQHqUcm4L6TkWAkXIaa7tXVL6+8n0u12UFrG+NeBB+2zUS9YuoHiM0vX4MKAghhNgOBhSEEELsgh0DCl9y6eBo1FYVugKPRTDOYdPANugwbjUOHD+v/3X9Mi78vBnD68si34mHJiVrU1PRAwqt4HUWxwPvLcS+Uxfxn3jcma2D8aAMI4o9gwXH9eVFab+8/Y1i+Si8uNgcQUiMeYrWA2ZSw4dMBBTatkXi3h4LkXhW7NHlc/h2vB5CVB2MPeb9Pz4XreT2Rt6LHgsTIReX+3/u4Bd4X4YcznLouibb0YSO0YpEFR6l4NiU+op5Kfh5bmuxzU6UaDkGW37U35uUizhzQN82xWuWcnoNumqvgeVxly/gxMF1GNt1INYZAUXv3r3x/vvvM6AghBBiGxhQEEIIsQt2DCh8Osxo6q0CVTHYrQo3CuSCaDw9GV7uDHDDaMFwc9d1OKtP0zACisiHMGT7Wcv6jCFBayEhSZ8kMFpJFHtmAVJzC8mpJXgpysvtDwZZCigi0TBhP1LvMpGcXYM3blI8Xt+X615yb70hObOiA0qIebXMO5JNUluRWAOSSwcxurYz3e0tqdOr9Mcutx1xcelAHGqKbavUeyvO69NkqOEKOxyIem4Bfs7gjXYsX74cX375JQMKQgghtoEBBSGEELtgx4DC18OMHp/bSutnourgPWl/jTeK3agXka4BgyDlwhEsH/Eq6un9SLjdEiBMd3uDEVDUSkCmS3dlPxNGvxhO1E74zntwkpWAQrmMHpxY52XUgsJREM1m/agtmjOOY26r9OGR0erFentL6nZZ3gurBZvNQtrWqZ/DEwwoCCGE2A4GFIQQQuyCHQMKn2N0llmpN7bqf1o3imBlJ5XnNqH3Ha6OJD3pk4BC1YrDaPFhbT2gwl8BBS4icUwdXGXZZ8PIhgnYr2jBkB2MViRprR6M10Rxe4v5NhovugcU6tYrnmBAQQghxHYwoCCEEGIX7BhQ+H6YUaOzzErorSUUl3AgrqaHDhrTRvZwlnsB074+joumnMC4xcM3AYXMI1y3ORi3cxj9YqRrPaDCXwHFxX2Iu9eJyDtboHW9yogqIAt88XvZh9Bh3Hr84KNwQsNoRWKER5cOIK6mh9tbsvUaGwFFTYw6lEHgI3DIcIIBBSGEEDvBgIIQQohdsGNA4bNhRk24tZjQi+CCjacjfSOFtBE8ao46ZLnFIgXHP38BUT4MKFI7xNTCkvOeWw+o8FNA4WrVUALtl5/Sp/gT9xYTrn4kPPQL8sdORN8utjczrUtS+QM7o2/XApZqg3e798GhgAEFIYQQ28GAghBCiF2wY0Dhu2FGTRi3TlTqjQ3bvRTBqQWtvJVhFHZpHTDIETy+xqfv1sV1TlEg+zSgkI0I+qCyXOfLg9HdU+sBFX4KKH6YUlcr6Mu9Ogd7f/oVv542RjLxD0Yrkkq9N2C7bNniMYA4jx3Rd2odXjpLtETc6kM4ZW7e4oGL++Jwr3zf9NFV9hojs8jRPw5bRvFgQEEIIcRuMKAghBBiFwIVUFzYOF0LJLw5aPJa/KIv73+MWzdK4b77ynrsHFOSWtDKwMFNJ4qXK6MNzenLgCK1w07tObyNKpLWusOzpdDJnDZkI6C4lDQDLYqY12nSGYmS1Z/DuO2nfBdaGOFRqftwn9hWb7e3pJzehIFaR52KbdNU9TVxEYem6EOqqjTtPwMKQgghtkNcU2kSQgghwY4dAwqfDjNqxugsUxSlys4xU7mMMzsnoW01fQQPrShvjYFLD+P3Y64gwqcBhanfC0fBZvA8QEbuBBS4eBTz2t4k1uVEZMlbULFiWb0fCpPOcuiy4oSHICXrGJ1lOjJze8vFn7BpQmcPI6x46gxTvKe752PA0zVQqrAeBuUvjqqt+2LurrSwhQEFIYQQ2yGuqTQJIYSQYCdQAUVO8PUwo8FPWkCRqc4x/cpF7Iu7F055i0eXFThhSSAunzuIz15zhSTuo2WEBgwoCCGE2A4GFIQQQuyCHQOKcCPlxBK8Ilt2OKth8G5fDpGRDfQORB2OKui/S70tp5a8pHUUyoCCEEIICQIYUBBCCLELdgwofD/MaLByGecOLkDXOwpA65Sy6xr320YCQWpAIbbnhWnY/v251GFWUy6eweF1o9G6tLxFwltfGfaFAQUhhBDbwYCCEEKIXbBjQOGPYUaDC73vB63PBJeRDROwP8CNJ1xcQtLMVqmjlah1onjTCUGyvb6FAQUhhBDbwYCCEEKIXbBjQOGXYUaDCiOgkJ1QVkfrgV8iKaiKfaNDyXtQNkq27nAFE87IkqhStwPGrUvG76HWdEKHAQUhhBDbwYCCEEKIXbBjQEFIoGBAQQghxHYwoCCEEGIX7BhQ+G2YUUIygAEFIYQQ28GAghBCiF2wY0ARfsOMkmCBAQUhhBDbwYCCEEKIXbBjQEFIoHDc1aIF2o38iAEFIYQQ28CAghBCiF2wY0ARPsOMkmDD0b7FXWjRmwEFIYQQ+8CAghBCiF2wY0AR+sOMkmBFu8Vj2bJlDCgIIYTYBgYUhBBC7IIdA4rQH2bUF1zCsQXtcEsBJ4o/0B+bzuiTSY5gQEEIIcR2MKAghBBiFwIaUFy5gCPrZ2PcsBj0FyfO6P4xGD5xLtYdOIv/9EVIdvkBU+o64HBIS6HTKiYUvoABBSGEENvBgIIQQohdCFRAceXPA/hyYqw4X0and0A85n97Xl8yPRxmNDOwBYU/cLTvE4+PGFAQQgixEeLaSpMQQggJdgITUFzGT6smaq0mBo1bgB0//on/cAX//HYIK6e4Qov+IxfhgIdmFBxmlAQKx1133YW72o1kQEEIIcQ2MKAghBBiFwITUMgWFIlYNm8tjl3SJ+j8d2I1JoqTaPSAcVierE8kJEhw9GlxF+66qx0DCkIIIbaBAQUhhBC7EKiAwiOXDmJRvLzVYwjm79WnWfDZMKNnlqP9jQ44nDUwbO/f+kQzKfhx9mO42uFA+R6b8D99quTyuSNYN+U9tKxRCoWdrr4e8hevhLodJmH7KcXr8sMU1BXLlOq0CmdSLuDI0g/RrHIUCohpzsiyaPj+YiT9pS+LSzg4ujaciudN5fx29KksnrdgY0xPTmtqcm59N5QVj3P1PaFbqhM8dkFxbj26lXWgRPvlOHXxGFYOeRrVogro+1MVz43fibOqlixyH5YPwdOm/beq7au+eFY5s7w9bhTrcNYYBvVb8yNmP3a1eJ7y6LHJ8goZ21bN9fo6HPlRvGprDFx6GL976dzk8pndmD/gadQoVVh77R3OSJR9qAMmbT8F4x11xLdnQEEIIcReMKAghBBiF4ItoLjy23pMlS0oBk3F+hP6RAu+G2b0PLb3qSwKWCdqDNuLdHVwyjFMqe9UBBjnsL5b2dRC3KqzXBesOGGphI2A4sV4xD9f2lUAWzQX9Ck/zsZjV4vpHsIFo4CPenExzC9TdgMKR6mGaFW7iPvjNAvi4YQDltfmIg5NaYYi6ZZ1NycBRWoA4yE8Sjk2BfWdigAj5TTWdq+ofH3l+1yuywpY3xrxIPy2ayTqF1E9Rmh6/bRbPFrwFg9CCCE2ggEFIYQQuxBcAcVl/LJ6ktY3Rcz0TTitT7Xiy2FGLx0cjdqqQlfgsQjGOWwa2AYdxq3GgePn9b+uX8aFnzdjeH1Z5Dvx0CTL/Sl6QKEVvM7ieOC9hdh36iL+E487s3UwHpRhRLFnsOC4vrwo7Ze3v1EsH4UXF1uTGmOeovWAmdTwIRMBhbZtkbi3x0IknhV7dPkcvh2vhxBVB2OPef+Pz0Urub2R96LHwkTIxeX+nzv4Bd6XIYezHLquyXY0oWO0IlGFRyk4NqW+Yl4Kfp7bWmyzEyVajsGWH/X3JuUizhzQt03xmqWcXoOu2mtgedzlCzhxcB3Gdh2IdUZA0T5+FkfxIIQQYisYUBBCCLELwRRQXP5lNSb1l/1PjMLiQ17a4vuS1FsFqmKwWxVuFMgF0Xh6cqaHPTVaMNzcdR3O6tM0jIAi8iEM2W4dRtUYErQWEpL0SQKjlUSxZxYgNbeQnFqCl6K83P5gkKWAIhINE/Yj9S4Tydk1eOMmxeP1fbnuJffWG5IzKzqghJhXy7wj2SS1FYk1ILl0EKNrO9Pd3pI6vUp/7HLbEReXDsShpti2Sr23Im2MGCPscCDquQX4OYM3msOMEkIIsR0MKAghhNiFYAkoLv+6ETNiZd8TgzFl7Y9eAwFfDzN6fG4rrZ+JqoP3pP013ih2o15EugYMgpQLR7B8xKuop/cj4XZLgDDd7Q1GQFErAZku3ZX9TBj9YjhRO+E778FJVgIK5TJ6cGKdl1ELCkdBNJv1o7ZozjiOua3Sh0dGqxfr7S2p22V5L6wWbDYLaVunfg5PMKAghBBiOxhQEEIIsQvBEFBcPrEVn4zor4UTk788bPrrthqfDzNqdJZZqTe26k9uFMHKTirPbULvO1wdSXrSJwGFqhWH0eLD2npAhb8CClxE4pg6uMqyz4aRDROwX9GCITsYrUjSWj0Yr4ni9hbzbTRedA8o1K1XPMGAghBCiO1gQEEIIcQuBDqguPzrJnw0NPPhhH8wOsushN5aQnEJB+JqeuigMW1kD2e5FzDt6+O4aMoJjFs8fBNQyDzCdZuDcTuH0S9GutYDKvwVUFzch7h7nYi8swVa16uMqAKywBe/l30IHcatxw8+Cic0jFYkRnh06QDianq4vSVbr7ERUNTEqEzcVsSAghBCiO1gQEEIIcQuBDKgMN/WkZVwwmfDjJpwazGhF8EFG09H+kYKaSN41Bx1yHKLRQqOf/4ConwYUKR2iKmFJec9tx5Q4aeAwtWqoQTaLz+lT/En7i0mXP1IeOgX5I+diL5dbG9mWpek8gd2Rt+uBSzVBu9274NDAQMKQgghtoMBBSGEELsQmIDiCv7+aX22wgmJ74YZNWHcOlGpNzZs91IEpxa08laGUdildcAgR/D4Gp++WxfXOUWB7NOAQjYi6IPKcp0vD0Z3T60HVPgpoPhhSl2toC/36hzs/elX/HraGMnEPxitSCr13oDtsmWLxwDiPHZE3wnZ4aWzREvErT6EU+bmLR64uC8O98r3TR9dZa8xMosc/eOwZRQPBhSEEELsBgMKQgghdiEwAcUFbJwuw4kMHDIfe/VHmPHlMKNpGLdulMJ995X12DmmJLWglYGDm04UL1dGG5rTlwFFaoed2nN4G1UkrXWHZ0uhkzltyEZAcSlpBloUMa/TpDMSJas/h3HbT/kutDDCo1L34T6xrd5ub0k5vQkDtY46Fdumqepr4iIOTdGHVFVp2n8GFIQQQmyHuKbSJIQQQoIdOwYUfsPoLFMUpcrOMVO5jDM7J6FtNX0ED60ob42BSw/j92OuIMKnAYWp3wtHwWbwPEBG7gQUuHgU89reJNblRGTJW1CxYlm9HwqTznLosuKEhyAl6xidZToyc3vLxZ+waUJnDyOseOoMU7ynu+djwNM1UKqwHgblL46qrfti7q60sIUBBSGEENshrqk0CSGEkGAnMAFFzvD1MKPBT1pAkanOMf3KReyLuxdOeYtHlxU4YUkgLp87iM9ec4Uk7qNlhAYMKAghhNgOBhSEEELsgh0DCp8PMxrkpJxYgldkyw5nNQze7cshMrKB3oGow1EF/Xept+XUkpe0jkIZUBBCCCFBAAMKQgghdsGOAUX4cBnnDi5A1zsKQOuUsusa99tGAkFqQCG254Vp2P79udRhVlMunsHhdaPRurS8RcJbXxn2xfH+++9DyoCCEEKIXWBAQQghxC7YMaDwxzCjwYXe94PWZ4LLyIYJ2B/gxhMuLiFpZqvU0UrUOlG86YQg2V7f4njnvT54593eDCgIIYTYBgYUhBBC7IIdAwq/DDMaVBgBheyEsjpaD/wSSUFV7BsdSt6DslGydYcrmHBGlkSVuh0wbl0yfg+1phM6vMWDEEKI7WBAQQghxC7YMaDwzzCjhGQMAwpCCCG2gwEFIYQQu2DHgIKQQMGAghBCiO1gQEEIIcQu2DGgCL9hRkmwwICCEEKI7WBAQQghxC7YMaAIt2FGSfDAgIIQQojtYEBBCCHELtgxoCAkUDCgIIQQYjsYUBBCCLELdgwoQn+YURKsMKAghBBiOxhQEEIIsQt2DChCf5hREqwwoCCEEGI7GFAQQgixCwELKK78gR+/Xo5PJsYjdmC0OG9Go3/MMIyZtghbks/rC6nhMKMkUDCgIIQQYjsYUBBCCLELgQooLh1chHhxspTBRDoHxGP+t95DCkICAQMKQgghtkNcW2kSQgghwU7gAoolmDp1ETYfOoE//5NTruCvMwexbtYI9Bcn0UGT1+IXbcn0cJhREigYUBBCCLEdDCgIIYTYhUAFFJ648tt6TBUn0egh87FXn2aFw4ySQMGAghBCiO1gQEEIIcQuBFtAcfnnlZggTqLeWlAQEigYUBBCCLEdDCgIIYTYhaAJKK78g9++24K5YwcietBofL73T31GejjMKAkUDCgIIYTYDgYUhBBC7EJgA4oL2DjdvYPMAXGzsfmnS/p8NRxmlAQKBhSEEEJsBwMKQgghdiHYAgpp/8ETsGTPWWh9ZyrgMKMkUDCgIIQQYjtkOCElhBBCgp3ABhQmrvyD8ycPYcvCiYiVQcXABCw/6imiICQwOGQ4wYCCEEKInWBAQQghxC4ETUBhcOVP7F8YL86j/TFy8SF9ojscZpQECgYUhBBCbAcDCkIIIXYh6AIKwYWN08V5NBpD5qsHGuUwoyRQMKAghBBiOxhQEEIIsQvBF1BcwsFFsgXFIExey4FGSXDBgIIQQojtYEBBCCHELgRNQGHtg2LIJ9hxXp9ngcOMkkDBgIIQQojtYEBBCCHELgQmoDBaSbiP3mHYf8hUrDjsIZ0QcJhREigYUBBCCLEd4tpKkxBCCAl2giag6B+DYWOmYt6qb/DLJX0xD3CYURIoGFAQQgixHQwoCCGE2IXABBSE2BMGFIQQQmwHAwpCCCF2wY4BBYcZJYGCAQUhhBDbwYCCEEKIXbBjQMFhRkmgYEBBCCHEdjCgIIQQYhfsGFAQEigYUBBCCLEdDCgIIYTYBTsGFBxmlAQKBhSEEEJsBwMKQgghdsGOAQWHGSWBggEFIYQQ28GAghBCiF2wY0DBYUZJoNACiqVLlzKgIIQQYhsYUBBCCLELdgwoCAkUDCgIIYTYDgYUhBBC7IIdAwoOM0oCBQMKQgghtoMBBSGEELtgx4CCw4ySQMGAghBCiO1gQEEIIcQu2DGgICRQMKAghBBiOxhQEEIIsQt2DCg4zCjJGv/gh5Vd8dQn23AuRZ+UTRhQEEIIsR0MKAghhNgFOwYUth9m9Ohc4JYCwDU1ga/+p0/MIm86RbXsAFbmsOIOef7DL6tfRan2DlzVeyC2/65PziYMKAghhNgOBhSEEELsQrAEFFcu7MZnw6PF+VM4aDLW/qLPUGD7YUYnPOAKF6QdV+oTs4iNA4r/jn+FAc16onTp99Dwg0348ZI+ww9c3D8adTo6ENGzNzafzflrxYCCEEKI7WBAQQghxC4ERUBx5U/sXxjvCicyEVDYnjBvQZE0bShuLtENJTSHYfoP+gxf89c+jO5XCI4Ot6P3tnPwxSvFgIIQQojtYEBBCCHELgRDQHHp4BcY3T8aA0dPw5S4jAMKDjMqsHULik14v+67fm5B8R++X/o4irZzoOLUrTivT80pDCgIIYTYDgYUhBBC7ELAA4p/juLLhP6IHjAKi/clYlF8xgEFhxkVsA8K7/y1EwN65oWj0zOY/6vvXiMGFIQQQmwHAwpCCCF2IbABxWX8snoS+kcPQPzCvfjz0sFMBRQ+4/wSoKAo8h23iRfiij7RwswmriCgxyZ9goHY943jgQalXPOlUeWA16cBJ1WvyxrAqS9nNsOA4SKwVFxU1CyZ9phrSgCRmX28Fw4txCPyNotWi7F99Wy0vLM7SpR+Dw+9vRbHzh3GrHYfaLdi3Fw9HpN2X9AfJPkPf/20G3OHjEeLB3rjltL67Ro390LNRmMxZNFB/GbdLOO5rN4zAxvO6cu4kYSER1zL3PLyKvx05ltM7ToENW55W0x7GxVrxWHQ8u/lq6Pk7KYuKNXOgdLj1+E3fVo6Uk4CT+YTr2MBYNIRfaKFI2Ndr3OlGPlxZUBBCCHEfjCgIIQQYhcCGVBcPr4e02KiMSB+Ifb+KSZkMqDw3TCjYvt73eAqQIeqas2jwAN5xHxrgCEq6u63uB6n8pr6wEHr9mUjoPj3MND6pvSPMeuLgOLO/njwNlNoUKI36jzcG6VTf++G0o9+joOpt2KkhQdq38b9fXfIVymNHAQUJe6JxaM1ZDBhepzmh+i9QRU//A8bJt4MR7sb0XGjcuU64j1d1cn1Oj40SZ9mRryHw6qJ+WkBBgMKQgghtoMBBSGEELsQsIDiv1PY/FEsovuPwGff6D0EZDKg8Okwo4lxQB5RoN42VKtX3Tg6QT1vySuuojZ/VWDxYS3n0P5zZC3wSGHXvIbT0q/PTGZu0TBG+yjXBtj8o/48gt+OAW3yZvz4jDCFBqXvn4F1Jw8jobERBPRG5y+O4/v5Y3Cr/P32CVh6Sn8cjmJ6uzEYsuBbHDt1Qd+sf3Fm7wp0NoKEW8Zg3nFtRnpObUK3u1zPm6mAQlq6D16ffRDn/v0Px7+cjBp6qw3ZuiL90yRiRE8HHJ2ex6LT+iRP/P01UEG8jgUeEu+fPs3gH/FZr+Y+jwEFIYQQ28GAghBCiF0ITEBxBb9vn41YcbIc8smOtA4MMxlQ+HaYUfFETWSxXwHYbUkU4qq6QoBpP+kTJOJ5H5PLRwHL/k+fZuL8GuB68RhHLVHUekkoMgwotgM3eFmPL/qgSA0oeqPbCrkvp7GiW2+t8DdaTJxaMQl3actkZrSNtMeXKBGDsQc89H6Z5YDiPTw7/Uja7Rzmx7f4AsnWl+DEErzU1QFHj/ex9Xd9mkfEZ3isDILyA+MO6dN0vu7neo2fmq9PEL8yoCCEEGI3GFAQQgixC4EIKK5c2I3Phkcjesgn2GEeXiG3+6Aw+OQxVyE6aLc+QZIIVM0D5H9B3jFgQr9VI6qX5xYS3QtmHB5kFDAYrTceFP9XPY9PAwojfEgLGO7pvV27RcNjQPHvSeyYOwcdW0TjLq1fCD0wSNXT7ReCLAcUlufO6PFGQBEzCyf0SV45NtH1WtYap0+Q/A30qyDeg+uBtX/o08RiDCgIIYTYDQYUhBBC7EKuBxRX/sT+hfHiPBmLmVss7e8zGVD4fJhRo7NMc+hg3Pph7RzTCA5qjfUcUBi3ZvgioOi4Up9gIYABxX/Hv0L/R951BQQetVFAYXSW6awM7NGnGbd+6J1jGjCgIIQQYjsYUBBCCLELuR5QGCGEOFFmxiHz9+oPTMP3w4yK/dA6y4wCvtJThyGiWFWN7vHvitxtQdHsoyBrQfE3vhkxUO9A823c330NEk//DddWmG/xCIKAIlO3eEjEC6x1lile06F6QrG1t/g9/egeDCgIIYTYDnE9pUkIIYQEO3YMKPyCW4sJUaRWzuOho0t9ngwzNilGEjm3Qu+Dohnwq6cEQ5BRwHDyEyCvmB/VQxtMwo0tHwAF5HN4eXxmyFZAYQ4hLMHBv8cw+8We+rwABhT/7UHsew44OrTEnEw1oRC4tZj4G+hdBrjmKa3LETMMKAghhNgOcT2lSQghhAQ7uR5QeCOTt3j4bphRM3pnmbJlxLdDXGGFW+eYJoxbOORwoqmja4j/HFkKVCvgmtfJw60ZBhm2gDA675TrWgyth8iLx4HxT7q2TU73+vhMkK2A4v+w+p0+rnBAdl459RDOp/yHv37aiXHPmYcmDWBAIfZj+ZgbMzHMqBnx/snOMuVtHtu3AmXEa2vqHNOAAQUhhBDbwYCCEEKIXbBjQOHTYUbNzGwiKtAo4L6Kis4xTfx7GHj4qrSQwGrV92Ud786aN9XLmrX2N7Ghu3sYYSjXP6C269+5HlAA5zZ+hPv1YT7dfQd33tMbZbV/uwcUhxJiLMuqNAcROQkogJNrX8L17RwoPX4dPMQk6TkyVrymTvH+3yNed/fOMQ0YUBBCCLEdDCgIIYTYBTsGFL4dZtSE0VmmLPytnWNa+fcUMKMTUD7KtbwcprJcPWDaNu2P8enITkAhV7RjPFAl0jX/mspAX701hTHySAACCrldP66Zi5fq9MTNcl7p91DtkfGYsPF7/LBqCqppywc2oMDZNejSzQFHp5aYdSyTn1Ojs0z5ulo6xzRgQEEIIcR2MKAghBBiF4IqoCDEZ/yHI583QKF2DlScvAnncpDjmGFAQQghxHYwoCCEEGIX7BhQ+HyYURKaXNiJ2A8KwNHhdvTedk4faSRnMKAghBBiOxhQEEIIsQt2DCh8P8woCVX+2DMCD3R0wPFGK8w6ekmfmn0YUBBCCLEdDCgIIYTYBTsGFIRknv/wy+pXUaq9AxE9P8S23/XJ2YQBBSGEENvBgIIQQohdsGNA4Z9hRkno8gf2L3gBry4+jD9yeJ8HAwpCCCG2gwEFIYQQu2DHgMJvw4wSkgEMKAghhNgOBhSEEELsgh0DCr8NM0pIBjCgIIQQYjsYUBBCCLELdgwoCAkUDCgIIYTYDgYUhBBC7IIdAwoOM0oCBQMKQgghtoMBBSGEELtgx4CCw4ySQMGAghBCiO1gQEEIIcQu2DGgICRQMKAghBBiOxhQEEIIsQt2DCj8O8zovzi1awY6DSiFyHYOONrVwtgjV/R5JNxhQEEIIcR2MKAghBBiFwIVUFw6uAjx4mQZ7ckh87FXX9aKP4cZPf9Vd9ysBROGDChIGgwoCCGE2A5xXaVJCCGEBDt2DCj8N8zoSXwSmxeOdvlRdfxiHP6dt7AQdxhQEEIIsR3iukqTEEIICXYCHVAMme8phggEa/Bmewccb/bApkv6JEJMMKAghBBiOxhQEEIIsQt2DCj8N8yoHlB8MBa8q4OoYEBBCCHEdjCgIIQQYhfsGFD4b5hRBhTEOwwoCCGE2A4GFIQQQuyCHQMK/8GAgnjHsWTJEkgZUBBCCLELDCgIIYTYhUAHFOaOMQfGDsfIiZ9i1Te/wFsXEH4bZvT3RXheBhT9JiCZAQVRwICCEEKI7ZDhhJQQQggJdoIpoEhzAOJmbcEv+rJW/DHM6L8XfsJXH9fFVe0cuG32PjCfICoYUBBCCLEd4tpKkxBCCAl2AhVQpOPKPzh/8hC2LJyIWC2kiMWsrWf1me74dJjRoxPwgGw10U7YIQpV4z7CQT80ziChAQMKQgghtoMBBSGEELsQNAGFwZXfsXVWjDiP5lL/FOaAot01qMyAgniBAQUhhBDbwYCCEEKIXQi6gAKXcHBRvNeAwh/DjP574QjmjboJeXiLB/ECAwpCCCG2gwEFIYQQuxB0AcU/R7F0rLzFYxAmr1X3QuG3YUbZSSbJAAYUhBBCbAcDCkIIIXYhWAKKK/+cx8lDW7BwYqw4h0ZjQPxC7P1Tn5lrcJhR4h0GFIQQQmwHAwpCCCF2IVABxYWN07UgQuWgkR9j04//6Uumx2/DjDKgIBnAgIIQQojtENdWmoQQQkiwEzQBxcBYjBgzDYu2JOGs52xCwx/DjLpgQEG8w4CCEEKI7WBAQQghxC4EKqDICT4dZtQNBhTEOwwoCCGE2A4GFIQQQuyCHQMK/6EHFG/2wlcp+iRCTDCgIIQQYjsYUBBCCLELdgwo/DHMqIvvMaV/Xjja5UfVKavw4++hFsCQnMKAghBCiO1gQEEIIcQu2DGg8Nswo4Jzm9/Eze0ccKRaC2N5vwfRYUBBCCHEdjCgIIQQYhfsGFD4l39xatd4vNinJCIZUBALDCgIIYTYDgYUhBBC7IIdAwr/DTNKiHccd911Fx7tNZMBBSGEENvAgIIQQohdsGNA4b9hRgnxDgMKQgghtoMBBSGEELtgx4DCf8OMEuIdBhSEEEJsBwMKQgghdsGOAQUhgYIBBSGEENvBgIIQQohdsGNA4b9hRgnxDgMKQgghtoMBBSGEELtgx4DCn8OMEuINBhSEEEJsBwMKQgghdsGOAQXxzLn13VDW4YDDbKlOWHVGXyCMOLc1FnWvcyJ/2bb4NOlvfWrOYEBBCCHEdjCgIIQQYhcCH1BcwR8/78GahVMxbngsBooTaLR0yHzs1ZewwmFGPZMrAcUPU1DX+hwOJyJLVkHdDuOwLvl3/KcvGjjOYX23sqnbVyshSZ/uiXPYMaUrWlZrgoleFmVAQQghxHYwoCCEEGIXAhpQXPkd+5ZNRKwRSpj1ElBwmNFMcm49upUVBXquBBQm89+KbqtOBDykyFoLih8wpa7c/lrwlmUwoCCEEGI7xHWVJiF2YPgw/R+EkLAkcAHFPzj6ZQL6yzBi0Eh89OUuJJ/+HZf0ud7gMKOZxN8BRa0EpNbyKRdx5sAX6FP3OjjlvKgXsfiEPs8WMKAghBASojCgIHZBhhOGhJDwJFABxX8n1mJy/2hED56CtT8G/oaAkCQ3AwqD89vRp7Is9Aui2awf9Yl2gAEFIYSQEIUBBbED5nCCIQUh4UtgAop/8f2X48S5MgbTN53Wp2WecBpm9PKZnZjWuR4qRxVw3T6RTi8FdSACClPfD+n7fbiInzZNQOe65VHY6dr+/MUroW6HSdh+ysNnKeUCjiwfgVfrVUZUAeMxVdG671zsUj1GefuJh9fIeH3SLW817fF6QDGDAQUhhBDbwICCBDuqcMKQEBJeBCSguPIb1k+Vt3ZMxfps3AYQLsOMppxei+4VnYqC2axNAoqU01jX8w4UcNv2NJ3Fm2LC/r/0hQ3OY+fgmh4fU6rTKqTbLQYUhBBCiDsMKEgwowolVBJCwoOABBSXDmJRfDSiYz/Fpn1rMHdiPGIHit/FyTN64BCMnvYFdvySmd4oQpk/sDP6dlEcO1Gi5RhsPX5R63Qy5eIJ7JjQGqWdDkQ2moRD3vp+DERAkVr0V0Lvref1icCZ5e1xo3xM5L3osTARZ7WPzmWcO7IasU1c/VYUbDwdyea7fU4twUtRcvtfxOx9p3BRm5eCi7/9iK8/7YnnP1yXPqBwI3O3bbjI0i0eDCgIIYTYBwYUJJhRhRGeJISEPgEJKC5sxkzZ/4QMJDzppW+K8Bhm1GiJUB0jEi2v8+XvMOY+WbhnEDzkZkBx+QJ+/vpTvFO7iNhmByJbzML3qW/fccxtdbWYXgqvL1eM7mFsp7M2Er4zzT0+F62ultvfDot/yc5njQEFIYQQIi6sGFCQ4EQVQmQkISS0CUxAsRHTtSBiEOKmLsLmQ7/gd63BxBX88eMOfDExVgspYmZuwVntAe6ExzCjGbegcFTqDVMjhfT4O6DwYOS9H2DdCVPQYGyHx+39Hza/e4t4bCl0Mm9oymms7V7RNSpI/pKo3SEeS775Eecz/bFjQEEIIYQwoCBBiSp8yIqEkNAkIAHFn9sxOyYa0UPmY68+ycx/J1ZjogwwPMwPl2FGU06tQMebXEV/Op3l0GWFojWCmdwMKJyRKFm9NfrO3YV0fVd6uyVE54cpdcV6LAGFJOU37JvXE4+UNnUSqoUVXjrWTMUPAcWSJUuwePFiBhSEEEJsAwMKEmyoAofsSAgJPQISUFw6jC9GRSM6Zia2qJpI/L0fC+M8BxThQQpOLHkFNzpL4OGnW6JGqcJ6S4LiqNq6L+btOes9nJDk5i0e3ji7Bm/IoCWrLSjcuIwLP+/Gl6M74yE9rHCW64o1XveLAQUhhBDCgIIEFaqgIScSQkKLgAQU+BPbZ8eIc+VgfLwtfcX6z9GlGCtOpAPGLUeyPs1MWAwzeukgRtd2wlFzFA5lmER4IFgCiksHEFdTFv/l0WPT//SJaaScXoOucjsLNsOsH/WJ3rj8E+Y9G5VBoCHJTkBRE6O8vOAMKAghhNgOBhQkmFCFDDmVEBI6BCagAC7umY/h4mQZPXgylu07gT9lTXjlH/x2eB1mjegvzqODMHntL66FLYTFMKNGuBD5EGI2JOPXX0/inGsYi8wTLAEFLuG7KY1xtWz1ULw+hmww+pG4jHMHv8D7esea1mFDz238EI+/OAhztyfjdGrHE7IlxUYMflB2unkzuq5TNcExyEpAcQpLXpKhhwNRzUal9vlhhQEFIYQQ28GAggQLqnDBlxJC7E+gAgr8dwpbZg1FfxlSpLM/hkxbBw+DeIQJ57DxXb2DSIX5i1dC4/cX4fDv5hfJGPlD/RiXGbU6yARZDigEFw9hSjNXEKEyXceagnPru6GsYlmXThRvPiXdMKuuvixUy6dZy0NacW7ju6goOx9N95i0gIMBBSGEENshrq00CQkkqkDBHxJC7E3AAgrJlQs4sn4uJsTF6EHFQAwZPQ2LtiTD2+AU4THMaAp+2z4I914lCuT8xVGmYkXcYvRDYTKyYQL2/6U/JJgDCsnlM9g5rTPqVY5CAW1b8qN4pbroMGl7+o41JZfP4ci6Cehc73aUKux0bb+3zjgFOQkoZOuMMzunieerjKgC5scwoCCEEGJjGFCQQKMKEvwpIcS+BDSgyCbhMMxoyokleOVGURxHNkRCWgLhIuUiTmwZjAevlsVzJfT2OtYo8SUMKAghhNgOBhQk0KhCBH9LCLEndgwowmGY0VNLXkKUw4HCT8zFz/o0N1I7nmRAkZswoCCEEGI7GFCQQKIKD3JTQoi9sGNAEQ4YAYXsJDN6+QEcd+sk8mt8+k5tFJHzy/eAYmAM4icYUBBCCLEdDChIoFAFBoGQEGIf7BhQhMUwo+c2ofcdBUz9ICjMfyu6rTqhHG0iY4wRLrJgVvucCEEYUBBCCLEdDChIIFAFBYGUEGIP7BhQhMUwo4KUC8ewcUJn1Lu9FAqnji6RH8XL1EDrvnOxS9mzZGZhQJEdGFAQQgixHQwoSG6jCgiCQUJI8GPHgIKQQMGAghBCiO1gQEFyG1U4EEwSQoIXOwYU4THMKAlGGFAQQgixHQwoSG6iCgSCUUJIcGLHgCIchhklwQkDCkIIIbaDAQXJLVRBQDBLCAk+7BhQhMMwoyQ4YUBBCCHEdjCgILmBKgCwi4SQ4MGOAQUhgYIBBSGEENvBgIL4G1XRbzcJIcGBHQOKsBhmlAQlDCgIIYTYDgYUxN+oCn47SggJPHYMKMJlmFESfDCgIIQQYjsYUBB/oir07SwhJLDYMaAgJHf4AVPqOuBw1EJCkmsKAwpCCCG2gwEF8ReqAj9UJIQEhoAEFBc2Yro4UUZn5JD52Ks/xEx4DTN6CceWDMRzdR/AO2vO6NOChcs4s3s+BjxdA6UKO0UhL4r5/MVRqW4HjFuXjN//0xezLQwoCCGEhADimkqTEF+iKupDTUJI7mPHgCK8hhk9h/XdyooiuRQ6rQqigCLlNDYNrI0iMpRQmlbU2xcGFIQQQkIAcU2lSYivUBXzoSohJHcJSEDhlSv4fessxIgT6ZBPd+JPfaqZ8BpmNBgDios4NKWZK5xwlkDLuNU4dOoitAYTly/gxMF1mNDxdcxK1ha2MQwoCCGEhAAMKIivURXyoSwhJPcIuoDin6NYOjYa0QMTsPJ7fVpYE3wBRcrPc9G6iCzcS6Hd4l8Quj2RMKAghBASAjCgIL5EVcCHi4QQ/xNcAYWp9cQnO3Ben2ol9IcZNQrjjPQQWlw+g53TOqNu+cJwyuWckSj7UAdM2n7KEiaYWkKUeh3LT1g6jbiUhBktiojncaJy7y34nzYxBcem1NfWW7DxdCRnqZ+Ji/hp0wR0rlsehZ2ufchfvBLqdpiE7ac8fJZSfsO+zwfg6WpRKKDtsxORJauj9cClOKzo5OLc+m4oK5arJRMF+TpMaosapVyvQ/7iVfHc+J04q9pm/TWrV9l4Hrl8SUQVkP9mQEEIIcTGMKAgvkJVtIebhBD/ElQBhdF6YsAoLD7kufIN/WFGcxBQXDyEKc1kqKBaPhINE/bjL31RjZTTWNu9olbARz23AD+nvuxp4UVkwwTsT33QKSx5KUqsqyCazfpRn5YJxPOs63lHavFv1Vm8KSakPYkLsS/TWl7nClkU5r+1G1ZZQhUjoKjZZxIG1la9DgXxcMIB/K0vL0k5vcnDsoYMKAghhNgYBhTEF6iK9XCVEOI/giegSGs9ETN9E07rU0lWbvE4jx3Rd4qCPhL39liIfaZ+IX7eNgGtSzvhKNgY063NHs5txLsV5SgckWgx63vtMRcPjEeDqx1wluuCFW4hgBGeZO2WkzPL2+NGWexH3oseCxNxVvvoXMa5I6sR28QVQri3yLiEg6Nra9OdJVpizNbjuCjnpVzEiV0f4/U7CmjhQfkem/SWHS6MgEILFvKXRetxW/DjefFkKRdwZMFrrnlVB2NPakJhvL5OFH/gPSzcd8r1PGLbLpz4Cv2ryXUxoCCEEGJjGFCQnKIq0sNdQoh/CJqA4p+j+DKhP6L7j8SiA+aCOD3hNcxoFgKKM8vR/kYHirWZix8VL+GpJS8hykPLh4uHpqCZ7FcishEmfb0J0Xc64XCWQ5cVJ1whh8G59ehW1r1oz5jjmNvqam0fXl9uWZ/EWKezNhK+0+f+sRPRt4tpBR/CqL2WlhWCS99NQeOrxfxSnWB+WYyAwlnuVcxLsjzOeB7zY47PRSvFelywDwpCCCEhAAMKklNUBTp1SQjxLcERUFzB79tnI1acPAdNXotf9Kme4DCjav7YGY3bjdYDXqzUe6uif48UnFjyitbKwZk/v9YKI93tIJJLBxBXU67nZnRdd1afmAFGMFCpN7YqOxb5Hza/e4tYp2kff5iCumJbCjabBfWNJD9hxiOy1Yd7UGIEFKU6rYL3V8uFsfzNXdch/d4woCCEEBICMKAgOUFVlFN3CSG+IygCCqP1RPQQfLpTNbCoOxxmVI3b7Q1eVAcUgsvJmNqooGu5Sn2w/YI+3Q2jaM9CHxR62OColQBPjS5+mFJXrDNtHzMOGozXxTcBhdapZjoYUBBCCAkBGFCQ7KIqxqlaQohvCHxAkdZ6YmDCSnBkUStZDygyW5y7Y3SK6UTR0jfiavH/cl1WwDqwB/AHdkbfLrbHgWLPLMBxfapXzq7BGzfJ0CPzLShSjo7Hg+I5cqsFhTq0YUBBCCEkBGBAQbKDqginGUsIyRkBDygu/4LVk2TriVjM3JK5rjFDf5hRM0ZAUQLtl5/Sp3nA6E+hfA9sMvccmSEpOL22Oyo6HXBWG4zdZ42RQNI6zTRzfnsfVBZFvbKPChWpt4WURw/FhqWcXoOu8haQgs2Q2ijj1BK8FCWnKTr1FBideFpDj6wGFMZtMemHTL2II3OeR2ltOFQGFIQQQmwMAwqSVVSFN828hJDsE9iA4gou7P4Mw8VJs//IRcigb8xUQn+YUTOXcCCupiiSRRF911uYn3gWHl/1lJ8xt7VruMzIe7vi4+0/Qg5gkRFpAUFah5RpnWY2RIJ1+E/T8xgjZXx/Lm3EkBMH12Hs889hWrK2tOASvpvSGFeL5Z3F62PIBmO7LuPcwS/wvj7Ep3uoYAQzcjjRjphrjK4hR/HYoY9IohgyNMutSM5vR5/KMoSIRMNRu7TRRS6fO4gv3q+tDbGq7SMDCkIIIXaGAQXJKqqim2ZNQkj2CGhAkdp6IgbTN3FgUU9cSpqBFjIsSC2YDdPf9nHxyBw8rxXvquWF1tEqLhqtJQrioVF7TZ1iGrd8yBExrEONylBjEwbqwYJa91sv0p5HtawMVD7AunTPsRbdteFPVY9xokSbmTiUbqCOrN7mcglJM1qYwgjz+kdgzGvu/VwwoCCEEGI7GFCQrKAqtmn2JIRkncAFFKbWE3Hz8W3GfWOmEl7DjEpScOHIcgx5ugZKFTYX7Op+KVJ+24fPBzyNGqUKw+lWdAvNAUXKaaztXlFbJrJhAqwNJdJCBQ/9UVw+g93zB+Dpe8oiqoBr/c7Ikqjeojumbz3uavFgRiy/c1pn1KschQLa9uRH8Up10WHSdpzy8FFKuXAEy4eY9sUZiZLVW2Pg0sP43bp+QdYDCkHKBRxZ+iEeKV1A24f8JWvr22T0t8GAghBCiI1hQEEyi6rIpjmXEJJ5AhdQZJ/wGmaUBBMOGU4woCCEEGInGFCQzKAqrKnvJIRkDjsGFOE1zCgJJhhQEEIIsR0MKEhGqApq6nsJIRljx4CCkEDBgIIQQojtYEBBMkJVTFP/SAjxjh0DivAaZpQEEwwoCCGE2A4GFMQbqiKa+l9CiBo7BhThNcwoCSYYUBBCCLEdDCiIJ1SFM809CSHpsWNAQUigYEBBCCHEdjCgICpUBTPNfQkh7tgxoAi/YUZJsMCAghBCiO1gQEFUqIplGjgJIS7sGFBwmFESKBhQEEIIsR0MKIgVVYFMAy8hxJ4BBYcZJYGCAQUhhBDbwYCCmFEVxjR4JCTcsWNAQUigYEBBCCHEdjCgIAaqgpgGn4SEM3YMKDjMKAkUDCgIIYTYDgYURKIqhGlwS0g4YseAgsOMhgnn1qNbWQccDrOl0GnVGX2B3IcBBSGEENvBgIJIVAUwDX4JCTcCGVBc+fs4dn05E+OGxaC/OHFGCwfGxmHCrGXY8cslfakw5YcpqKsX5VEvLsYJfXIqxvxaCUjSJ4UcDCgIIYSQnMOAgqgKX2ofCQknAhVQXPkzEYtG99dCCaWDp2Dtj//pS7sTFsOMmgIKR8HGmJ5seS3CIaBw4xzWdysbHAHFF198wYCCEEKIbRDXVZokPFEVvNR+EhIuBCag+BfffzlOCyIGT16GfSf+hFZ+X/kH//vxW3w5JVabN3T+Xtd0C2ExzKgRQJR/BI9UdqLGsL34W5+lwYAiIDCgIIQQYjsYUIQvqkKX2ltCQp3ABBQXsHG6bCkxBPP36pNM/L1/IeLEiXTQ1PXpb20QhMUwo6kBRAym96kMR/ke2PQ/fZ6EAUVAYEBBCCHEdjCgCE9UxS0NDQkJZQITUFzCwUXx4lw5APHzv8V5farGlb/x48pJ6B/dHyMXH9InhiGmAOLAwdGo7YzCi4tNcY2XgCLlt334fMDTqBZVwHWLiDMSJau3xsClh/F7uiYpRuFfCwliRZfP7MSktjVQqrBTTMuP4lWfw/idZ9Nasuj9QpTqtAo/H/kUL98insNZHPWHf43/XTyGxd3uRmGnE5F3voNVJ9yf7PK5I1g35T20rFFKLCO2S2xb/uKVULfDJGw/ldFniQEFIYQQki0YUIQnqsKWho6EhCqBCShEsfrrRsyIla0o+mPw+AXYfPgU/vjtMNZ/HI+B4iQ6IH4+vnVLLtIIi2FGzQHEpYMYXduJgo2nI7UrCg8BxcVD09DyOhkuuAIAd/Pj1m6r4J4bGIV/TfSZNBC1iygeV/BhJBzQbzAxAoqne6HDnabnKfEMBvVpgKtNj6vUe6spfDKeJ22+WWe5LlhhCTTcYUBBCCGEZAsGFOGHqqCloSchoUigAgrJ5ZPf4ItJQ1NH8NDsPxijP16Nwx7CCUlYDDPqFkCk4MfZj+FqZw0M26sHBaqAQg8yHA4nSrQcg63HL2otH1IunsCuj1/HHQVkGFAePdzuFXEPDvKXbY1xW37EefHWplw4ggWvueZVHbzH1QeGaWQNV6hwGmveuEl/fCQaJuzH2b2xqCZ/dwtPzmHTwDboMG41Dhw/D9cn5zIu/LwZw+sXEY914qFJydpUNf4JKP7ZPwzV2olt9WohNFvyo7Y8AwpCCCG2gwFFeKEqZGloS0goEciA4srfP+OrT0cjpr8poNBaVCzEzpPe/poeBlgDiDPL0f5GB8r32AQtXlAEFH/sjMbtYlrBh0Zh71/6xFQu4bspjbUWDvL2jLQS3yj8nSj36jwkWR53bn03lDU/JjWgiMJzC37WApAfptQVv4vnfTgBWkMLD607PGE8x81d1+GsPi09DCgIIYSQbMGAInxQFa80PCQkVAhUQGEeZnTQqE/x1c/ncXznF5g0VB96lMOMWor8i9gXdy+cUS9C64pCEQK4goKCaDbLVUyn46cZeET2/eAWHGSx8DcCihLtsfyUa5LreYvhmQXHjQnKgEK2yFg+4lXUqxyFAnK+RffgxIp/AoqswoCCEEKI7WBAER6oilYaXhISCgQmoLiIPfOHa0HE4CmrceySPllw5fe9+FwPLmKmb8JpfbqZsBpm1FTkp/w4G49dXRCNpyfjv3TzM1HAG+GCLwKKUp1gLO4KKEyPVwUU5zah9x16p50eZEBBCCGE+AEGFOGBqmCl4SkhdiYgAcVfuzF3mLydYyjm703fSuKv3XMxTJxIo2M/w25FI4rwGmbUHCacwfL2N8JZYxj2fmedn4Kj4x8UBXwutaDIUkCh96EhpjnLvYBpXx/HRdP7mu42EiX+CSh4iwchhJCQhwFF6KMqUml4S4hdCUhAcWEzZsp+JwaMw3JFv4iXDi5CvJeAIixQBhTA+e19UFl2dDl9aLr5p5a8hCgxzW20j1Qu4sB41ygb6tE1/BlQGM/hQM1Rh9KGLNVIwfHPX9C2mwEFIYQQ4gcYUIQ2quKUUikhdiQgAcW/P2DFeNdtHIMnfYFdx36HdpfHlX/wvx+/xZdTYrV5nm7xCLthRvVJGvpIHaXuu09rdeA23wgP5HCiHedi36m0UTx2TGiN0rL1hHnIUI3cCCj+wM7o27WAIrLhKOw6Kz83cgSPr/Hpu3VxndyuAAUUWYUBBSGEENvBgCJ0URWllJolxG4EJKDAFfyZuAij3UbvcLf/kGlY56GTzPAbZtRM2u0SWt8NbvNTcHptd1TUC/50OkugzcxDcB+oIzcCCuDivjjcq9wuJ4qXK4Mi4t/WgMK49SP9Y9L0Hmr4HgYUhBBCbIe4rtIkoYWqGKXUk4TYhcAEFJIr+Pv4Liz/ZCLiYwfqwUR/xAwbg2mLtiDpbLje26HjMaAQ6EOOakW6IsC4cGQ5hjxdA6UKO7VlnJElUb31QCw9/Lvl9gpJ7gQUssXEmZ2T0LaaPoKHMxIlq7fGwKWH8fsx1/IMKAghhBA/wIAiNFEVoZR6kxA7ELiAIvuExTCjJChhQEEIIcR2MKAIPVTFJ6WZkZBgx44BRVgMM0qCEgYUhBBCbAcDitBCVXRSmhUJCWbsGFCExTCjJChhQEEIIcR2MKAIHVTFJqXZlZBgxI4BBSGBwjGCAQUhhBCbwYAiNFAVmJTmVEKCDTsGFGExzCgJShhQEEIIsR0MKEIDVXFJqS8kJJiwY0ARFsOMkqCEt3gQQgixHQwo7I+qqKTUlxISLNgxoCAkUDCgIIQQYjsYUNgbVTFJqb8kJNDYMaDgMKMkUDCgICQI4QUVId5hQGFfrMUjpbkhIYHEjgEFhxklgYIBBSFBCC+qCPEOAwr7Yj6+UZqbEhIo7BhQcJhREigYUBASpPCiihDPMKCwJ+bjGqWBkpDcxo4BBSGBggEFIUEKL6oI8QwDCvuhOqZRGigJyU3sGFD4epjRo/MfQJ52Djg6lcDdceOw7QSDF6KGAQUhQYrqgkpKCGFAYTdUxzJKAy0huUUgA4orfx/Hri9nYmzsQHHejEZ0/xgMnzgX6w6cxX/6Mip8PcxoakBh2K0TVp7RZxJiggEFIUGM6oLKkJBwhgGFfVAdvygNFgnJDQIVUFw+sRWfjOjvCiasDojH/G/P60vmFv/iwk9fITb6Ki2keHB+Mq7ocwgxYEBBSBCjupgyS0i4Iq6tNEnwozp2URpsEuJPAhJQ/HcKG2fEiHPlAMTNXI19J/7UWkxc+esMEldNw9D+0Yge8il2/ula3IpfhxndNwSV2zvgGLsSKfokQgwYUBASxKguoqwSEo4woLAHqmMWpcEqIf4iEAHFfydWY6I4UfYfuQgH0t3LcRF75g8X59EYzNxyVp/mjl+HGT06AQ8woCAeYEBBSJCjuohSSUg4wYAi+FEdpygNdgnxB4EIKC4dXIR4caIc/PE2qG7k+Hv/QsSJ+bGf7Vb2ReHXYUYZUBAvMKAgJMhRXUB5kpBwgQFFcKM6PlFqFwnxNYEMKAaMW45kfZoZY/6gyWvxiz4t12BAQbzAgIKQIEd18ZSRhIQ6DCiCF9UxiVI7SoivCERAgYt7MH+47BBzEMYt2I5jv1/SJss+KA7vXI7Zo2PQ30tA4ethRt04+QkekwFFzEf4lb1kEgsMKAixAaoLp4wkJJRhQBG8qI5HlNpVQnxBQAIKXMavG2cgVpwslaN46HoKKHw9zKg7iYjrlQeOdqXw4pcHcO6iPpkQAQMKQmyA6qIpsxISiohrKk0SXKiOQZTaXUJySmACCsllnNz9JWaOG4YYOWqHOHEOjI3DhFnL8NXmz7Q+KAZNXY8T+tK5yb+HZ+PFnpHacKOaH4zFEbamIAIGFITYANUFU1YkJNRgQBF8qI49lIaKhOSEwAUUnvlz+2zERPfHyMWH9Cnu+HWYUQEDCuIJBhSE2ATVBVNWJSRUYEARXKiON5SGooRkh6ALKK78jq2zYsR5dCjm71WN4eHnYUZTb/GohehtP+K8fzIYYlMYUBBiE1QXStmRkFCAAUXwoDrOULUj49TTqb0kJKsEVUBx5W/8tN7VN8WAUYtxSJ1P+HeYUaOTzOEL8D+2miAWGFAQYhNUF0nZlRC7w4AieFAdY2h6hw69jPh4YMSIFOV8ai8JyQrBEFBc+ev/cGzvJiyeGY+B4gQaPSAe8789r8/NZTjMKPECAwpCbILqAimnEmJXGFAEB6rjCk3vyPgUxMUBcSNcxg5WL0ftJyGZIVABxYWN08W50n3UDmn/wROwZM9ZeGg8oeHXYUYZUBAvOGQ4wYCCEHugujjKqYTYEXF9pUkCh+p4QtM7ZOhfGDECGDbE9fuwYf9i3Kj0y1H7SkhGBENAMTB2OEZOmIUl6/bhl0v6Al7w6zCjDCiIFxhQEGIjVBdGvpIQO8GAIrCojiHUsyNHuP4fE/sb+g88g8aPfIyE8X9g2ND0y1J7Sog3AhVQBC0MKIgXGFAQYiNUF0W+lBC7wIAicKiOHTRj40f/hYaNZ6PlEzGo07AP6jYYgvFj01pWBMpRbM3hMwnxhB0DCr8OM7pvCCozoCAeYEBBiM1QXRT5WkKCHQYUgUN1zKCZs+Ej/VCnTi/UrtMVtev2xvDYvzBSTNdaUgy/rHyMvx044BJGDFfPo9mTECt2DCj8M8zov7jw01eIjb4KjnYO1PrsCDiIB7HCgIIQm6G6GPKHhAQzDCgCg+pYQTNn7Tr9Uafu2xgV9z0aNBD/rvcBGjQZgLghohAQ8wMRUshgIn4kMFRsA0MK30qIGTsGFL4eZvTo/AeQp51DCyY0O72IRWf0mYSYYEBBiM1QXQj5U0KCEQYUuY/q+EAzZ+yQn9H80UF4sHY/jIq7iHr1+uGRxv3Q4JE+AQspZCAxJFaOKOJ6PhlSDBW/W5ej2ZcQAzsGFL4mNaDoVAJ3D+6LZT+EYN8axCcwoCDEhqguhPwpIcEGA4rcRXVcoJl0yD9o2Hg0mjYZhhFD/8BwvWPMhg0HBCykkJ12ynBiZBwwdOg/4vmuIH44MEoOgTpI/K54DM2ehEjsGFD4dZhRQrzAgIIQG6K6CPK3hAQTDChyD9XxgGbO+DigXoORqFPvbTzaYnC6FgqBCCniRwFjxkEb+nTUaJexsZcwfOhZMe0E7qk1DCOG/aZ8LM2+JLyxY0Dh12FGCfECAwpCbIjq4ie3JCQYYECRc379xpFOFarjAM2cg4f8Dw2bxKLF4x9icMy/yhEz/BVSxAy5km6aDCdGxLn+HSfsF31Gs2nTeDxYrzcaN/sQTZsNR5tWX2DMSGDIoJR066DZl4QvdgwoCAkUDCgIsSmqi5/ckpBAw4AiZ6jCCUMzqu8/zaRDgYGDfsKDDd5CgzpjMcxLJ5S+DilGxgND5DpGmqbpwcTY0eLfwy/i0eZj8EjTvqj3SC80bv4eHqzXDfXq9UaDhh/gkSYJGDXqL+32FPM6aM4l4YkdAwq/DjNKiBcYUBBiU1QXPrktIYGCAUX2UYUSViWq7zzNnHEjgGGx/6JF6w/QoHFPjJb9PCiWM+uzkCIOGDwYWmuNIbEprhE6xDrGjLqCJk2nolXLj9G8eSzqNeyuhRP1GgxCnTofYFTsX2jVYrL4/W082nKy1l+GfOxY/XYQ5XPRbEnCDzsGFP4ZZpSQjGFAQYhNUV30BEJCAgEDiuyhCiNUqr7rNJOKoj5eFPR16sWiYeO+ePLJsRg67JLWgkF1i4fZnIYUceI5ZGeXw2NlqHAW3d/ZizoP9kW9OoPR8JFJwg9Qr14fNGk4UjzHcLHsPxg7UmyXeGz8qN/Q5JEhqNegL4YO/QlDBornleGG3vKC+l6SfX4QP5PEzxrxYwfsGFD4ephRQjILAwpCbIrqYieQEpKbMKDIHqowQqXqO04z4VBoYcSQQcAjjWPRuOkH+LB/cur82Nh/tFYJbo+xmN2QInrwP1owIUfiGDr4f2jcbDRqPzgYjz7WDw0b90bdBr3xYIOemDr6X+3WjdGj/sFIsc5hg4HR8Smo23AkHqkXizoPDsWwIb9p6xqq6MeC+laSeVaLn3fFz13i53rx87z4+VT82AE7BhSEBAoGFITYGNXFTiAlJLdgQJE9VGGEStX3m3p3xHDZ78O/WkDwYJ1haNisN+o8MhJ9o09qwcWw4f9ot36oHmvVW0gRPzb98oNjgEED/0H80NNo2nAM6jbsh3pNeqFJsxjc9+A7iBt+FnFxvyEm5lfX8mLZmJhLGDYsRdvuMaOgdZTZosVAPNp0pBZcJIyWLUEYUOSGRE2y+Bkvfh4XP4XET23xEy1+tokfu2HHgILDjJJAwYCCEBujutAJBgnxNwwosocqjFCp+l5Tz8o+GuJHAjED/sA4UdjXevB91L6vj/j9GGJjxDLDr2Do0Kx1dqkKKYaJ6aPHyFYaacvFj/gDQ2NPaR1cNm0WjcZN5eNi0azpJIwb85c2fOhA8V0ZZensUnZ+OXqsq7+MkfFnted6sPYHGC+mRQ/6nxa0mJen/jfcSRE/K8TP2+LnDvFTQvy8JH4+ET9nxI+dsWNAwWFGSaBgQEGIjVFd4ASLhPgTBhTZRxVIWFV9p6lnZQgxauRljBwONGs+DY+2GoImTUZqoYLWJ8SIfzA6Pv3jPClH/JCtJdxCisajMWjQCe0WkbhhlzFm3Gk0aBCH5s3jUK9BH9R+8A08+dRQPNJkLJq2mIOxCSkYo/cfIYMN63NIh474CyNHAU0ajxXP1V9bT0zMFcTEcXjRQBlufCd+xoifFuKngPipI34Gip+vxU8oYceAgpBAwYCCEJujusAJFgnxFwwoso8qkDCr+i5Tz2p9Q4z4ByOGAONG/4MmLWLR9NGBeLzVx9qtFLFDUjA4NvOtJ4xwQv5b3tYhQ4p68paNxj3xSJMxmDDu/9n78+A4svxMEMxprsEsbKInBoaFwQhLNphcMsk8lKyqyTKmYLDA+IbHxgGAR2YdXZJaVVKpSnXlxQvEFbdfcUfgIpOZWVmZWVWSWiW1Zne6d2d2/5jd1vZOd0/PtNSSWnWp7srLQMPCQCOABb79/V4gyCDwAAIggEAA7wv7LALuz5+fz+G/z3/HEsI9byJ8roCeswaCoX5o3ixC4deRLU5jtFzxirDMJSFmFMq07jUEB84/wUk9e3ttnOn8MmxzFhlVVrTu3M+Yo8//hT4v0ecUfY7Q5/fp80f0maLPfkUjChSqzKhCvaAECgWFBofs4WavUUFhu6EEioeHEicenpxzIl9YRC5TKenp9Y2gW4tC0/MoL3tMsOCwcrm1uFKcSDvT8OsmfMKTYgS/89vfhN/PXhJJdHZyRQ6L1jeGUh5waH0sTCTji6L6Rp5+c1WP9RJrpmmbNa2EQDBG/WRRluS3UKwP9xP+hj4F+oTo87+jj0Yfiz7/C30OChpRoFBlRhXqBSVQKCg0OGQPNnuRCgrbCSVQbB9k41XxwWQPhWxuXiSZNI1FdJGBr/sj6PLmYacWK7knNpHHgcUJJzNf+TuzUBEngkPo7o7QvB/Dy/3rEWI/znT1w0z9Go71AfK5WSFQpNO0bGYJxQJX36j0kcsv97eStF1c9jSV+jF8vjjCPQMoF+bkbRXrykbEbfqQdYGv0ecEfY7S58v0+VP6TNPnIKIRBQpVZlShXlAChYLCPoDsoWavUkFhO6AEiu2BbIwqboycZDKbXYRtAfHkr6FpQ9B1G+XSlEhI6WQ2bvDLxAmNy5SG+6H7SqKqRpH6NawP0aUZyFE7zi8xXl7OcbHcDwsStj1X8ZzIytdvO0uCvP29PW8KUYWFjzL9LWuvWH82Av4jfbL0+T/R5xH6+OmTps//Rh8FlYNCQWEzUAKFgsI+gOyBZi9TQeFhoQSKh4dsbCpujuyFwN4KmhZBMGzh+Re+I8QE09h4ec61xAlOjsmCxyiLDVYlEWd1mSwxkZi5Gw5yH9lzYh3PjSz1F43M4o3XgAvn34LXOwSf9rYISSkW5cso1p97Df9f+nyPPn9In8fo83+gz1fp8+f0maWPwv1oRIFClRlVqBeUQKGgsA8ge5hpBCoobBVKoHg4yMaj4tbI4gTncOjsskUVD1mb9cjihBAaMgsi7wSLE7oeg65NIGNPI20te0SsWC5pzMKoES02QhH6Qd9WchHjo7cRChVou4eRzf5ChIlwuErKUKEee5X1xn+gj02f/yN9/hF9gvTJ0+c/0UdhfTSiQKHKjCrUC0qgUFDYJ5A9zDQCFRS2AiVQPBxkY1Fx8yzkb+OM90VouoOBa38Ly9x4tQ7mmuJEII1s+lYl7ILmyZbdLKviBOep4FAQLlGqB/sRCGaQcT5AgeZZJif+vH85xb3H3cIt+vwxff6APv+EPifp8yJ9/jv63KGPwsbRiAKFgkK9oAQKBYV9AtlDTCNRQWEzUALF1iEbf4pbY7d/EHrgGvy6JbwPCsuVOzbCasWOXFouTnAYRzq78VCR9cjb5thL4tt2bmPyOhAM/wUxiWBgEjkLmOB8FioPRcNwp/Bv6WPQp5s+TfTpoU+JPn9HH4WtoxEFClVmVKFeUAKFgsI+gewBptGooLBRKIFia5CNO8WtUfNH4Pen4Ncd5GxOUClvJ6OsnGhFnBgW4gT3x+LEdggUnFeCc1KwQME5MyzrjvCgOH/BQiiYQMa6jSytz0qp0I5G43bgI/p8hz5foE87fZ6kzyv0+Zf0+f/RR2F70IgChSozqlAvKIFCQWEfQfYA02hUUNgIlECxecjGm+LWWCCDX/cZ8GkmMuYiHEmbtbib4kSVFYECouJIln5rPhOadgldzyUxxmVJN5nLQnHvcCv4N/SJ06eLPi76nKPPOH2+Tx+FnUEjChSqzKhCvSAEij//8z9XAoWCwj6A7OGlUamgsB6UQLE5yMaY4taYcwBdN0SVDc7bkJEksFyLsoodOy1O1DKfBbL5BYR6bOjBK3DsKaR5+8e2J8+FYv24Ht6jz9v0+Wf0aaPPM/S5RJ//G30UdgeNKFAoKNQLSqBQUNhHkD20NDIVFNaCEig2B9n4Utw8q+KE7o8g7yzBsmel7WRcq5woixOcd4LFie3MOyFjobiIfHoOft2mdUaQTP4SydSyZ0WNZ4diY7IW/5o+Efo8R59/TJ/n6XOdPj+mj8LuoxEFClVmVKFeUAKFgsI+guyBZT9QQWEllECxccjGlOLmyeKEFhiqiBPpzXkc7AVxwkgtiDAPx5yDT7+KUE+JtuuOyEnBuSlYpOBQkFRS5aJoZH6OPv97+nycPv30+X/QR6H+aESBQpUZVagXlEChoLDPIHtg2Q9UUKiFEig2BtlYUtw8C+bCXXHCp49I26xHaTnRXRQnOLQjnZ5HITeHdOaX8IVGEAi+hmjsA1HVI5ejbbSX7goU/C3rR7FxqLC30IgChYJCvaAECgWFfQbZg8p+ooICQwkUD4Zs/ChujX49DZ+euitOsEfEyjZrkT0vVokTO1ROVMZcfg7lEkQizMlRoPfsGLz+ftqnkqjmUfWgYO8KFibS6UUhWGSyypOi0amwd9CIAoUqM6pQLyiBQkFhn0H2kLLfqKCgBIr1IRs3ig8mG+ici6F2Wk8PezsMwhdIIc95GjYhTmTMSp+OU6nYsdviBIsiLEBw1ZG0AVhRoO/8TQQCI+jr/abYV67qweIE/2bBopqHgj0u0hklUjQ6FfYGGlGgUGVGFeoFJVAoKOxDyB5S9iMVDi6UQLE+ZONFcX2yYc5hDtWEkTxN06Lo9l1F39lvkSH/0V3jfSN0UvOV3A5k/KftGQwP/bv7KnbshjjB28vCiD88Bs03gcnx2/AHB+DX4+jreRuvTdL2FeZECAh7TJSKlXATh44BHwf2vMg4t+X9KzYMFeqPRhQoVJlRhXpBCRQKCvsQsgeU/UqFgwklUKwN2ThRXJ9V4YGFCRYV+FvXEwj3GhgtLGGMDPWqaLERivKjmSUy+oFc5jb1VSZ+Az5fVIgTO11OlFkVJ3zBBHz+IXTpF2GmgN7zb0DzXUIw4OD6xB0hoHD4B3t6JOOLSNPflrlE2037XJgX+5E25etQbCwq1A+NKFAoKNQLQqBg9x0lUCgo7B/IHkz2MxUOHpRAIYdsfCiuz7shG2SIc8JIDolgcYKNej2QgBkH7E0Y6Ln8AozUHBz6nc/NIBQcQ0AfQG+4BMuZQ764++KEPxAV02Mp4OyFtxE+G6Hp19DdPYwzXXE4zvsI+MsYLVOb5M8wOr6IEv3m8A+b+mJxxjF20NtDcdeoUB80okChyowq1AtKoFBQ2KeQPZjsdyocHCiBYjVkY0JxfdaW/+T8C5PXK54TbNCzcc9G/mbCOljgYGM+awJj+UV4vTZ0/wA0bx7lwhyyOcC076DISSgly28Hq+IEe2nUihNVFsrTtI8mdN8wuvUotOA1eP2XEe5JwqdfRJdWhF8vIJ+ZhcnCDO0Pb3OhACRSH97Xl2JjUmH30YgChSozqlAvKIFCQWGfQvZQchCocDCgBIr7IRsLig9mVZyo5Gtgw/2eOCHCMDYhTlQ5VgQKuRloWhKab+iusc+JMkXIxxb63DCXK4WsJU5UaadmEfCP4ezZ16DpNs6+kEZn18vo6YnjbN9FhAMRdHdlhaiSy0N4feRpuzmZ5laOieLeo8LuohEFCgWFekEJFAoK+xSyB5KDRIX9DSVQ3A/ZGFBcnyxOCGN7WZwQFTYCw/eLEzRPtqyMIncFLffCp74LXU9D90fQ1Z3G5OQCDGsO2fwO53KQiBMsuEjbEkfzs3BSi8hniFnaPmsKXu91aFpChKRUw1J4Wj47JQSKch4ij4WsP8XGpMLuoBEFClVmVKFeUAKFgsI+huxh5CBRYf9CCRT3ILv2FdfnWuIEl//cijjB7Vkc8AczCITj0P0j0PwFJGIfiuSTzEx2B6th1IoTwYoXyHriRJVZ2u5UalYkxmQvCc6RMTz4I+E90RdOCm+KQDAOn26hy5tFMX9LiBm2PYd47I60T8XGo8LOoxEFClVmVKFeUAKFgsI+huxB5CBSYf9BCRQVyK53xfXJeSeqAgQb9SvFiU2X/1zup5qQksWJZPKXwvjnfBSmWck9IV12OyhEls2LE3eZh8gvwXkmRI4Mzp9RmofmzaJLTyIYHoK3+5LYNx8dK39gEuO8P84dOk4z8j4VG44KO4tGFChUmVGFekEJFAoK+xiyh5CDSoX9BSVQyK9zxfV5V5yg33fFCT320OKEEAdqcz6QkV8kw99J34Gd3rgnxqb5sOLEMrlCR4G2V1TsYI8P+p1KzqE4dgtdWhaBYAxd3n50dfdT/0mcPWfj089/D6XCIjLLx1Ox8amwc2hEgUJBoV5QAoWCwj6G7AHkoFNhf+CgCxSya1txfdpkxNeKE5WkmDEy6tPIpm9tnzixzGx2UYRNcGLM2unbxhXihPDe2II4UaXIj5FZAufKyHE+DZ5G/U9MAoXiEnqC4zjbOwp/MAk9eAk+fZjWV8bw8I+RzsxJ+1RsTCpsPxpRoFBlRhXqBSVQKCjsc8gePg46FRofSqBQ3AwNc1F4BXAFjVpxgj0ntipO3BUHJOJEleyxIZv+0FxeP+/LdogTVebY2yM7VyGLFbT9tlWp3pHPAtncPDq1IWj6MLzaZXi9I/CHhuHvMcS2yPpUbEwqbC8aUaBQZUYV6gUlUCgo7HPIHjwUlw+OQsPiIAsUsutZcX0KoYAM7bSxADP1d8vixPDDixMPEVaxVbLQshPiRJUcmiL6LywKLxAWKbhCSXW+k74tqnnoftrv8NcQ6h2Apl2DVx9GYae8RRTrQoXtQyMKFAoK9YISKBQU9jlkDx2K96jQmDioAoXsGlZcnw4xRyxm56F1Z9HVRQb9sjjBIsOmxAliPcUJpsgRsbz+9bw3HoYs2ggPiuwiHEcevlHKARfO/gt0a4MI96SEYMHbpPljCOpl6TKKjUmFh0cjChSqzKhCvaAECgWFAwDZA4fiPSo0Hg6iQCG7dhXXp2NVQhOK+Wn4dEMY0r6AiRc+/fZdcWIzAkWt50J9xInFijihX4HuH94RcaJKy6zkopDNY6Zzc8JjopRbpOOQQnc3bY8/gVA4gb7eUUyU5MspNiYVHg6NKFCoMqMK9YISKBQUDgBkDxuKq6nQOFACheKDKJJUOvRtvw9/KA/NdxXnzr+DUmEGBa7mkZ7fsjix3WEVG6FpzSJjLsKvO9C0IZz7TErabjfIITNOZh75ApCMA8XcbRHmoemvQA9eQ5c3I45xkZOESpZXbEwqbB2NKFCoMqMK9YISKBQUDgBkDxqKcio0Bg6aQCG7VhXXpmXdQTFLRnRqjgznNHz6CPxhC+NkUOfJcOYwCf6WLSvlcsWOeokTTobFliUhTvj9KXT7B1HI35a23WlWxQn+LZJqFmag6d9Gt9aPUN8I9EBWlC3lEBHDmhXbvrIPxcalwtbQiAKFgkK9oAQKBYUDAtmDhuLaVNjbOEgChez6VFyb+TwwVgZKhWn4AzZ0fwS+XgsZ4U1BxrW9BJMNaMmyUi6LEyK0og7iBIspHEbh101BjfYnV6eynrXiRPW4cEWUYDAFHx0XTS+J3BR8DkSJ1c2IQIoNRYXNoREFClVmVKFeUAKFgsIBgewBQ3F9KuxdHBSBQnZdKq5NNqA5wWM4/K5IhMnihFcvIm1XpotqFM7q5dbkCnFiJ3M+yMjbW8hNQ9MStC8D8Pck61YpYy1xoloRxR9II2NVvDoMaw42HbPa5RX3HxU2jkYUKFSZUYV6QQkUCgoHBLKHC8WNUWHv4SAIFLJr8aByo7kMuDSm8DLQ+xHqiSCdnUbKmKmUysxDfMuWk5KM8LsVO+ogTnB+DCMJ9PaZ0AOD0ENJOJyHQtJ2p1kVJ/h4yMQJPZAWVVFYBBIhHZs5zooNTYWNoREFCgWFekEJFAoKBwiyhwvFjVFhb0EJFAeHLCrkNuA1MHFjDt3euDDmA70p2PlpOMtv8TlhpmUCqRQZz+tUprjLWnGiDhU7OH8G77dPvwrNN4RuLYdCvv7iBOecqIoTWsBaJU5stiqK4v6gwoPRiAKFKjOqUC8ogUJB4QBB9mChuHEq7B3sd4FCdv3tN6aSq/MopNOL95W2ZCOdyXkj1vN+8Ie/BT2cQjA8grNnv4NSHrDJmOb8DSxOsCdCib0wyMguFADLXt/Yl4kT661/O5m25tHVbSEUTkLTRtDTYyFjL0jb7jTX8pxQ4oSijAproxEFClVmVKFeUAKFgsIBguyBQnHzVKg/9rNAIbvm9hvZI6LK6jQO4xCGMP227Yp4wR4QLAxwLgbbAkxndUWI0dwtIUyw5wQb9JOTd2AbEKLEaBmi3CWvZ6xU+T1O32mTpi2vayVzLGDQ/FpxwnEWhEjiODubnFLTCwj1lNDTN4JQyEJv+J8jQ9sia7vTdLJcgWNZnKC/V4oTnHOCxQkWcpQ4oVilghyNKFCoMqMK9YISKBQUDhhkDxSKm6dCfbFfBQrZtbYfycKDZVa8AtgA5r+rgkUqWQmvMGgee0CwKMBlQ9kTwnaWkK3xsDjbW0IgNAh/cAAT5ffJwL8Jv7+IcuFX1P8vUCjcgml+ACP1EfXzIX3/jPr5FQpkeJfK1P+K3BYsRLAg4u9N36vYkVn2XqBt4nlVg30lLdoH9s6QzdsoNb+BnrND0LodlAqzsNL1CesQpGPPx59/r+U5ocQJRRkVVqMRBQoFhXpBCRQKCgcMsocJxa1ToT7YjwKF7Praj6x6RIhQjswSkok5UWWDPSTyhQWkjGlc6PsWymVgfByIxj5ALj8Px1zA6zeA0SK1y85XqloEYvB2X4KmJREKx9DtHYFPv0LTrqHLG8VzndcQ6qV2QRYbDHR2DtN8C3767fO9gWDodVr3lNiuUgkYo759fgde30VqZ1TECBZQaNvE9rNIkQeM1PLf1X0iQ75AyxcLFZGjdt5G6dNH0K1dhBmZgkXHhI+HrN1uUAhDLD6k5+8XJ0RSTCVOKD6YCvejEQUKVWZUoV5QAoWCwgGD7EFC8eGosPtQAsXeJ3sUrJzGuQpMY0l4RBTJoM+YU8g68yjkptAbLkELlhEOGcIj4sLz4wiGHHR5BxEMjEMPRnHuQp7mjSIUsKF1D8Lni4swjGAoToziwvm0+O72XoPX2w/dV0AonEZXdz/OPW+Jfrlkp6YNoe/8CM6esxCi9YXPXybjexLx6M9ouYgQPxx7CuV8JfeFk5kWHCvcFrks2FMibdzbr0R8DsnEHSGi2Ma8YO1+V8nCRtKolOKsJe+D5mcxJQmLrmv27ljZZrdosTDCogydP97XdPoj+MPZVeJENe+ErA9FxSoVKmhEgUKVGVWoF5RAoaBwwCB7gFDcHirsHvabQCG7nhqJsrf9prVwX8hD1lmEQwY6V4LQfDnhGeH3O9CCl9F7LiXKaXq9UfT05Coigm+AjGL2KhhEQC/SPDLgQwYC/CbfRwY9zfdqV4XY4Pdbwsjn+ZpvGHqQpvW+ilJ+FoXcDEaLczCS7yEY/guk4h8gmfwBYtEfoqtzGGc647SeLHxaCqFwAn5fGlroFQR66Fuz8dxzL+Jzn/8ereMazp3L0fq/ifHxKfj1SZRz7yOVmELK+Cl9/xyF7CzytH8cHmGuEGhM2nfhiZGdE94a1enhniRt74goI2omloR3Se1yu8lsfkl4jXBJVs7Dkc1O07YVhOjDoTNKnFDcChVUiIeCwmagBAoFhQMI2QOE4vZQYXewnwQK2XXUSOQwAE4gyd/VaRMT9E0GrmWSEctJHp0PoAfy+I3/5kUYxg/QpQ0hEL5CRm9evJXXdAcXPvVnsNIfYvzGDDK5aUyMAuPlDxEMJxHuNRAOx6Drg9R+GIFADp/+7LuIJf4eXv1rtHwcur+EtDWFgH8MPc+/Lrwxcpk5kRBzosyeAXcweb3ybdE2OmSIF/NzGB78EdL2D6D7uN8BEQIS6huBP2TC3xtBt3cAvUEDAV9MiCh6Tz9t/wCtj4UNA13dV9Bzjgz4YAZ+vQQON+k997oIF8mlaV9oXUUy5rNs2AvvhNuVMqK0XSymBHsSIvfEaJ5DVyp5OLJ1KClaoOPB6y6WlpBMzmB45O+hhzJCCNL0IWSdGZQLSpxQ3BoPOhpRoFBlRhXqBSVQKCgcQMgeHhS3jwo7j/0iUMiun0Yjlwbl72oCSTa+reQiGeMLmBwH/FpB5IPwh4aFMe/V+uHTy8LjoExGfDI5K5YdZ1GD+imQoW7S32wI53OzCPe9iXDvDZjJKQR7h6EFBmj6jDCmq6EQY2Q4s4HP6+Z+xicXMEbrLpcqFNua4SocC+Kb12fb8ygLUWAa4VAZfb2maJdL/xSG+TPk8h+iVLwtvDL6nn9HCCgZ6z0hhOg9A+j0voresxae634JvmCU5megayYxTgb9FfSdN6AHIvT3dZw/dxNnz76O3t5J2pcigqEx+P0m/MEk9TOMIu8vkROHji57UKQzO1sxpJZVccLhv+m701ug/boqvFICoQQdEzpH7BGSnROlR2V9KCpuhAcVjShQqDKjCvWCEigUFA4gZA8NittPhZ3DfhAoZNdMo1HkZ6iGd5CRm6bv8uivaNoHOPPcIMI9b+DC82n49AQC+jjSyQ9w7sK7sIzpSsiHvSRyVbBxXA0T4T7527TnYBqLItyAyRU1uLJGrjBTabPSUKa+mCIBJ/XH1UBEKEWGS4RW+mcBgJdlIYVpmVPQA2M4/7yBQDB2ty9e3jBYICEWFlEsLYjfIvyB5nHoiGW8R+3eF32k05VEmyxIcLgKCxQsVLBgwaEpvO29vTb6eooipCMQqIgXvM5UbArR5PeJP0TamkGOttOga5u3mY/P3f1bwVxenoyTl+NtlM2TcaU4kU3fge4fFt4d3doIjPgtIfyIMrDZ3RNNFPcvDyIaUaBQZUYV6gUlUCgoHFDIHhoUt58KOwMlUNSfaX7Tz8YtfXMCyVJxCj6djHMOCdAc+IIXEQqP4+zZd4WRz0YwewUYSTb+75BBfEcY/NwXCxBCRLDvTy7p5BZgGjXiBBvfPK9UCZ1YSRYRUsk5cP4EEcphV0IlWJRgim2gdQqhgabrgQQC4RGRs2JlXwb1URU2mPybjXSelyNy6Aj3OT56bxmez6EdhvFrEeqhaSV4vWV0aTGReJPzW/jot7f7VVr3ILq7IwgHB9Dpo++eFP2dFscxm54S3iW8HlnCTK56wt8iZKRmumnMi2PJXih8nGvnycjiRDY9t0qcYHJ+kNHCEnLUhj1PnIw88aei4lZ40NCIAoWCQr2gBAoFhQMK2QOD4s5RYXvR6AKF7BrZK2Qjnr0OaqflCzS9xmMhL4z1GTKiZxEO5dATziIQGoamv0xGeZp+j4p5JTKUuVRoPHkvp0IsNo9CeQkmGfjVaUwWAYRnRM00ZlWc8AUTFXFixbatZC63JMI6VnoYcN8sXlTFCe6P+5WJE1VyX9WSm2z4185LJecxOoG7IS5ViuSYtEwq9QshWNicNJOm5/Mz6A04CAYj6OlL41OfeQe/9dk/QzgwAT3MosAAvN0D6Oy6Bq/G1UXewZkzJdj2e/f1z9vuGCxS3MYY7Sd7N9ydt+zlYTuzYt3iXC7PW0nDmgOXTF1LnOC/eZ4Qd1bsu6LidvAgoREFClVmVKFeUAKFgsIBhexhQXFnqbB9aGSBQnZt7CWyR4Rt33PlHy0Dk2NAMg5Y9i8R0q+LnA1dvn4RrnD2bIKM2iG8cO4m8tlblTKVy8tyyEeODOXq33fJ3hcrp0nYqUVFHoSqOFH1uHgQ2VCXTWdx4z5xQk/I29WQDfRq+Mkq5uUhD7zf8dQc4sl54WUyVp6Bpg1CDw0ID5O0c0sknGQBh/cpnvobeLWM2FcmJwLVfJdw7lwGwVCWlq2IKNncTxCN/BC5zEfUbhKm9X10d08ga9wS28hVU4SQxCJM8Y7wesjKjkVuXohOo0SHtpPFCBYlVooTLHCwh8Wq5RUVt5EHAY0oUKgyowr1ghIoFBQOMGQPCoo7T4WHR6MKFLLrYS9RVOQgQ7e0LCrkM4sokYFrpn6JUHgCPj0GzX+JjOnL8AVS6NYGcHXg+2TszqFA7WVv2u113uI/iJ3d/TjblxehHRsVJ9YiCw28L9zXRsWJrbCa08HK30a+ROu1f02GfxSa3o/e8wXh/cAeGaazKEJaRFtzCRMTc0jGfwVNi4qkoLo/Sdt5CV2dA6K6iFf/Cry+BJ7rGhbJNXv6TJHAMtRL7bpztJ5/wEj8h4jEfi1yULBnBXuAWM480tl73iTp3G3YtI18nrnkair5E/j13JriBO9P7f4pKu4E9zsaUaBQUKgXHvnzP/9zJVAoKBxQyB4SFHeHCg+HRhQoZNfBnmJmqRJmQb+T8UVRDSNtzpLRmsdznVehhV8mIzsq8kr09L1Bxv6i8FSoihlsdK/q8yGo+XJkiA/ghbN/BNN4yLKWZGRnifn0ArzehPBSkLZ7SK7M6dAT+A4Z/yaCPSzsmKJqCBv+nGySPRhMa0GIQiIRKC1jGxVvhbHRyt+FPFfP+DXO9jm48MJb6OxK0DkYEmE13K/P70AL9AvxIxhiT5YI/T2KcPg6LU990fnkc8Tbk87Nwc7M0HmmfmlaKvV9+PQi9RnF2fNJ6FpOiROKdeV+RiMKFKrMqEK9oAQKBYUDDNkDguLuUmFrUALFQ7Jwv8HP+Ro48SJ7KcSSPyPj+h+gBziZ44Aweru1IQR6inCMWWTMSmhCbYUJztNQ29/DUtNtkdOiszMmkkSyMS9rtxEKzwtiIvFDUeLUrzvSdg/LleJENWSCvTW6faYoZ8pCS22ySQ4F4ba2c/teNZRlpqg/k/q7PgZMECcn6NxE/gGjnFvCeh825/DIcBWSEjq9cTzXeQ3BUBzewEt0/K7Q+ovI0Xw+V7z/BVqPk6J10no0OgbPeS8JD4xAOIe+vjeQMW6J3CJKnFCsJ/crGlGgUGVGFeoFJVAoKBxwyB4QFHeXCptHowkUsvO+W0wm7tyXfJKTU3KSylisktyRqzTw23bOaxDqy6FLK0LzFkXpzXBPBtncB5V2ZLhydYjaZJni7X+Oq1bcS4L5sOTt0XVad7CEcmEehrn16hFp2lY2/L1aAl6dhZYr0nYPy7XECSZ7JYwW78BkcSC72hPEYSGAllk5nZnKLsBIUb/2kvjmc8DfwnOFzoVtLcI2ZzBw9UdIJn+Es73/HD3nCvD6L1fECs1ENPbXtF2/wkjkBzCSU+jy0rb1XIXmv4pg0MTY2CzGypXwF87RwTlIlDihWG/uNzSiQKHKjCrUC0qgUFA44JA9GCjuPhU2h0YSKGTne7fI3gNs3FbDL8TfZDBzWAYbuRNk8N6cIIM6WCaDNQYfV5LQBjCWmUPWmYdVY6jy2/9EarUQUQ3x2A5WxQmfPoK8s7SqcsZW6PNx/gcD4bANTYtL2zwsWZxg8YCFBhYkasUJnia8ElgAkCz7ILJ3Cuf2YLGFxZpabxU+h5zHokTTivR3kf4u5mcQ7n0T/pAj9r3T20/nNAqvPkDTssIrJtiTgE9LIZr8tbg20kZF8DCsKeT5fGZVYkzF+nM/oREFCgWFekEJFAoKBxyyhwLF+lFhY2gUgUJ2jneLnCiRv0VVDouM0AJE5YisswjLmBFlMMP6NxEMW2TAvoRAMIOhoX/ARLlS3SEjEQeSidXTtotVcYJDSjhXBBvksnabIfdTycswhPHc1j0x1uODxAn2qnjYkAkWKJiWZB6LCbx+Fius5ILIc3FjnKuv3IKm5+EPWPTN5VT7EQrn0K2NQPNFENAtJM0p2OY0bkxQez7f9oJIdsr9bqdXjKLiVrlf0IgChSozqlAvKIFCQeGAQ/ZAoFhfKjwYjSBQyM7tbjLHIgMnvnRui7fu/KZ8LDeLvp4/gR6Ko+98EuG+FDTNRpmMZxYv0tYiktH5ux4Xu8WJSQgRoSpOyNpsllVxgkUPFj9kbR6Wa4kTHOKxXeLEXa7jgcEhPBz6wWVGs5xHgmgnF4THDCfb9PuK8PmS6Oq6VslPEbqMYCCGbm8UwXAZfr2ECVrWsX8lBA4ruYji8vUjW5+i4m5yP6ARBQpVZlShXniExQklUCgoHGzIHggU60+FtaEEivVpWXMwjUVhbEZjH8A2PiKj2US4J0kGdBShngL0wBj9nhCVOngZIWKQQSuEjRX97TRzmTmEwrFtESfY82I3xAkWHVicqIgQd+7mndgRcWID5Pwg5VE+j4tCpKiKEyxW9ITKQpDQtCsI+d9AZ2eEfvPfMXE9cLWUcA+LVRaef+E7KBduC08bFj4c9qxYsa4qWciqeuooKu40GxmNKFAoKNQLSqBQUFCQPgg0AtPpRZGkTzZvv1BBjr0uUMjO5W6R8xAU2EjPzqHTa6LvbArnzrIgcRFnnhtEqO87KBVvo0ztjHglUeZdkrGZzu/umCrmF+HTybAPRIVBL2uzUXISShYnOPfCQRInqkxn5hCLT4lkl1VxwheslFX16/HKdUEs5mZFVZNo9O/g9Ro4o10Tgg7n/uCQn84uGwPX/laUZuWypFlJnhHOD2JZd4QwYiRXz1dU3Ak2KhpRoFBlRhXqBSVQKCgoSB8CGoUsUnCMvWzefqLC/djLAoXs/O0W4/YSSvRdzN9C77nXxdtxTRtEMJCB6bwnSlOyYc2VOGx7DpZ5vwu/nVkhWOwwx0qgbYyTAR0jw3mxUhJU0m4jrHpOsJHN4gSHjMjaPSzXEyf4b57O83dbnLhLiTih6wkxzzTnhFcEb18ichsO/R2LzmIk/p/h76lcL0IsCsUQDtGyuoWM8wEd2/eQpeuluo67VWFECNEsilz6lPqszldU3Ek2IhpRoFBlRhXqBSVQKCgoCMgeAhqBFhlcHCttpHbXsKoHFe5hrwoUsvO2UxQGIRmj1b/zZOwnYzPo6SGDnwzMM51XEAreRCEzjzQZq9yGDUv+zUkza5etC2n7feFrZDzHkUvfqzSyFcaWPS9qxQkOTShvs9FcK07w9u81ccJxFlCg9cvEiSpHx4FE8g6SSboWaDu5DCtfF/nCgsgFEggkxTnpO2uipy8Gb/dVdHdH6HsEJWpfyFWWE/3xd2YJ+eIdpOlvy9nfHm2Ke4uNhEYUKFSZUYV6QQkUCgoKArJ//o1CLqNYLtMD9jYbI3uVCkqgKJYqng/VEKdxuv77+t5AKJyAzxcno3kAqdT3MUnGKIsRXFq0tn11+bqRxqpXS4gcCH19ZNxX38g/gNJSnTaXROUwkRHa70rFjjFqxxUvyjRv1NqeahScn4MN8L0qTgjBiu6F46O30dVlwucfWiVOVOnkb9P+zMGyZyvJMGmbWagQwhXNz9PfgUAOXi/npRhBd/dVuq4GcLZ3FH7dRK5Ay9E1xB45lsH3YFo/n0PmAbkPK+4NNgoaUaBQUKgXlEChoKAgIPvH3zDMLJFhNgE98K58/j7kQcdeFChk52mnyEIDG5Sl5dwA4dAN9JwdIqN/GKn498W0EucIIIPaytTkdcgsiJwBd/+uA0tloJhdwNmzaQSDKYxK8husRYu9LFYYwPnEDI39BBnTI0Kc4LwTb1KfEWepEs5A60s9bOJPWmc2vyT6Hi0srSlOPGwOja1SCAS0/kJuGt7uNEK9SWi+9UNc2AuiVKqE+vDvLE+r8WIp0jz2qigVFuHXbejhFPUbhz/I1Vb60XvhHZj2R0gvhw1xmVPhBUPH3KZjX7suRcWdZCOgEQUKVWZUoV5QAoWCgsJdyP7xNwL5zV2nNy7K5+lhU9pmP/IgY68JFLLzs1NkbwG+5tko5DfYPv81+PQEun1m5S16TdtETd6AvUBOrJjJziHgtxEKGfjMZ/5U2k7GqpeFZS6gaFc8Qrw9o/AHRtDZV8DnescwSG2StI4czbs2SgZ4egZxXja59eOQo/7StM1FOrZG/Ba6tREy/ivlRFmcYPGinuIEr5uFhbQ9RffAAgKhhKjWIubTdq9sX8tKqE9FTJAJV3z9mAatIzdFx3kSejAHPcBhH5cQDA/R+vJ0TmdE8k0hBuWWKmEjxMKKvhQVd5J7HY0oUKgyowr1ghIoFBQU7kL2T79RmKUH7c7uQYT8k/D37UxyvL3Kg4i9JFDIzslOkcUJNv64UgdX4wiGouj2pWEZM3e9KfYyucqET7MRCMbh1a9K28hYyCzCtJZQLrFYUPn702QcdwYn8PwnXsDn9Rfx6pFPYdjzNAban0bM/QSiLU/iS21dSDQfF0ZzYouVJpwsixBzyKVn4Q+O07bH8Fz3VRTzZPzXWZzgqiXM0eIdfOaz30Zn1zVo2pAQrlgwYE+bfGH9/DzCe4L2QTaPyWVL2cuCw0eyDuc4+RZ8ugVNZ5FmAF1aSiTRLBeobW5enGNOxsnXqJNSOSkUd5d7FY0oUCgo1AtKoFBQULgL2T/7RiE/ZHNiODYebONv6cE5ImLTZW33Iw8a9opAITsXO0UuCyqMYaJt/ATdWj+e6xxEITdzN3fAXiZX3OnsjKHv/AAZt7a0jYwGh2fk78BmkSFyS4RTTJKx/LmWp5B1nUDM8xh9t2G47TFcajqMl1vOIOU+ijjNMz1PYsjzOCLuDkwUK/cJ2TrWIrcXFTHSM3RPKUHzDUAPZTA5BiSTM3fFiXrknaiKExyakU3fwoUX8iIPRyzxfiXcgq4J3n4+7hvN8bEWK+sAzDgdD+rTTtHx0IvwhyIIhIbh7zXp+3VqM1uppkLnjBN2ijKlxur+FBV3knsRjShQqDKjCvWCEigUFBTug+yffUNwubQeJ4bjt8r8pi/cEyeDIi9vv095UHDQBAo2RPmtNBt/uj4Gf3AAfr2AMTK6651TYiM0jSWMkjHP2635cijmN1Z1hw3tfHYOWdpPrlIyee1v8Jb9YxhNHlhNLRhwP4pvtHTjKv3+5/kPMJqkNukZvBmfEsuPH/4NDLuOI+o+jmH3M0jS8RvPbSw/QlWc4GoY1fuKHiwgm50W1YM4XIXFkr0gTuiBNHEYXVoRseTPhHDCAgW33a4yzLa1KHJMsEDBuTjymVl4vQ682gBCQVp/7wj9bdM5mxFikk1tRdgHt28AAU1xf3GvoREFClVmVKFeUAKFgoLCfZD9o28UskFRLa3Hf/PDu1e7iLMX3kaheHCSth0E7AWBQnbsd4K1hqimpeHTB/HCC38MKzUlcg9Y1h73FFoWDwP+NDq7+5FKvSdvt4IWjee0sSS8Q7778v+AK63PINXmhuV+DF9r78SQ5xm8ePiMaDuRvYUkHYtUCbhYvtfHzfQ0htynkHc3w3AdhhWbwXh2DuWx+9e1isvbLMp1+ofEPSUY/guk0x+JUBo21DnUJlsncUgmTmgBi+6B0xgdr+QoqeSXWHhgHorNMJH6UIS1cN4K9o4oZGcRj/wN/HoGQbouOeQjFByj9d8WwggfI74vs1Cx569TxX3HvYRGFChUmVGFekEJFAoKCvdB9k++YUgP41WDojqtSMZEoGcQfZ8axsQoTaP59y2zj7mfUW+BQna8d4psjPJ1LQxRPQavN40yGcZsoKZzt6XL7BlWPZuWvRA6tYp4+CDGS0CKDNs/bOtGzNWB2KEjcFxPoeA5AcvjQoL2fyxLxnfNMpNM86P7pjG5H7v5CAabT6FszmKQjmWc7gs37V+saisoESdy+XlMXmdhYknkdRA5G5grl91hWiw6LK9XJk6I7U4vVKp6cEgQbffKPh6WvA350qLIN+EYFY+KQnYGWncGQf81UepW18tI2zNCoDDN28LbhL1OGiFPiuL+415AIwoUCgr1ghIoFBQUVkH2D75RWDWGdD1x33Qr+X16kI8gyyXxNujivR+4X1FPgUJ2nHeKK8WJwcHvC3d5Dn3IPWzpzJ3mCkN/5ZiskkMHVk57LTKFuLsFuaaTSLecxFfaevDPjmv4Pf8AukNjos+Vy6zHV1s+Btvlxs3kL1FybqMc/UDaTiZOsBhhWXcqORXotxAnOEHmymV3gSwMsPcCh00E/GNCnODroipO8Pazx4KTmRe/ZX1sBznUyLRnlz0j6BwuixR+PUe8gjPPvYrhoX+HDE1nIY23hcNOjCQd22WBRVFxN1lvNKJAocqMKtQLSqBQUFBYBdk/90YhP5yzcVEN86hSxEIXZqFp1+CYd1AqLRsaNW32M/cb6iVQyI7tTpGNzHtu/MPwBbPCCHWcOSFcyJbZM1w2lB8kTrAnBJfqrC2HGnE9g5LHg2TzcUy4W5DwPI0X/Jfh92fxfM+fkDG8tKmxezP6cyTd7YiyB0WZjGS6F8ja3bfNy6FivN0cKsGCUDXRZL5O9w0hCOTomqBt7PI6IkEl58WQiRMsIMj62E6ay5VCRCUT9pCwF1HMTyMYyCEc7EeXPoxM/lZFoGCySMHtaRs5d8rK/hQVd5r1RCMKFKrMqEK9oAQKBQWFVZD9Y28Y0kMwP6yvZRRFYr+G3hPF2XNvo5BbkL693a/cT9jvAgUbmGwYlwozZJg78AXy4rpmw5wTM8qW2UusFSdWioVV5tNzMLgspbEkckKUaN8irpNIHO9C7pHDeNnzSfT2Too+vJ3DdCzmYVK/+fTGPQOcAl0n1H/E1Yx4y3G8Fl0j/8Ua4gRPYyOcQztEeAf9LV1+h2nac5XcFwbn1cki2BOD5ruMXG4aaZPa7LI4UaVYN33z9rFQwefxUy/8Szp+I8ulZItIGTN0r6V2nLciu4g8X9t5OtZ73QNIcV+yXmhEgUJBoV5QAoWCgsIqyP6pNxL5Qb02WWaVHJfNJfeK9HDc+dwQwj1vIEvTRBK5Ohkeu839gnoIFLLjuSMkY5ON0YkyEOpNQvObyJNhahrzlRwEsmX2EFca+rI2XJFDhAaQUfsa8cvHfw8j7icw7D6Na80aDJrW6b8sDPFunwlnHEhxDgM2dCX9yWhxskw6jhb11d/WhVjzx/GHh/2r2nF+hKQ5t0qcqM7nkIQqa5fbLXIZU163lQCi0b9Bl3eIjP8IQudyKJCxX92u3RYnqizQ+tmrx6btzND5GS0uwNudhD84BE2LIZr4qdhGrioSp2Ncpm1kLxAWm7bDE4jDS2TTFRXX426jEQUKVWZUoV5QAoWCgoIUsn/oDUN2JWZjw38vWWaV7G6cy8+hSN9d3gFhkKSSc+ItKb/dW9l+v7LRsdsChewY7hQ5uSEbnmlrCl7tJeSzt8Sb6lKBppNhL1tmr5DFCeHBtI44MZaZQ4IM1sniHeTtGcQeccFsakeCvnPmFF6ned3aJej+ESHOZMmwNVNsiG4uIej11K8xmafjZi/g6mEvCk0evOq5X6DIFmjs0zcnG9UCmVXiRJV8j1g5bTfIJUyFcc9/0zdXy+CSnme8V1Cm64HvWxx+kqb59RAnqmSvCBZ6CvQ7naTv3AzCvRadw346nklkc3dww/pQJM3k8qNj1F4k22RPCroeZH1uhFnad2YjeBUp7j3uJhpRoFBlRhXqBSVQKCgoSCH7Z95IrBpJMmNDMDsHk4yObi0nXOi7tGylLJ+s7T5lI2M3BQrZsdsxcogSGaKWPYve8Ci8WhyjxYqRatvbX5FhO8nGsm3clnohVMlGdJEMyiQZpixmmE2tSLgO4/c6fguFy3+NFE0PdL8hxIne8wVknI/E8djqm3YnNY+cOYdBTwvSzU+KsJEErf9umzi1MQBNs9DdE0Gv5ty3fD25Spyg+5TuH4beOyLydnA1Eb5e2Oi3nPpfGyzwsocae7nknSX808/+GV2/1xAMD+FCzx8Kr5h8AUjR/CLNL/I1Tec7Yy5uKqdIlXxcLJt+07J87eX2wDFQbDzuFhpRoFBlRhXqBSVQKCgoSCH7R95IrLqZr/UWl8kPy/zm0U4tCgNF90dFGIis7X5mI2K3BArZ8dopspHF122arsFY4n2Ee1LI2HOVxIg0T7bMXiJXlohFf7hcWUIuDCacBdFuLDuHK56nkWt+DANNj6E8SeMwPUf7P02GeAKaPozzfX8uSlOmV5QT3SzZEDbdbbj2aBdupOZEyEesTOsrkpFcBHwXruNc4Bq6tJh0+XpwTXGCyOJELk/HhEPT6LpgDwJZH/UgCxQc7pF15pFLz6LLm6fr4RrOeQ28Zf4UkwP/Efbwe8iUaP+Ss+LcFq15lPJ0ToyNi1AsRlS9RyyT+mDRgzhm7/Gyu4p7ljuNRhQoFBTqBSVQKCgorAnZP/F6kI0I2fR1yW+i6VsW5rGSHLvNrsmG8SP4OPP8ivkHgY2G/ShQMPmtuBAjrF/BH0jDIaMtnbkjbbtXmC8siLfmdoINaQuaxsklp6VtbZMMytwC+g89hpznCK64nkA/Tc+bS0I48Gkp+HxRaHpB5DZIsxG+oo+t8JvGNN4s3KaxPofxAsggpn6p7+fPfB493b8Pv56WLlcPsjjBeSeq4gQLElVxgoUKnsbz+DrhiiayPupJFtlEMszsPDLOFJ3LK/hC5x9i4JEWRF1teKn5Obxj/gzZEkSoTy5N1w+dlzHOS0LLyvqsZdm5LcSINC1bpmX426FjUcgsIp2aqWuoi2JjcyfRiAKFKjOqUC8ogUJBQWFNyP6B14v8NpEffFdOz5KxsXJaldx+vVj4lTS5mgAZMd2+QRTyB/NNXKNgNwQK2fHZcZLRzB4Ump+TDI6KxJjSdnuE7A1R4FwIJkRiRN1nQAtYQhyUtWd+awz40qkv4cvuMyjl+I37gngTzrkK/IEY/KHi3eoQ28ncKHDDmUWc7iXFzAy+cvz34HiewNXDH5O2rwc3Kk7w/ZDbyvrYKyyYdD/NLKDnrIHP+kcQ9xyH7XoMaeKXmzW8Q+eDBQqbxS265i3rjshHUVxD3GLyvDKdQ4uuOU6OmYjcEt/8NyeVLWTmxTqLezxXi+Le5U6hEQUKVWZUoV5QAoWCgsKakP3zrhc59IJdeWWu7ml6wF05TZAeVKvJMjea4d4wZsXbOZ9+Bd3+QWmb/c5GwE4LFLLjshtk9/iUcQta6BVYxnvC42Avhx3xeOT8B17vdQRCw/fECRp7MkGxyn7XSbx99S+RS3yILBmWnGfDF+YwiyE6r9/fkao6MTqObycXMBkHukLjMFo/jqy7BQn3cWn73eZ+EieYyQJdG/YitE4Hz/uG8QdtT8NqeQoJz3HE6Zi/kZlGwpgXiTJZoKh6VJh8TXEFlhX9OaPAdZqeoDHxzfgvcTM/h+8UZ8W3TfOStGwmNYsClzy1K6LXyj4UFTfCnUAjChQKCvWCEigUFBTWheyfdz3IifL4mw04/i7UhH2kjAWY9NAqSyLIOSZqk2WyULGyjYxseLG4ofuHyOh6cJjIfuRexk4KFLJjsVscJQMslfwQmt6PdHJKeBcID4Pl639PMbNE20bjhAxMDutgD4hacWItQfCK5zG85HkC2dQ08tYckrEZdHWPoKfHEjkLOFltbgNi4qbJQg8dR384i98MpPDbT3wOkeajiHqOydvvIjcjTnA7WR97kU5xnq6NMj4VHESv/hIMVztGXK0w3Ccw3NwhvCfytD/j6WmkqH2RfjO5QolRk7R41JjFMLW9XuJ7OPD1js9iiK6hF06N4OtHP4NvTgCD1J7DPcbof0MqtYgsJ+BcXl5RcSvcTjSiQKHKjCrUC0qgUFBQWBeyf9r1opOCcANm9102gNijgt+S8RtmzlMhDBt6QI2Z9x7gU4klelCdEWEeGzGeVpLd1wP+LBlfhnBnr523pdwYDca9ip0SKGTHYLcoSkXStfw7/+x7CPZdhGl/JDwJ+Jrfa14ULPRlC/M0noDuLhof/iheuPDu3fG1lhDIb9Szhx/DwOEuTBofwkzeRnTkJzS+4ggELDLEd8j4ziyJnBZnz9no6f46/FoOl5LfR9TdUXeRoipO8L2rKk5Uk2LyN//diOIE07A+Qqk0i86e1/G1lpMY8jwKu7UDieYOxN0nYLg6YND+5+leOurMiVxATP6dSc0hRdf9N3NLSNC06/EfItmhUR/PwKDzNdT2LIZbnsBQayfeTf5YVIAx6P9Blu/T9t7LzaHYmNwuNKJAocqMKtQLSqBQUFBYF7J/2PVi2vmVKDuYy7NLuY185jaS8V/QtFmRlO3C8+/CMW8hYwETY8vLkcGTpYdcX+AqfL7kffHxGw37yPBbPmeJDIbIKm8KYVTU/L0fuRexHwUKNt7NFNDT9xZ8WgS9F94R09cLlagHeczwNnFyQ82bRV+YxlV3Voh57Kq/ljiRNKdFropS26O44m5BqUBGpL0gxAmvtx+pxM9Rkrj2PyxFWJhzG4FgTHimdHbdQGJ0Cjm6T3B5y6pIsV6ox05VytjP4kSVWTrOHH4xePwcYu6TuOo5giHXUUSbH8cIccBzEqPOvLh2BuhcMfk3T+MwkXLyZ7js6oDpakai5WkMtT6HsUOHMEDLRppacdH9cZQGfoAIjZ2is4Ayh3hItkNRcavcDjSiQKHKjCrUC0qgUFBQeCBk/7DrwWx6CqG+HLq0QXp4z8IX6CdDrige5nuDY9B9Ufh7DGi+cYTCZIz4uCJADuFzBbzw/NvQtCGEwya6fd8gA2v6gW97ZfTpI2RAphHQR8Xf/GabPTf2pAv+NnMvYScECtk+7ypziyiQcWaQEe/1JdDTc0NcW9K2dWJVnOCxw0JfQB9AKFQQiQp5nmOuXXEkay1glAzOV5takDjUjDHjI/j8I/CHrsKrxSvhDdvM6tv0QDBO94NhJGIfVjxTaF6etrdWpGAvCplIYdEYZ66c/rA8COIEM0X7OZhcxNc6LiDvaoVJx9p0P45o87PINrXCaDqBaNMxTEwC46UK+fe3rJ9QmyeRoOvlquc0rjcdwkXX03SunsCw5zic5qOw205jIn0bTuI2kgYdU2tvV7xRbFw+LBpRoFBQqBeUQKGgoPBAyP5Z14ufvvAvEOqNV7wZfCn0nIvCr5sIBmLQic91XSJj5woCoQRe+IyDCxcMkUU+3JeCrkdoXlbEPPedH1mV0G8j3hTp7BIts4BuPQ5/eBDd2kVhRHJujI320cjcK9hugUK2r/Vgnq6hIhnxbEzb1i+FZ5CsXT3IIpwQJ/g3kcePHhhGMPgnMC0aF3Tts3v+yuVqOUpt/sXAv0fK8zgmI3+Frq4RdPaYwkCXtX9YclgH3yf4fsHJb50Vrv+1IkU11KNWpKgm5eVwspyzcSFzIzwI4kQuNot8aRFFE/jutb9FPx3bRPNJxFzNMFwnMOQ5jhhxsPk4rrYcxeCTvyWY9JzEUNsZDLR14rLrFIYe8SDnasG3Ez+ueLwQjaY2vHjyq/hWYQF58zbyNG5k26Co+DDcLjSiQKHKjCrUC0qgUFBQeCBk/7TrRTu1KB7ig4Ekwvo7GOUM8NYvkLHnYBi/RC7zkUiwli2+Dzv3U8QSv0K3NoZw6A2kjH+Arl0ShsooUdcmoOsxMrqmK0IFcaPeFI4waqbgDzkiv4UokZevLLsZj4xGZb2xnQKFbP/qSa5ooWlJEZKUk8yvB9lQr+bBuCtO0NjRA2mRTJYT1D5InKhyxPUYGaet6G86iedpP3t978BeFgK2k8nUT6DpUTqWI+KbRYiVbbgCUFWkqM1HwSIF3yeE8ELfnHyR/7bsmVV9bIVVcYJFCJk4waJFVZxohIodMvIx4zLQ38rMIWPMiLCN/qY2XGx6Ai+3nIEvNIAB99MYaWmH7TpJvx/F8CNNSLmPwqJvTqh5sb0Hf2L/AwrWLNLWHKItx+gcnYJD5yrueQqTxrSo2lGbNFlRcbu4nWhEgUKVGVWoF5RAoaCg8EDI/nHXk2ZqBp1dw9D5LXOKHoRNehCuGk9kRBSIbEzxA34yvljJFJ+bFbkpuC23Y8Mv68yTAXBLvAWuChWbDfvI5ZbuljLlSiG1fShvip3DdgkUsv2qN/m66fbmoIcTSMVn9kSCTBYoeGxVEtRO3ydOZGk+exbJllvJscyscPm/3NSOaJMHfV1frRjpNFZl7bfKTq8JrzYgPCdC4YwYj7J2TJlIkXSfEOUuM7S/icgtEcKSTc6Ltk5uQdrPRnkQxIlyZgap7AIKdL+10ktIFIEbBeDFttMou10Y9jyBS+0+fPHRM3jJwyEfrYi7T2PE/QTG3C0Yj/8CFu17PrOIFB3zUbofJ90nEXEfRcJ1GMahFnFN8nnN0XzZNigqPgy3G40oUCgo1AtKoFBQUNgQZP/A68XRMaBED6WaLwJ/IIZSYVG4wufyNYZDblGEXnBVhHT6ntiQSKx+A1oxsipCRW0SzQ2LDLQ8L8PlTNmbYmUizlXt9xnrgf0sUDA1zRAhRInYT8EVKGRtdovJBFcRWRKGIAsUHNbE4gSPmc2IE8yx3B0kjHkMN3Wg1P44Yu7HRWJDNta3y4uCE9mGex3hgeLtGoW9gaSJVZGChZLB5o/BcR9BrPlJ3MzP4TvFWfGdy0wLgfO6PQtni4LKfhEnuOKMbDqzbN6GnV5Age6/Jt0br9FxnXBmUJjkShx/j1c8p3G1+Sk4rlbk2Zum9XEMu07DavLA9ByD4TmJiXFgmI510ZpFjvob5JAO16Mw3I9h2P2U8JxjAaO4XHZaUXE7uRNoRIFClRlVqBeUQKGgoLAhyP6J14v8cMxZ9fmN53hpRiS+TMXZHXv1m00WJ8RbtuXwC2bSmL2/DRlYbGixUMGG11bDPsR6VvRR9aZ4mLd81Tj4jU4XXKNcIxs/sukPy93GdggUsv3YS/R6o/BqUeSzdA3XiGy7zbvhHZkl6D4DGm2T15sSY2Yz4gSHQbFRmaBr8KsnvoCo+2MY8TwORxiaC0IceFiRgksBc0lg9pyID71P2z0lbScjixSJ5icRcx1F/FCz+B5yn8ALp0aQT91BkrbNKtI2UltOvln1xtooWXDYF+JEHuKalM3L0bwoHcfIKP1N96DRMnBjHPhiuxdOk6uSO6LtacRbn8Gw6xiinlYMuJ7C86dN5FvbkXAfRbL5BKKuxzBuz1SuF+HV8jidi2MYcZ9EybktcrVwdRDZNigqPgx3Co0oUKgyowr1ghIoFBQUNgTZP/J6k9/mcmhHOjEnPBeC4W9J2/GDcoEenKXzalgVKtYK+yiR8SBb7j5yW+pHJlRI269Dy6qIDHcNxJp5hlnxBOHtqhUqjOVlhDBTY9Tamdvie6fDBXYLDytQyLZ9r1H3R6EHR/BPP/tnIiQpna5fwky+zvibxYmec1khBGxKnKD2YzReuTRphP7O0u+o+3HE3Y8KLwoWKaqhHlsVKWrFCU5ka1u3pO3WIuedSLkfw0DzaZRGfowIGdBJF+c6OIWB1tP4bnZKeE6M2tOYJCO8vIF7SpW14gQLEVVxglkVJyrCxd4WJ3KFyjksZOZFHp7aeXxsDDoul83bcKhdsu0JDBwJIdN6ApHWj2PoqI6XWr0wHzmESPPTMFqexu90fR49vcP4VI+Fb5VmcbHlKVxzHYfhqYgUMfcTdJ08hgidg5dbOjFhvk/nme5xtJ5UitYbp3trzTYoKj4MdxKNKFCoMqMK9YISKBQUFDYM2T/0vcBY6pZ4U6rrcRTz9zwftsr7BIaasA9O8uY49HC+or2MK8UO7iNj3xKGpjBS1mEqWREZOGSlapRy/D+HrHACRf7bthZF0j42HNO0XbUu16YxL2K32YDIkbHHrus83TDuiH74TTgbgrUG73aWs9wNPIxAIdvmvUo9cA3hXkt4C/H52oxRvN3062kRxtR39lsi94qszXpk47ZozdPYWMAYGbl8jbJIwV4UK0UK2fLrcaU4IWtTpSERQFic4OSYKVe78KRI8jbQsY41nxahCEZTK1Ktz4hkoAmab5g0vlI0TjewrftGnOBkl7TfY9lFcS/kcB3OKSLm2YvITgDR9k7EjmowDp9BtKkDX3c9gWscMuNqxkvHfwffHr2NK+6nxHnnah4BfwI+PQavdhFefxbF7DwGWk4g1fy4CPdIuTtQcLcj2f5JIVwN0rEft2fFfS1N19M4sTAm315Fxc1wp9GIAoWCQr2gBAoFBYUNQ/ZPfa/QyC3ixnVA069A00rCKLedrcfuVwWGWk+IT3/qXXowrpSzWze8oob3iR2hGHw+B6XilHBRzq9hbAo37+X+ueQkP4wnE3PCY4SrleSzZNTQvNHiAqzEvJjuZKZRKNxCOHgDufx79NA/ibFRMrAS72OSHuB5GwrFeeTSS7hJx0mEvNA2FGv2YzuTze00tipQyLZ1r5Kvg7MvfJcM2SFxrkWiRqc+XhQ9fW/TNZWCL5C6602xFZYLdA068zDoN+8PixTsRVEVKbaSj4LFCc47weKETx8R09by7hilYzrG4op5z7uoKk5wgkwWRzifDZOTM45l58Qb/airA/1kWL/keRb5wR/BobE7aPGYovVba7/F3y/iBDNrLYnjxx4UJn1bNh0j2uZy/H1Emk7iS62fpG837KYTKLU/Caf1UQy2nsErHV68kZmCPQlEJ4D48V5YzceRdJ3Ct0f+Nfq0r9J9i8OZrsJHx2fcnsbFR72wWw5j8FALhpqP4fKxs3QupnGNjnuEjvkbdE97nUNICkv4Jk2L0/bItllR8UHcLTSiQKHKjCrUC0qgUFBQ2DBk/9z3GstklGu+S2QI5IUAwLkqZO02ypWeEEH/FYSCYxjLk6HIXgdr5HqoZW0fZ7ouC4PT7y+ikJkTHhmyZaoeDWy8jI0D4/Rgn8/PIBr7AIbxA/hDw/BrBZx5bpD2dwDBYBG6PoguXz80/yXoQYtIRlsgRtNTNC2GYNhCJ63/ua4RWr8JPXQNvedeRzo1JYwN25lFnh70NxTKskHuFPa7QMEeClyNJmVOIRCM03kr0XU0J/I4ZAz5MjtFM8XeExmEe5JC+HsYgUIwsyRECvaiWClSVPNRlEwIEUO6fA3vEyd8UTFtrcS22RRd37RONqpj1Ma+uVqcEJ4qdNyzBpe1nBceEzw2jNO/g+F2L4ZdR/FH1/6fMJOV/Aq8H7J1MVlwYOFhP4gTVbL3C+fhKCzfIyYysxg8EsDAI24kXR4k2zREW07h8uFn8eVWHRM27SOHYdA1ez13m+55i7ja6kWqyY14y8fwFp3nXOFX+Kf/7Yt0nxpB37kEXvDlYR7ugk3nxHY/hoz7MEb4+qDvEh2ny8QBOvYZewmDdB45nGSMtsncRoFV8WBwN9GIAoUqM6pQLyiBQkFBYVOQ/ZPfiwyFRqBp1t0H6Y16PKzFqifEC8//C3R3ZRHqieCFC98mA2VuOWziwTkmuA/2WCgVZuAPW7SNBrq8jjCKhBFTQ9NZrCQVJNrGR9CCZZz5zavCC0MPvSpyE3i7i+Jb83+D9jWNYCCGC5/6M5RLtxAKjyPQU4SmJ9ATuk7bW4Cd+gHOPU9GUmCMphvo6YuIBKPcBy8bCubF216R12Ib39TvBLYiUMi2bS+SK2YIgYquKQ7T0bQkenvzKBUr3juctHW3Sthm88DkxKJ4u93dbYtwIlm7zdBh74bMkhAgqiJFbT6KbxrvYciYw03rPTE2ZH0wpZ4TaxwXx5rBaJbGFM3n3C4sRlw6egFxz+MYaT56nzhRXYaTYfL9I0vHPFmih/X0HBnXH8dbI38Py1zCGE2vXUctV4oTLEhUxQkWKqriBI+3RhEnmJw7ZHzgR3jryl8i7WpFxtMB29WC/vYuXDp+AZdbn4VRBoqJBfxR4QOkY9MoFoHr1hRGaD/HnVl8w9OJlOtxfOmwJvJW9E+yx8wserQ4gr4hRJuPY6j1MF5sehQjh4O43PY0Eu4jiLhO0DXyGG4m3kNsnM5jbgmT6duYoGu0ROtkr7RMbnWVJkVFGXcbjShQKCjUC0qgUFBQ2BRk/+j3Iu3UInza2wiFChgvL1TyLpBxUs3vsBUKt/HcPPVFhlVpHt7AVSEyeDVbiBcbfbMs8lhwX9TeqxfJuBqEHhjEmc7KG+Aqubwjh2Jo3XkEwlfQHUpB0x2U6YE/40whnfwABdqeao4JDgfhJJgsmBRyCyLLfbXSQNpaFAYdJ9fkEq08j98AZ/NkIJofijZ959+gbUnA231N5LcwaVmxz8vb87DcTmxWoJBtz16mRceePYCMFHD+7LcQDCWg+0owl70ndqt8LSehzdpzOHf+7W0NAVopUlTzUcRcx/AVzycxxt4J/FacDFjZ8kwhTujGg8UJGgssPKSpLw5xmrRvIeV5HAOeJzDsOiwVJ6rk5J48vnhcjWXmkBv8FYrUPsYJGle0rXK/ihNVfrlZwyvuZ2E2tWK46TCdszaMW+8h8wbtK+9bboruv7MoUdubdOxiNG2SzmV2FBihv1PuNoy4juPN6I9QpOP6tjGD14xFTMb/Gq+0flzknXCaO/CHrhYhYLDXxDcOncL4IY+o5MHVVSaiv8bNof+AVzt6cOXIeXyrVAnz4Bwn+cLW7/GKB4P1QCMKFKrMqEK9oAQKBQWFTUH2z37Pkgyr3nOvCQ8BDo1gA4vfTkvbboKOsSTe+vJbu77z3xJvcLmKCCcQFAk6N+BNYbMBygYR9TMxQX3Rb67a4PXGoGuZShtnBhP0UK8HqH8yxEI9b4k8EtncnDDoSixUULt4cvZuksxk5rZ4+17Nb1Eo39tfNrLYhZ5/8xtgzm3BfThkQBWX27MokUj8EL29OVGxgY2pvShSbEagkG1HI5AFNXFenVkyxLPo7Uvevb5EclSaL1tuu5mMkOFH17ps3sOQRYrafBSc18FwH8dAy8cwTkZrYh0RoFac4LCNta5R7nPcmoNF32l7SgiDw+5TGGk+hWRLBwo89ujeUBX5ZHzd+RniNHbYEyBK7cx12u53cYKZaGrBSOuzcFpO4qr7ceQeeQR/0NqDi61eZGNTyA/8DF93PYXXk+8jleBjTvs7SftLy74d/XvEmzx4+dEevE3TvkrH9Cqdv9fSs3i1rQexR9xIudyINX8C50M5FKgNhzZdpWOedJ/GlaYn6fs4om3P4qLrE9S2DcW2w7jccgrfSk0jbSwglVkSoWqybVdUrBcaUaBQZUYV6gUlUCgoKGwasn/6e5EpY04Y/o7zU2j6q8IbgUWBh46hX2Y6Myf6mhyn32TY63oCPv/QprwpROjJsis//x2P/gKaN039XCOjZgD+4Ci83mvo1gZhxH4syqXy23U2lngdBU6cuaJPJsfOV38nE/fPs9I1xhytWyTMrJlfZT47vezdkRb7tJ1v7R8WB0GgYJd1NmRTZHSdO/vndH3FyDCvVJTh+ZzIUeSkqFmm4bicj+K1zAwGDWDMmsaLzX7huVF05O7694kTztKaQg1XzBl35kTOhFx6BvnUHQy3PgnT5cKA5whK9hKsAo2HBxizCZo/mp0V3hQO9TWRkm9XVZzgc7ZfxYmLdKwnzGlcdXUg427FYOvHYbAXivsI8p5WXG3tROqRQ6JMaL+nG1ean0HafQxfbn8BX2nRca3lGbzqOoJCawfizRreNj8Q3l1W9GcY9pxGsvkULnk64O8aFh5qPl8/biRuIzFJ14Pxc1xs+TiSbjdSbScx4WrCoKsdMdej+FrLaVw6+YJInDlI21nOb67ErOLBYD3RiAKFKjOqUC8ogUJBQWHTkP3j36vkJJl2kgyV0gzOX7DIsJkUngSytluicxumOXfXY4FZ9abYqFDBMfHs9cDu0VZyEZp+E5964U0RauHThhEgo7SnJwrNV4RFRhyLGtu5Dw4ZcbLpvE/szl7M3RbGMQsWbCzL2m6FD4ONChSy9TYSOdRGhCctJ2nl85B2psXbaDbi0+ndCfXYKVZDPWzaz7I1TcbqnKjikFhDeKuWE73rObGGOMH9FTmMifriMIHvZqfImD6NuOcUhppPo5CC8J4w0xsLByhbtJ0sMKwx7mTiRDUpJn/z31VxgtvJ+tjrfMeaQrpMx/SVf41iU4dIWhmh4xl3n8Kl5ueQbnkMKfauONSCxCOHUHC1YchzHHl3G0rN7Rhzs+fFkxh2H8dEcweSno8h3nwMXz/aia+4m/Gqqx2Rtqfxzdgd/G73ZYS7B9HlT4qEpSwOmQVaN10X38nM4NLhpzDSfELkwYi1PWHVXOUAALgKSURBVIMh91G8eeV/RCkzhTFL5aFQXM16oxEFCgWFekEJFAoKCpuG7J//XibnXWBjLm8tQNMuIUvGyra7AFN/ufw9w4O9KTYa9lGgB+9UckGEn3CpUK4S4vX2Cy8KTYuQkROBpkfhOD+vGEDLyz1s4s+N0rTnhOeGL5Cn7cijQOstluob9rERgUK2rkYkhy+w2OXnUrWBYeFFUSYD3DEqITocqiNbrmFI+5CxbiPJ13ZmSZSRlLWrihM8HlickLWpMptaElUjDBpb7E2Uan0GRlMrop4nUEzPiRKiiezmxLaiZBpzLXHiOX1g34gTdgIYtugYZOdFYsp+dxsuHtbxhjGDUnIW5eiH+EbTKTovc3jT+DleafGi33MGv9vWg3TL43jR/XH0Nz+LSPPTGGrzItP8FIbbzsBuctG0Y4i7m2EcfgIvNj2BIbcXifZ2fMP9LBLu0xg6/AzeSv4DLnoCuProp/Fq+xla5nFEm9rxqutxJFzHMXioA1948rPC20W2/YoHm3sBjShQqDKjCvWCEigUFBS2BNlDwF4newM49hS82stwuELALjzMbjTsg0NEHOdD4S3h0yM4fz6BM2euiVKhscTfI5+bEf2wVwMn/ZP1saMkg449PPJkFHu1l0QOCxYtpG23wM3iQQKFbB2NShYouExtVaQIhAbQpQ2hmJ9Bmc6BCAWh8yNbtmGYWUKJ9iW3xjW1GXGCE16WnVmRKHeY/nY8R8mgfgqveD6J0cycqESRNu+gtBxW9bDM0dhdKU50Bwro+WQSN9OLDS9OMEvGNKKpeYxwcl7al9eiP8brNaEuMTo/bw38e0ToO2HP0T2K9rUIXC/MYdz8EH+a/ilebT6D0qEmWO6j+LPEDxA57MXvPxpGvvlRpFo/gUTrcSSaj6G/5TQSh47gGn3Hqf3FpjZc49Cc5g6U3M8g4e5ApqkF2aZmpJvcsB95BC+3nsZbmxScFPc/9xIaUaBQZUYV6gUlUCgoKGwJsoeBRiB7HXByS0486ZhzwrvCNHbeTb7Wm0ImVAgPj+w0urWcEFDCQQeabxjBsCHmJxPzYtu5D+5r5fK7RcNYEmKKRsdvO0pO1nIzWE+gkPXd6KyKFHyNdHkjdP0OoudcQZSULfK8RveiIHIohmz6psQJPg7GDJLJJbz+6v+EpKtDlC79v3/jm7gWn68IOfYCHbf7l9sqx2h9LBwlCz+/K058vvN3EOruxzvJf483Eh8iRm0aWZyocjI/J0LMrtH4Z2+KlfMHWbhw5jBhTAnPlVziPSRo31kketf8CYY9nODyCL7RfAYT1iJu3KTj1vYURlsfQ8p9FJPGAr7a5sPb9r9B9NDjeMvdjsuew4h6OmB6jiLa7MGVVi8tcxqDrsdwzX0KkcPP4uttGm5Ev79qexQPNvcaGlGgUFCoF5RAoaCgsCXIHggagWzIVatcdHmHkc78UrjK8xvcjVTfeBhWvSn0wOqwj2wRKNp3EAil0HsuBcv6Kfy9r8JM/RqjNW+VWdxgg4j7OXv+nbvTd5PsMp+l7eC3+TvhhbIRHDSBgslv4jnpazL6I3i9aYTCMWIGn/nsn4hEg7JlGp1m8oNKUkx/ROSd4Glr5Z3gahHZ1DRKo8A3XKfR39SGrKtVVAYxS5W8FGM0ztarwrEpUp9cbrRA/Zbyd9DZm6XtHMbLnuMi4WPRdQwvHunEaOm2fPkGpEHH+HXjJ9J5zInULBw6LkU6xpPpWZFI+K3xJQwe+zRea+4Q5+KlY2dRzszgavMTcA4/iUH3MzCWPYD4WObiQITD8gb+HT7VfQkvN+v4avsJlLK0DAtLdD8sF5bpzKDgzK7aDsWDzb2IRhQoVJlRhXpBCRQKCgpbguyhoFFYKbc5J0qPaoGoSDiYNrCmd8N2szbsI08P2dXppcKSKCcaDP8FHHNBeFVY6Q9XeypkFsS2nu3LQ/Pl7p+3i0xn7iB8YQhlMghl8x+GD8JaAoWsr/1Ciww+vnbZoyCVnIPXbyEQjMEfjKNYmBJGob2PhAozCbz66l/Tfl68J05wUs0V7Zick4NDjorWTKUahKcDY49+DL938huwaT7nd+Hjw8kWZctvliUTGE3fQYLWOZabxecPh5En4zvZ6saLnieQPORCgv7+vbZzIvxB1sd+ZTG/gExyBuN0rUYSdL7KwMun/hledZ9Cf9OjKGencLW9C0lXO4bdR+i8fXTf8tcTU4jQPaVoLNF9+n34tSy6tQRymY9E/pt3aflRape16Jzbje+Zori93KtoRIFClRlVqBeUQKGgoLBlyB4OGoFs3Fnmwl2RIhAYwc0JkCHUXxENuN0Oe1OwJ0c17EOEnZQAjUuL6nEkkz/A5HV6QC9UBBP2UmCvj1X90Da+cPaPEAgNC6N11fxd4AQdN59/ZMeEnbUgEyhky+83csJSPtYc7pEyP0ShuCTe2nv1CPKZWfl10oDM5uaR4WsqM0XX1ziNSdpvGieytkJ4oPFs0ji5wp4LzR247Hoa6fSiKMM7yl4+dFxYqJAtvxZZzMhlVhvAk9kZWLTOfOY2Xjn2OeQPP42U+wQGm08j7jqOa4+0Y8RzEgn3UTLKj61a/iDwWg50H1vAxPiSuH+NsCeL5wiS7g5ccZ2E5W7HVfcnYK9x30gWgULy18gb83RtD0ELDsKnl8X1nkotVo6/pcQJxfu5l9GIAoUqM6pQLyiBQkFBYcuQPSA0ClkU4LfRnPhxeOAn8OtxmKll0aDq3cBtd1KoyJBxqSfQpV2jdTr0exJnOuMYH61sFwsovJ1c5WNdASA7B58vSstX8lXsNh1nQZRE3e6cFFXKsFKgkC23L8ku8HRtcC6F6jXs069CD17Bma4rNG8GjkSk2Klzs1O0nUpeDRYZeCxOsGu/pJ0oF8rhANQ20foshg+1Ic5JFJNLcIxZkWemYM8Lg1a2/FqMGUsYo3U6dJxrj6ednkMqQevMziJC8yPNp5F0eTDR1IxXOrwoRn5Ghng7rriPIUZGeW2fB42cvPW19B28lfg+LrqOwWw9iQh7TbCI0/QEJh5QItfO3sL42CI0fxK+MF3jgTRMe4rGwCLShTvSZRQPLvc6GlGgUFCoF5RAoaCgsGXIHhIahWzg5Qv0oEsP0QljDsPX/g5ezRAx5bUlQtk4EuLADggVbHyJb+rfq12E1p2AT0thePBHyJcq86pvxLmsp7XOG0POqcEJBDlWf2ToV9I2O0Xh4WFy4tGydP52sRa1AoWs7X4mH2uHDL9s9l44h6+7gPDZEWHMBfw2CjWVXopF0LVzB0by/n72PGmMsvi2lrgyUabjwB4S0R8jcqgNMdcRWM0n8Ub6Niyan7JnkXUWhXghW34tCq8Jk5ajccleFGO5ZWPYuo13R76PIc9TGOzQaX0dKLjaMOD5OPLfBKLmHC61HEe/50mY7rZV/R5Ect6PP3z0tzDpbsZwUxtS7nZE27voOHWLHBKyZapk74pSYQY+PYVu31V88pMx+ruSLFjWXvHgshHQiAKFKjOqUC8ogUJBQeGhIHtYaASywc/f6fS8IAsWPv81nL3w9t021VwR61XfeBhyf/x2ltcd7n0TWugVBAID6A0XhEs6iyIi50B29bLrkeP1uVRpVQDZDbJAkivMim/Z/O1iFQdZoGByotKV07zeBILhEQSCEfgCFpz0L+7NzywJoaK2/V4nh3SkJdOZY5nb+HpzJ6ItT2H4UDOyLe2INLVjeGgG17OLsErAOLXjsBfZ8mtx3JlC1qocqySNOw4bYSP72/YvkTvkwdVHyMhuOYmcy41rnlO46u5EpjiH0Ru0rVEg29yBa66TItyj7Oyf5Jhb4UhyASOTwGB7AI67A5HmUyh4WsQ5s/l+Qcd2Mi0/RtVwHvYICoYSItdKT+g1jBfkOUgUDyYbCY0oUKgyowr1ghIoFBQUHgqyh4ZGoRAn7GVXeed9dHcPQ9P7V7XbybCPLD2oC2PI/CX0UByhvhHhScGJDy1zakvr44d7nx5DuCe56679emAMaWMHw2KWyeLEV2PvSecdVDq5aVy6/GOEgmkEQgMIBlP3clI4dO0W7wj3+JXLNRpHU1NIeE7hUsvHYTcfxxB99x9+Tsy7SQZssgDYqUUkE/Ll1+JobjmJJhnOgzRuLBqXb2SmkaQxerHNi0vNRzBMhvZL7qP4fOdL+K1nvwSDww1oGTa4U81PItZ8GpG2MzCXx/WodTBDEfiYJBN38E55DoOtZzDgOo5Xmo4j4T6C0sAPEEnRva9Ex8ihe4V9T3RgQcq0KuE92cwM3Y/zCPYOo4fuh+d7Ju5bh+LBZqOhEQUKBYV6QQkUCgoKDwXZg0PD0LmNHD0I85u8gL8MLRBBtx7F5BquxyvDPnJkhMjabYZpMiCN1Efw+6+h2zsAry+BcqHydlwPDt0VRrbivcHeF5yXwqslkDJ2L6Fc529ekk7fbuLll6XTDzKTySXk0jN03bwsRCrdP4BI7Nco0rXKVWGE50UDixScj+Vb0R9j+JAHRvMxpJufRL58b/51Dgmha52Fv9rlHsRi7nYlaS71NZAEvnv1/4OvnvgCrrR0IU6Gdd71KMZcrXj5sE/cIwL6EBy6b/C45FwLA66jyLra4dA2DScWRdnMojUPi487J/yUrHO/0qbjUioCE7k5fP3Rc0g1NWOgqQ0jnuMYau3ERH4JBh0XkUeFjx+1FcvSvbiaNJMrgXzqU99FpzcCf2gYXu+1+9aheLDZiGhEgUKVGVWoF5RAoaCg8NCQPUA0CrP0sMxGRqjvOzh3LgdfMAYntbYBV5ufgr0b2GCStXsg+SF+edluLQfNfwUffy6OnPNBpXpBTdvq+oq0zMp5G2HOmReGqhWTz99usugTDOx8+VP8438snX7QaTlTyGen4dWyCIaH6PoZgaZl8Pokl+68DcNchJ1pzPCDCRozr7hO4NXm44i6DsMcl7Qjw3fVtAeQK0LwW/s3+/8Kf+h+BpcPtSPrakW8+TRi7iakW34Dg21n8FvdXxT3gM6gUQnBovEYcbfBoGUc9g4gw7tcpjFgztExpvvDOuJEjpjeR2VhmYYFjNuzSIj725JIijnCYTgtT8Cm33926V8JD68otWUxgo8BH8MCkUsuc14VzhtSzM3id373j+gaHkAonEQpR9Or3kCKB5qNikYUKFSZUYV6QQkUCgoKDw3ZQ0Sj0DKXRMUMv16ArysJ3TeJfIaMhgc8DLORIvJT6FdEQr2UublY9zw9pPP35CgZNLn30UUP4j7dwNWB7wvPh5Xtq+srZGe2lOxwgtbT02PBp9m7kpsiEfupdPp2Ey+8IJ1+kMkeQXwNpa1p+ANpurZidO1cwrlz30Uk8rfI03xLIlAUNul1sNvMl4CvtPUi7n4UI+6nMEaGsKzdWjTXEBNNGhvs6TDgfgIXDx1HvrkdMTKmCy4PXndmUIx/gLGRv8NzF0oVgTJ4DdnCPOI5MsJp+QHenpaPY6j5NCyaVjBmUcwuiUSmsvUxR81bNJ9+23T/sfZXXoXXk+/R/XMOw61nYDd3wG45imHPo0i4jyE//BPE2KukTMfJnqP9XxDiRDY9J67bEh8/6qNUmEYonIPmG4JXy8BKTiOnBIoDz0ZGIwoUqsyoQr2gBAoFBYWHhuxBolHoGGQc0IPxeHkJfeEkvN7r9LA8i1RqY8bPGe+L0LQhMvxNlPnBm/qStZOR37amEj9HT9838eyZr8MXjglvDsukfpYFjJX06w6CvUPQ9JR0/oOo6TZCPf3I0zp2ojJJlbncEsJhWzpvu4n//r+XTj/IzOUXMErXV7k4DSP5K3h9IwiGovQ9hII491NI5+8JVTYZi3ztVpPH7kXymPj91vNIu1vgbNJzqUyG8FDsNiIrxucfp36Kl10nMdB0CtlDh5BtaseX2sL4buyv8bXjF+BMABPZWzjb+ZW74gSHJ5S5Oggdx4jnBAabOnDZ/SRi1N9odhGFzCLMdbw4CtasONZJasM5GIpcTpj6lLVtVL4z+D8j2vIMEu5Hl8WJo0L0LdA5jLHHRGYeZbr/1IoTQrCh76x9h+6neTrWQ9DDV6D7S0hGp4XHGt8zZetT3P9sdDSiQKGgUC8ogUJBQWFbIHugaBRymAbnkwgFyoIWGQyZTcSNx+O/hC8YFaEY3d0xjJYAK70BgaMI5LNTeK7rEhmOg7AMfvNYmZdfx8BhsvHPJUW5tGg14/1myMlAt5rbYqPMbeQYbAMfeeQR6fQDTzb+6BzzW+lk8gfQtNcQDLCXUILO/xX6+00y+Ohaz86hSGOAK8pw4tidFK4elu+OTeHm0A+l89Zi0qExQvs3QcdivMbAHW4+jv7mJ9HvaoF1qAkDrlZxPEap7UVuZ90WxnLYP3yfOFGyF0T+ibjnOAq0bLntcVG9ho1n25i7m0dBxpw5jwSNV5GAs1jxICjxMZe0bWRmW5+A3fbUKnGCRYh0dgl2akYuTqTvwO93KuJED3tPGCJcic8J56uwndviOpWtU3H/cj+gEQUKVWZUoV5QAoWCgsK2QPZQ0Shkd3iOb2bvCfaiYG8KFiyEd4Wk/VrksA1/DxmAgUHoQYuMwLS0XS17z70OXTPpoTwlqnak+e328ry7FRjWIL9R5CSYXFZUNv9B1Hsq1Um2uzJJlRxKEu61lEFRJ7L4xIkIOc6/RMYfT9N8nHAwJvKtcOlGFuTYQGRBLEvzeSyUx1b3tVe4WTf/Eh0DcX07d1DOzuF1+v3t6N8i2XQENzwexA61Y8R9GI77MSSa2jBOhvBI7H1k7fdRsmdx5sxVhPxXENBNFGlssucEixMxz/FKqInncRSNKSFkFIq0vnXEhiIdWxYn3rE+xCtPfBkvn/hdkUxS1nY/cC1xgj1h7PTCmuKEzoIQUdNLKBVmkaNzaCY438eCaC9bl+L+5H5CIwoUqsyoQr2gBAoFBYVtgezholHIhpkZp+/Me/B2X4LmzQoX7LXCLB7EfG6WDMEBaNoIerhsqF64bz6XHzRTld9ccYHfZuuBiPjbNBZRKt1ruxFqgSHhTbFKqNjgPrDnhx5I7Iw3Be2nVy/u+Ft5PPqodPpBJwsOXJ3CiN8znNkgNFI/gx5OwB+KCG+cWOJ9jI5zgkJqQ5TlQWk0pqOzKCffg0W/izQOrj7+WZjNxxH3nILT+iy+2Hwa14tLuOp+ApGmNqQ9x5FnEaE4J/bfHy7R2BxCwG8jl5+/K07kyLiuihOc4JHDNEzqv2CtnXiUQ6pMMsgLtPy147+NKC1f8hzBt6x9Xip3hTghvLb4u7AIy1xYU5zg3zyNc3SwQJHJLO35HCmK28v9hkYUKBQU6gUlUCgoKGwLZA8YjcTRMhka+VtCoPD6LZTob67wwQaFrP1GGB35GSLD/0DGfz80v4FQyLk3Pzsn3O81X8V74kxn/7157HZf/b0JVoWKjDmP1LKByW/GHTIQOBlobVtrhQjCLuzVkqYPCi/ZDPn4dXaVhBfFVgWfjRKRisijeD8dMvJWTuOQhBc+/Tb8oSzOnk8i3BNHMJhHKHBTJGJlwzLtTK9armHIHiF0vV2Pfh/X4z/Eqy2diLpOIek+huEOL77aGsZNapO3FjDS0g7T04HBQ61CoHEK0/B2WQj2GTQmyFB26HhQnzfzd+4TJ2Lux4U4wSEd6+WeKdGxTGQXUJgA3ran4LQdx5D7BK65j0vb7zfeJ07QOWHvCb7HWAk6ppPriBN0TIWHBYfosEixol/F/cv9iEYUKFSZUYV6QQkUCgoK2wbZg0ajkMvb+QOTCPXG6SG5/657fMZ5uHKMhfKcyElxPvyn1HcSmlap5z9WoIf19M/QrV0RNf41LSlyUqxcfjMs8wM9bTeHfbBHhLdnFJywjw2oBM2PW/dXFZAlGmRvCq83L0JeitskVLCBogevwDR3trQlVC6KDTPP1wq/2Tan0dU1Aq8vid5zwwiFE9B8MboeS8gXV+cQ4bfY7JGxcvpeYj45hyhdu8X8ApKPNOHl5o8h7erAiPskbgz9A4Zov0fNn9G4WEJ6uV2i5SlE3Y8h2nICfl+2kgMhkBXiBHs8cdtvF6lf1zObEie41CjPH7WnxRjsd7VioPlJWv5YpVrQivbMgnFbeGTI5jUqWZxgwYHvBRy6xmE3fGzPP/9N9J3LrilOcBgI56qQ9am4P7lf0YgChSozqlAvCIHie9/7nhIoFBQUHhqyh41G4jgZK3o4BR8ZaxP8Zo+MhO16c8eJOK0Y9WcswOcfEeEYwdAY+nqK6NZehNdbRir1C+mym2EqdguF1AfwhSx64B9AZ3ACaTIOvkPGZmmc17+E+LL3RMKegyGSgVbeENcyGLaEYbAdbtXirSkZXd6unMiHIGuzXcTv/750uuJqFuh6n2BPIboOzNSvoQcL8GsZMsxfhKa/jHjkfSRTU3fbc5iDMMb3cBJNpmHN4c3B/4iU51GkXG34Usdn8dUTX8CNLBm75i1M0H5zzohU/La4xnmMc2WTRPMxxF1HEXd3oPvsDRqvPxGeJilrHg6NGcPVLkSMVMuJTYkT3I7bDx4+KdaRoP5ZnODpEzS9dhn20OBkm1yitLDsubEfyPcRe9mri4XPUnEKZzojCIQS0LQI9N6Ru+IEixhKnDiY3M9oRIFClRlVqBeUQKGgoLBtkD1wNBLLpTs4e86GX8+IN8z8po8NBc5RIWu/FbK7Mpd/7PQOo9s3iEDAwNlwUaxHxLOP08P8QzyUv5m9BYMMgCStI9pyDJargwyq42RcdcByt8H0fBy5ppN4sflREQefICPNpn19Y0U/7N6v+wyROJQNqYf1JGH29iWRMnbWuOWKHvjX/1o6T3E12dWeK0/wG2329GERgnNTBAIWnfsIXadxEerEIUmc0JFzM4jkrXtUpHjpE1dQ9LTjsutxXDrUAtt9DG9kpvHuGDBI256m/UuYNMYy82KcVZM0Foof0bgvwG4+gWueZ3HNdRwT/f9JJNfkY/TVk1+hcdSBJPXNYUsFo1IqVLYNVdaKE+xxwZ4XSffJu+LEWHoBBrfNVEJwIlYlx0UmOQOLxu+QAYzT+lf222g0jfnKdZZaRC4zh96zbyJ8PoVgTwSaFqPfaZw9/21kOccHtVfixMHkfkcjChQKCvWCEigUFBS2FbIHj4YhPRB3e8vQ9GFkl8uMCnf2ZQNiu5gaASauL8Hn+7Z4SA8G2b15BGPlGeTJSOSHdH5Aly27EcaJ0ZYnYbS4EXO14hst3RjyPAPL48I3Wk/DcR9GyuNBmoz5VNMRlFvbad13YLIBuuxdwWSjVSNDtTdcqlQ1IaOudj2bIXtRcH96gI7tDhsequzoJkjnIpmqXONVIY5DHs5feIfGQT96eg3o2gRKmSkk44uiDYeGiGoMLFxU+9kDjDQdxqD7pPB0cJo86G86AZsM4wQZyEkyejlUgytp2NS2VpzgcAJ+e+8NxBD1PAHD/QTihw4j8kgHMpFpFJ0ZmDSerOY2XPY8LcQFkw1uOg6y7WDKxAnOXRGl3yvFCYeOJbOQW8AoG+nUb5nG/4136dtewCCNPdk6GoGihDMdC052WczPQPcVEDw3BK/vFeh6Cl7NQbE0hTK1q+a+UeLEweNBQCMKFKrMqEK9oAQKBQWFbYXs4aORODz8Y3povox4/JfS+dvF5DAQfv41+PU4PvWZd6D7S9BDA/QdRU/gO/fFYMuWX4/Z5G1cch9D2t2C3z3sJSOn0ocxDnRzWMn5ATxxNoIbxq9wrVlD4hEXEq7DuOLqwGjx3pvxqiDhWN9HQB9CLl1JmrhVoYJd6VnwyKZvSecr1odsRNoc9187nQxKzgngpfPe6X0V4VBBVPqIJX92t9SnZctzKNSDhvsoEi1PI+l6FFdP/yFSy0Z9nsaPRdcdi2JFa168wZeJE9X8BxO52xhpeRaveFpgeY7jZvwjpNzLQp/rCeRKdB3Hb6M0ev/6a8nreJXabUac4N88LUHbzYb6H3g0vNjsx1vX/h72skgiW9depmXNiTHPnhHl4gy6tRxxCMFQXOTJ6Tv3NrKZmbsJfEU4HYsZ+cb3GlHcGA8SGlGgUGVGFeoFJVAoKChsK2QPIY3EtAH49EEhFPDbZVmb7SBX8OjuTkMPD9N6PhJvEB1atx60KjHZZDDVxmNv9o1ixN0B+5EmvBmfwp/G/uHu9DStp0zG1UjqFrp9Jq1nBDnjI+TJmCiPURsy8K6wkVBtz2/Lad1sxIbISBWVHTILws1/s1U5+K1ymYwv9qLgN/CyNttFPPmkdLqinCk6/6um03mOJ78Pr48TRiYQDI8gEIyJKh9l9qiha4Cvj1XL7TKtmxDCRMJ9DMXsPIqT9+aNp6fh0DXHIR05uoZ5HLHot1KcqI63gr0ockB8Z+jfYsT1JIymDgy4TsByHUMueRslWsaqGR8ryV4VKVofj+fNihM8j9vcIAPdcjdjoOVjGDdmME7jslqVp2FI28v3rbESkM9OwUv3umA4CX+Ar6G4aFPML6JIx4kTFFcFo1yNQKq4v3nQ0IgChYJCvaAECgUFhW2H7GGkkciVNrq8L6O07HK8UwyFJ8gwGkI89TfiralJD/WWyQ/008JYqr7VrQoVm3F9Ljh3EPOcuPv3pPnRffNZkGBXcl4Xe27YZCjkzHlYo8Crbb772jJLhSUR5uEPpKHrMSFUsECRSm7Ow4OFDn+I92nnvShYEZFNV9wYOQ/L+Dhw7tx30dP3TXi1OPy9/QiH83jhhT8WITt5vl7pnMqW3w1y6MbNyPcx4HkG4+kZjNC2RFYY8ylzVnhRPEic4Gk8jwUIFiKGPB2w3ccx4G7D6+lpGDyfxkFt37VkIa+UmRMJYS8/8zWMuDuk4kTO5lwTcnGC81Nwe7P5MXz5yd/DWBkw6BiPUZvr6Q+l691rrOSbWEIi+f/Gp57/PyPcOwZN5xLIA/Dpw/e3z87BSC0I8dJc9vRS3P88iGhEgUKVGVWoF5RAoaCgsO2QPZA0EjV/BOGelEiGt1NviEtkeIRC7yDcl0JnZ164OZtW5e2hTUaUnaR2tP5a9/OqAbXRsI+Rlk9gyH1KOq9K3j9+G855N3xaShgXbHCaZFyVjNXtufQqiwvsBRGNfbBq/oPIb0s5i3+XNwIzJW+zXcR/9V9JpytunEZqDlaSzll2AUMD3xdu+lyGN9iTQMaZQnLkp+JaNszdD/fgUpwsrE0Qb47TdUzjYyzxK2nbleJEVQBcKU5URUBOMvv1R9phu9vwpjEFe4zm03RZ38x8egEp6iOXnkXCfVTkwTBdj2LEffx+ccKZv0+cYLGiVpxgQYO9LoY9p/FWdgpDxhxuWu9t2lupXrSsO8IzgkvVdnZdRjA8hEA4ikBoGIFgRLoMV0ph8VM2T3H/8aCiEQUKVWZUoV5QAoWCgsK2Q/ZQ0kgskqHh9ydQyMwJY51zLuyEUGHb79GD/CVoWlS8jWbjvWoEiSSEywYVG1BVoaJqTLFLNIsFK/us5Q3a7kTzE9J5tWRBhPtj45O9R0aLQIIMPsdNBlpN0swqK9vGoRppUelDxI6vaLMei3Qs+W08h3vI5m8n8cor0umKGyeH8wjhis6bmZhGV7cFTb8oQj78wQGUC/PCMJUtu5MsZxYwZNP4oG2zybhP0XUra1cVH1aJE9pVEa6yUpy4YS9gxHMMlzwnMdj8qPDSWE8gEJVNaBsK6WlYng4Mu44j6X4MX3r8y8jQ+MklZ6WeEyvFCfacYHGCQ0P4PsD7U0ovimVl692LTFtzIhyIQ4HCPXF0+66is+uGCJuTtVc8WDzIaESBQpUZVagXlEChoKCwI5A9nDQSte4U+s5awjDLkRHBRvh2CBVcZjS/7IIeCk7A6x1BNPrzyjxOPkjGUG17Npiq8dkr3/oKo4v6W7lMlezqfr24BNvlhj0ub1NL254X3g3+0FXowQIK9HfU8xRGC/L2LFSMFpaE+7Zs/lrk/fnMZ/8ExbFb4vjK2mwX8Y//MfBXfyWdp7hxsidFjq9FuqbGx2aE90xndz803wB8mi08LCZvrF6Oq9KsnLadnEjP0XiaFeEXsvksXjhk/IvrjNpUx1A4OFgpK8rjmtstixM8xuPuk0i7DiPn8iAe+TWsZCU5rIx5rnwTm8LNy/8GI67H0N/SiYS7XWzPzeucKHNJCJ52ntrVihPO/LriBCfY5LAH2Tr3JO0lERKn+ZIix4Tmo/tUIIFE7EOY9v3hZYoHkwcdjShQKCjUC0qgUFBQ2BHIHlAaiaHQN8lIvwZdf1PkW2APB04auB1CxRgZNdeXBYNAYID6/TlSDwh3YAOKDXs2smrDPlggYAMonZOHfUSJbCxZnhY4awgNK8lvzAMBC8FgSlRsuNz2MWk7JosUqeSH0PQUGXq3pW1kZNGHE+ZxycqdLjuKT31KOl1x4xTGMhnWnNy1yBUqRPLDeZH8sNv3Err1r9F4GadzeuPuMlzpIp2dQ7qmn51geg3PCTb+uRQqlwo2OGTKub0sTvRD89qiCgmHFrCXlBAnWBRI30He5Ub/I234rvH3iC6LiVKSQV6wbuOK+xnEHnEh6jmGfs+TMOjYTGZnYdOyY3R9WzSG2DuqbNzZkOdEVZxYr4zpbpOFnrXueRN0nh1zGn19jrhn6P4I/EFDiJ2OvXbODsWDQ4XGFChUmVGFekEJFAoKCjsC2UNKI9GMk/GQZnflrHjo5vKYd4UKYlWoWLncWmQ38OKyIWUbU2TITeK5rmF0dg/iLD3Ym7SulcvIWA37qBUq+G2lY94S27ZWuMUrbb14sT2EzBrG3CpS/6nEz6FpcXz5WA++fliXt1smrzfck8TkxMZyEYyNAV49suwdsrPhATi1fh4OxY2Rc03wNxv8Vc+XXOY2jQ+brsEhnOm8hC7v5Uobut753HJSVLH8GtflTjKdZe+i2zRmKlU1ep8virFy5swICiW+7iqJGdkzhEM4rtPY6Pecwqvu07js7kAmsXZSSq6EY9N3wtUBx3MUqbbTMJqaYdB6JunYxGn/y8vim8n7npiFw7kWGlCc4HsBb1s6vUjHbPa+eRz285nP/GnlHqnFEAj3Q9OjotRqo+TNUNxZKlTQiAKFKjOqUC8ogUJBQWHHIHtYaSSyoeAYS0ibs3erV1SFCvam4DZCEMg/WFzgN7jp9Lww7ApETc/iuc6rCIe+g+Gh/yzyPsiWk5Hf9tbmp+jpe5sMrwHo/iJ8wcRdb4+Vy6VcR8loWsLwsqG5EfLbZV/XEF52PY4U76ukTS3TXIFEklxTRjM1g0AgKX4XdjhJHp57TjpdcXNko5M9bGxr8a4YNjz4SxSzH8DbFUd390WRbNUfeBcZrspgk8Ht7H4CzSptk4x+Gsfx2Hs0PqLiehst0DVKY5DLjuaoDVf4YC8PMzGPpLsZQ03HkF7neuQcKmyYX/KcwVDzaaTc7fjK45+nZU8i1vKkSNzJAgUn2eXQDs4VU+DlzDsoWHcaSpzg8V/1gMnmKqIDV+jgv3PpJXR1j9B9MS6qc2i+q3R/HEKa9p0TX9b2o3jwqHA/GlGgUFCoF5RAoaCgsGOQPbQ0Gi2HHsrJaCjQg3m1ekVVqLgb9pGZE2+MhWfDOhQeFGwMEX3dOXi1fvSG3sDEWCXGf7MP9dX8FPyGc5L64LwR/kAUPv+QyBUgDMgVQkWhyYOJ3MZDMars6/oqhps6Khn3aX9lbaosbkIA8W4yf8VWSScNeO016TzFjZOvKb7mat+Om/YdMW00P4tObxSa/yp8vigSif+MaOSHMKJ0vYjyuff3tVtkEULXK7kRwuEi0saCEAxYZDBofzh3wiht24D7OFKu4/ij6P8i7YeZN+Yw6rxPbTuQaWqF4TqCURp7Y7R/w80nYHmOI+tqRW7wr0VyzSIZ+Gzkj3LOGBqTcVofi3ENIU7Q/YrFCT7XHKLC32lrHvH4z+l++DP4wtfQ02Ohy/sKzp5N48Lzb1eWrdN5Vtw7VFiNRhQoVJlRhXpBCRQKCgo7BtmDS6PScuaFqzgb/qJ6xQqhQjzEE9nYYOFA1gcLGBznzm91L5x7Db7QCDKZKeFVkWXDf4tvHdmbgg1HNoAymQ+pn3khVHCSurtCxXLbK2Q8RFueEm+Va/t4ENl4ingexVtX/nJbc0bYxkfwehPSedtNHDkina64OaaSqwUqkz0SiI41i7PnCujW4uIa7NaTNE7SdL0tidwrO50UVcZAwKBtiZEhPSi2gcUSNrgNGq9FexaF1Ad46amvCdEg4jou7YNp0Pi8/EgL4q5TMN2t6G99Dvay55NB35HmUxh0dyDd+jSuPXJYCCNpGjeJ6AxS5Urp0oI5jQStI07tasUJ9qp4kDhRYI8UyfSdoPDOyi+Jewl7y/C9bXJyAc915cR49esW9NCASKgb8FeSpLLw8iCRVnH/U0GORhQoVJlRhXpBCRQKCgo7BtnDSyOTE0JWS2yuFCpYGLBTgGUuVN4wpytVAVb2kcstwTIALTAqksl5vYVKAj+axyKFtaL9Rsnr4mR8HEYiSj5mlmi7EsKbgsM+2J09W6gYOA4ZG9daTq/q40FkQyrufhRZrsxgPrzbfjUnh7d7YNW8nSIiEel0xYenlZ4WHkIc2mAmfkpGbI7GxyACoWF0+9IYHPxPyObm4Zirl60V0baTXm+Urq8YbUMC5eK0SPLJxnYmNYsEjYnX89NibMRbP44h9wlcbtPwqkQojNE+GZ7jSHvaEW9qxpfaelFITN3XJl8GLjWfwStNrbjS0olCk5v+Po1scgpDpz6H64V5pA9/QoyhzYoTVg74fMdvYzR2fw6InSAnw7wb1kHbNkr7NTD0V/CFLLpnDcDni9MxjeNM5zXowRysWOW+trIfxYNHhbXRiAKFKjOqUC8ogUJBQWFHIXuIaXTWChWVsI9loYJLcxZuoZiv5IeoChW1y9rpBWQsQPcVRILLZPJHMIxtNDp4ncTaN9VVoSJtzYjM+naJti8zJ9763rfsA8j9smHF8fOGZP5myW9ceTu9Wl4YtbI22038F/+FdLri9pBzO7BI56Q47GkJXVpW5H4I9iSgh1NIO3+/ynsnl6+EIe2Ekev1xtDtu4YyiwPW8lhM0XgrASW6/jjZ5UXPaYw0P4Nk68eERwVX33BS9xLgTo78LeKuI0i3nYbVfJzGd0WErM6v8vXMNEYisygaH+JSqxc2tTUOP4VXW59FlDjU+sktiROcnNLwtMFwufDKsc/itU2EUG2WuSKdN9omziPBYk4hewd+fxHPdr5M95BrIkwmGBhHMv4zDF37B1pm5l4iVMUDTYX10YgChYJCvaAECgUFhR2F7EFmv7AqVLA3BQsV4Z4JaPoQnuu+KipscAJL4SpNBgjHoVeXY6M8Fvu+SCp3tvefw06SIVDc3kSClZAP2j76rk7r7onR9mXw2fNviG0bza1OpPkgVr0o2LBiLw1Zm02R+uAqHj69KJ+/A8QXvyidrvjwtNNzwhNIlNOk635ikq/tJfjpugv3ZMAJFUM9NgwuuUntLXtWePzwdcqG+HaGgHAoQs/ZJCIjPxBJaG1zVghhLK5l7TkMJBYw6GKviMcw4nlSVNvgHBNsmL9B43Ey+Qtc8TyDgUfcSDY/iYGmDuFdUFonB8sQ7XvOmhElfeOudnyxVUO05Rlcdj29JXGCq4LEPB1Iep5FtqUDscOnRUUSWduNsOq1JCPnEuFQNj5vYyW+b70Pny9HY/MKfMGY8Pji85hLT6PA9zz22OL7gKQvxYNFhQejEQUKVWZUoV5QAoWCgsKOQvYws99YFSrYcOBynz69LMoZsocECxXs1TDKRgU9zLMbPOeaKBWWqE0S3VpOeDXI3shuB5OJ+0t4dmkxfL77q3jpUDtGyFgpbXK92+1Fwf0V6XgEw0NIS1z/d4Job5dOV9weihwl2TmRk4IrfnBulHzxDlLJD9HVNQRNG4Rh/hxj2UWUyBDmRJJ8DfAY2C6BIhjKItQbR7d/kMbAB+J65eSuHCpRSs+Lcrtvff0vcJErdrSfwnXzAyGsFMw52MYcXrOnEPGcQNrdDqv5JF55dgBlYwr2A7aPxcjIGDDpzAmvjcH2bkwcOiT62aw4wYy5jyHe8jiSh55AuvVJIeLI2m2EvG0r7wdVGgbdv+hc5DJT1G4Gv/27314uYxyBFrxK96p8Jc9E4ZdCkM3ReeXzJutL8WBRYWNoRIFClRlVqBeUQKGgoLDjkD3U7EeySMGGGbuwJyIfLT/gV4SK0fwM0s6vkUrcgpMiQyx7B53efvhDDszE9I66Scvemg43ncan/9s/QF/PZXz2c68J42Vlm7VY9aIY43CVbfCisO15eP15nD//Hen8nSACAel0xe0hixOcb6L2ujLN2/B2D0HT+9HVFYGvuyDewI+N03gokNFORm+WjPqHDfcp5hcRCDpkWA+i79y7oj/OM8F5U4pkXJfzS4hRO05y2e9qx1ef+gpNn4NN7VikGKPlE+4ODHieQJSv8/w8SuVK7hbZ+qrkfRViJe1TlMb45dYzKLk9GPI8hdfTUygaxE2KEzHP8QppOzPUp6zdRsjbxNvHYVWrxFCablhTopxyb/BdBML9dI4GEAoZosqOHsjS/Wpa5NgR5VJ5P1nkqe1D8cBRYXNoRIFCQaFeUAKFgoLCjkP2cLOfyfkduFqHyGhPxkBVqAiFE+g9XxClGG37Z/BqUejBKxgt3xJu5bv90B/1HIM/XCBj5DIZdDFk7I2JDdvtRZEhQ/bcue8i1FOAFZfM3yHij/9YOl3x4cmGMAtPK6eXiwsIhyahBQbIEB6pvKHX30LP868LEYCvLctcQo4M6pXLboRs/PuCNK78RN2slAK2yChPLwiPjQj9zUle4+4TGHEfRcHdjNFMRRQp0HonjfcRdx3FSPMpJFs6EDXn8I71IcrO+nliquIEj3kuSZxwH8PV5icw4DouKofEuHKIfQcmzdu0OEG/S/bmw7GqrIoTLABxfhCxrcvHl8sGc5nU1yaBcLBExyyJbp8Jnz6MT3/mj3Hhwndhpn4tjh+fExY37F2sJqK4N6mweTSiQKHKjCrUC0qgUFBQ2HHIHnAOAkU8Nz3QizwU6TsiMWYgnIPmv0oGWgRnOvlN5VDFWMiQ4UAGlKyfnWLCfRxRdwfyZLB85jP/VxGWEgymcO75b0nbV8miRIqMru30osjTcQqGosK4Y+NW1ma7+cgjj0inK+4cOb8BG8je7jRd+za82jB8vigC+gDGSvMwOcyHx4yzeYO8MAr0D/4bdHZdgc8/grR9Wxjg+ew8XVfzIvTEout2fOBH6Hc/gaT7MF75b16Gw94eND1vLmGExoThbsWA5wgiqUUhXCRoe2Xrq3K1OHEUw55H4biPYKj5tPDW4IScwotjAyEsK8UJznsha7cRWumlu+IEh88whacKTSvT8eDwG12fFMJEMJCh8xFHoKeSD2astIgyL0NtOQyNw0t2KhRNsXGosDU0okChyowq1AtKoFBQUNgVyB50DgK5/CdX8hDx9WQMcI6KYvkOzNx76NZG4CcjrZT9lXjTy0IFv0WW9bNTZC8Kjifn35xUk+P0+e2pT4+s+xb7pvUevuL5JBwyvLbDi8LMLqInMAor9aEIBZC1UdwfZJHCMqbJ+J9BNPr38HptcPnK7q4syoU5IeyxV82WPIrsGQT06yLUqlSsTEuZs0KEYLGCBYe3rvwlDPdxkcSSPS7iJieIpG8DeMN6H4OHTyJByxUmyJhncWN5fMjIRv6oPb1KnGCyFwXnvBila5vzWli0DlkftdxecWIBhjOLbH5BJCItlmgafbOXStb6OXSfhWDYEKKkpl2j+xGNP/P+0qlGfBE5+mZvGK7sUTtP8eBRYetoRIFClRlVqBeUQKGgoLArkD3sHCRWhQr2lEiTIcRu1Zp2BZp+BcFATJQB5eRzLFRw/L6sj51grRdFdRoLJd6uUZG9XwvQdkmEiuvpD8loAUbcj2LcvPVwXhR0TPjbH7AQCCTJKJoXb3lXtdsBwuORTlfcWbK3EF/rbNjnczPwaXnhRaFpCWTyc0gnK14Umx0Lo9Se87kUlsWJKsfT07S+SmjCa8ZHGGx5Cl9qPoPXSou0njkywpcwmafrmcbm5MB/FKJDIrsgclbU9lPLQpm23ZiGRYb/anHiqJjGY6mQWRTlV2V91HI7xYk0bXuZ7jFc1pjvK5wXJxr7ALn8PHQ9Ba/3GgLhKLr1KPrOvQ0j8T5xjTAWGtuFXbwnKe5NKjwcGlGgUFCoF5RAoaCgsCuQPfAcRNr87dzBjQmg2xuFHhiEk5qDX4+TgR6FL5gQBgXng2D3a1kf281I89G7XhS1LJfmyKhbqOQJCAytms+0I9OwR34F09q6QFEsLYmKACUyTM+dy0nb7CTx6qvS6Yo7S85rwMavRddeLnMbZ37zIs72XYTP55BBPCOMavaiYM8e2fJrsiBvb7BISEY/Cwv2wN/Suqn/zB2krUVahuYZcxgv0XWYW0Sc5pXWEclYPCjas8iNUl+pRQy4H1slTrD4wqEfvE5ZH7Xk/rZLnOCyveyxlUzMi9AyvtecO/82guG/gObj5JeWuO+wOFEuz4qxx8KFrC9FRabCw6MRBQpVZlShXlAChYKCwq5B9uBzEMmZ8NMpINQzBE2LoZibFYYRz9P1hBAqurUsGWnTwq1aVAepWX67WfWiSK/zltSnj9C2GVJvigRvOxmaOXbNXzFvo2SPiWR8EZo+jERM3manCLdbOl1xZ5ln7wIypNkThz0lhof+HV1nRej+IfT25vBPP/tnIuTISctDfrhcr2z6eswad5AigzxJ65ws3L4bnsSCACfnLNP3KPV7w/pw1bJVvsXVODhsi677ZHIJidYTSLo6wIljNytOFC0a49RmpTjBuSK4oohsGSslLxXKHM3OwKR7C5cPTqV+iLNnX4ffn0W3bxCh3ksirEMPcGLSFEaL1CZB2ykZ04qKVSpsDxpRoFBlRhXqBSVQKCgo7BpkDz8HkYYxK5LPhXtSotoAl/BbmXxO8w3BH4yTIVEQHhVs7Gy3UMFJ+9iQ4t9reVFUKYwmZ2ldoYLfKK+cthmK0BLvFUSjfyOdv5PEpz8tna64s2RDWhjxRBbusrkPoGkRkZPCq10jI3quEvq0wlgXJUzzSyKfQu30B9EY43CPGSRo/KU4IefydIfGlk3rYMEkTuurXaaWaTLqi2Xg3SSPSeAbrtOINnUg62oVeS3MUo048YBt4+SbLAoOtX7iPnGC82Lw/FRqcVVlnaw5LSqBvLYihEXMo/Ecpe3ivBldnRa6tUH09KaE1wQn5vV2x+DtHKPjmoKVXBDjzTZW96OoyFTYXjSiQKGgUC8IgYIHghIoFBQUdhqyh6CDSo6/N4wfifCJWHQWNhlL6dzq8n3BUBwXXsgjm75FrBg+7BK/st3DkDP0x1xHhUG1nhcFUwgVDwj72CqTZDQFg3l0dXEFBnmbnSJX9MC/+lfSeYo7Sxa7hLFsLYrStZ1eo1JVIjwETX8JZ3sLyBVmYS4LYCxYcE4EkezxAderjElarlgjTlTpWLNi3srpVZZzsyiT8f+aNY/fPv5FFD2PwnA/jrFHP4bfO/kNEb7F4SglTkRJ40TWR5WGAZi0zyl3O8zm4xhyHRdji+dxzgouTcq/x2pKeqaJXCLVZCEitYiSPXN3nqg0kqKxmZ3DCPU37P4kvNqr6O6+jG4th84uE3by1yjnafkEe23Miso51eUVFWupsP1oRIFClRlVqBeUQKGgoLBrkD0IHVSyQTZWnhUeCWe8KTKOyLhx7hcobIcMpvgiYon3oQeGielKfgqaly9tT0nSon0HZTZ6yMCJuzpWeVFwBv/av2spvCm2WahgAzXQMySMNNn8nSR+8zel0xV3lvnSvPA6yBcWBSdHOQ/EAhnkHwmhQvNdJWM7IbyMOFeFqCqR5JAMHjMLsJeTX+4kjRytO7eEG2Ug1tyBeJMbwy2tuOx6WpTffJP2YZS2bzQzv+6YYZo8xlK3kXB3CDquw+JvnjfO+TNSs8I7g9dZpP0rF4BvmXMYo2mTtH4OLzESd5B16N5Af9+IL8GJT2GU2hkuD0ZczfhKeyd8oTfo+LyPbGYaVnIGjkHHNV8RJDkR7crtUlRkKuwMGlGgUGVGFeoFJVAoKCjsKmQPRAeRXJ6Tq3r4QzHh0s5vXFmQWBkPzgns2JsgW3yfjLXYXaHCMciQySzAlLwJ3ixZnEhEbpFxc1h4UkSan7o3z5gXHhOOde9tbZXVN74+X3TNsI/Nkqsp+PyXMFqih6MtvB1XbFCS8c1jgJNWpiL3pgeDbwqRwh+gcaIPk3E+hfExMq4zt1DksI/MkvCs2Eo+io1yLLso8qtE3W4Yhz+JWMszGHQdwVdPfAF/nPopjcVZOOYcCva82AdOxinrh5mm8WpQmxFXB15yn8bLRA7pEJ4S5i8wUa54eAxaQIr2icNOxu0ZFGgdUfpdvE7joggUkjOYoHtDOfchQmdM9LZ/DDGPG7G2TyDbdhTXrXuiDYsZPJbYu4NDZdKWEicU5VTYOTSiQKHKjCrUC0qgUFBQ2FXIHooOLMlQCYcSIoxDlNUkQ4XLL9a2qbqKcwI/DgtJO9NCqPCHIhgtkuFBy/CbZS5jWrvcZsilFNP2FF44NYJh11EMNJ/GSPNRkTyT5/PbbRYxOPzDoXWtXL427OPVV/9a5AdY2WYz9HpTlaoCD1O6dIvEkSPS6Yo7TyF4LZecrdJKABMloEuLIHQ+gt7zMYRCBjQ9K8qT8nXPng2cZPNhKsmsxYgJpOjbcLch4n4MI4facdlVGRfvjgExHjvZBeHNIJZZR1TjkJRyeg79rg5cojGWbnlMhHJMTgBjFvWRmsEgrc8eBb5J0z7b/rsoGlNI3mAhAhjP/Rz9rZ/AV47/Hl7p+BwG3MdgPeLBNdfjKLd20LYdw2DTSeSW7xl3mZ27m29mZS4PRcUqFXYWjShQKCjUC0qgUFBQ2FXIHowOEmtLhxbJ8PJ2X0XfWVP8vVbeBQ794HKLwvAgA46FCk3PQ/NdRpd3SLx9ZuODPTK2KlRYBhkvqTtIkRHGQoRN6+LKHlHPMUQ8JzCaeE+IGJxc0FgRBlJLFipKZHTx9sjmr8e7cftkUAUClvjNCQlr2+wGEY1KpyvuLNdKAsueErbzc/hDebzwmRvCm4KrUQQCBZQLc8jQ9Wgkqe1Kw/whOcZG/ShdDjQGos2Pw/A8hv9u6H9FisaYZS8iQeOOS6VyaAeHXhXXWT+LKGXrFi43P4uh5idw3ePG4JO/haFTn8NXaczZ7na8SuPt/xX/n/DlFi9sVzvGm9ow0vQYYu6n8OJjzyHRdAIjLg9STR4kWk5isqkJziEP9fkcIs0ajOZjsNLyY2gYS6u8sxQVq1TYeTSiQKHKjCrUC0qgUFBQ2HXIHpAOCjkxnVXjft3dHREiRbYmGd5a2f/TXHIxs+ydkFkgo2ca/l4T3V4D2fSdhxIqstw+O4dXXCcQaz4tPDnyZHDxtrzi+jgGmp/EsPsUxnK0Dpo2ak8jad7b5lpyqIddsz+bYXW5QDAOM/lwVUG2SvyjfySdrlg/8pt/zk8yVprH8xfegD+cRbDnmiihKcr0lum6o+vVWcODgT0sZNOF55JkeoKu4cnMHVx8pAXJlscRdR25m5BzLDNL44BzQFTCPzLmIsqFtb2G2Lsi4Syh330SdttTiLkO4xuPfQoZVyvyrkdxsflZWK7jsJuaMdDajRh9l5sexaC7FbbbgzS1z3nacfVQK1491IKM+xhe9bQi4glinO4BeRrv2eRPUHbk5VgVFdejwu6gEQUKVWZUoV5QAoWCgsKuQ/aQdJBYqHGz1vU4uruvIl+437V9PbIrPL8NZW8M9jr47Of+DLp/mIw1565QwWEfLFTIll+LN50pfOvr/xJ5TwdsMqhKZJCxNwUnzoyacxjwHME19ykhYnCsvF2g5YwZOJI3x+wNUs1RsRmypwgnDNW1CbFPsja7QXzxi9LpivUhj5mx0YqXAl/3HN7RrSdFotZQj4nnOk1krB+jRG3SufsN9fLoEgzjzioPAhYtRN4LuuZqpxeyS0iUgMEjYZieoxh2dSDVci8vC5OraRREQswFET6Rz86L8sG1bZicuyLRfBymuw2D1E/EdVSMncttOlJNhzDcfBIvNn+CxtWTGPQ8jqjnY/hnbd14peMFjBw/iYF2L/y+YeifvAz/cxE8H4rgt73XcLbryzBovcn0LCaG55Cm7Vm57loWxoBv5jZ+j1E8GFTYPTSiQKGgUC8ogUJBQWHXIXtQOkgskWHBmf/5t1830e0bFG9jE5v0OmBvimrYR5YMFRYoaoUK9qbYjFAxRoYah3A4ZJSxC3vGvmfQ5Mx5WEKQYJf3J2C3nMKA+zG8fPL3hVFoPsDFfTPkfRolI87fOyzycsja7DRF2dG//EvpPMX6MJefQ4EMcRYaOHlsPPFjaNo4/IERhHuGENBT8AcNhPuuY7RYueat+ALS1qLwlODQo7v90ZjhCiDcV3UsMvm6K9E4uEbf36T+h1wdSLZ+7N5yNWRRIp2vVMZgsYK9N1hcq84X5Xvd7Yg0fxyJQx44zSdQoPE4Qf3HWz8Oy9WM1+haZ2+MURo/Bdq+mEnbQP2VzdsoxKfR1TNB+5fG2Z4UtBeiOBfM4/ngt5Ch7Xszv4Aijcfx2v2SkO8TWWp3jbYtmVFeFoqV/8MKu4tGFChUmVGFekEJFAoKCnWB7KHpINF2ZoTxPRL/IRlVQ2SETIoqHrK2D6LDRhaxEt5xZ02h4oFhH9QmQYbfy499Bl/1nEaWBYkVbUwyylJkeI1m5jDc7oXjakPS04EEGVjDiXm8NvTzVctslk5mEaPjiyLMI52ekrbZDSIYlE5XrB/ZiGdBgatSsDAwPlqZHgwbeP78u9CDVwS7u/KwrV8iMvxTUTmDyWEiNv+mccDjQYhfy2NCeFeQAS/CNujazqamhdfBbz36hfvWX8s0f5uLKFrzYjmLyOEWXMXDpnkpGheDrlO41NSB3Nf/Z2Ri78EqAUZTG2zPx/Bihx9Z+w4mTLoXsJBI6y/S/jzrt9EddKAFogj7Y9DCL6MnnEf4+ZIoOcq5NuzsHK0biNI2yratSiMFXDemkS3Tftm38fpXvoNS5ANpW8WDQYX6oBEFClVmVKFeUAKFgoJCXSB7cDpI5PKgbGiZ9kfQ/VfR5c0iY2+9CgGXWWShQhhebOysECqq+SkeJFQYRDM5h683dwuj63XnZ9J2XKpwlIyjOLX5vZPfwFXX4xg+1IYIUbwRXlGNZNMkY03zDcF2frhmTg7Fg0lOpmmat+/zrimQ4T5Gxr9PS8Mf6IceGEQwkIS/N4KJsTkhZpjGlLiWODnt3YSsRP6dIOM9N0pjhMNH6O/rzozIeZHO1uR9WcEyCwrsOVSslAZNGPOwc8Ak/R5oakOq+SlcdB3HDVqfQ20mnTm8M3IblusIRg4dxc3EBxiifWDPI5+WQiBoQw858H82Bu2TV9GtW/B19yMY/gtM0Homx5ZQKtA9gpZJ0/aO59a/X3DlnXFiksbpu7RNlz1P4LKrHb/jCUvbK+5/KtQPjShQqDKjCvWCEigUFBTqAtnD04EiGQz8Fpjf7Hr9efjIGCmS4SXe5Mrab5AsPnBIR61QwSLFSqFivUSaY/asKGs6Mfx3iJNhJGvDZAOIjbmcvSjeOHMVgTjH2Td5ECFDqOBux5AhX/ZB5PwVL7zwx/BqDhmWaycg3Gni6ael0xXrR8ui65yM/pXTUyz60bUbDr+FCxduIhTOoNt3FV3dSWjam+jpuYmJUbpeM3Stxn4Bh76T5i8xnqdlU4vCM6GUo2uZRQP20OCQi8Q0svklmPat+9YlxAz24KDxNEhjxKK2b1B/Lz/mR7atE6nWT2KQq99Ys4jStvL1XBpbwJsD/xmpQx142f00xmjdPn+OxmWCtm8QevAazmpRhLtKGM/8AmVnVpTbnbxO66Nv4flB25UpzNy3LTLy+vh+MlK8jVEagy+6H0OimcZk82G87DoN+6Z8OcX9S4X6ohEFCgWFekEJFAoKCnWD7CHqIJE9HipJ+j6Cpg8jn526rwzpw7AqVLAYsVKo4N88jUWM9YSKIruQs6GTXj/0hN3ZCzbH4M9hjNq/43yAoZaPI3OoCfGmDhSNLYZpkCHqDw6gTIZg7Rvv3SbHBsimK+498nXCXgZcirdcnCbjP48ubQA+/SoufMqCHorB32NA1w187vPfg18voJD5CInoLPIZMubzs3AKLGLcFh4ZGRqPnFciV7MOLitaztE1n1lEOXFLCBBfPfEFmJ6nkDh0Eob7MSTdH8eNzM9FTpe8uYS36Bq20z9COfofkHA/hXRTE87pRRqPQ9B8w2L860ELBRpD6SKt5zrtC63Hsu7A5uocmSU4WRq3tH/rlfll8raJnDDZBThjQKTlBCxPC5LNJ5ByHcFkegYxPk4sdkiWV9x/VKg/GlGgUGVGFeoFJVAoKCjUDbIHqYNErpSRyy2JuPJAiAwUMlh4eiL14aq2WyWLDyxEVIWKatiHTKiQLS+4hoCxkmzEjROL9j1BI9J+BnH3o1sSGEplzi0wgvGxGWGgydrsBvFf/9egJ0fpPMW9RfYySCUrlWA4dKJcmhMhEt7uAXRrIwidNeHvSUIPRODvG0IwdIXmXYMWiNP8BLq6BuDtMqHpN5HL0zg0K4Z82poTOSKS7C2RuA1zCMinZpGdoPFKhn+ypYWu85NIuo/g5Wc/hXFqd53G9dA4C313RILPzt4stOe+htQjj8ChtqEeHocRBAI5EeIVG5kSlUq4YgmPF07syV5W1bHD3yLvxTrkfeZEmxlaLufM4Yr7KWRcbTCazogywZP2LXEvYA8R9kwylvtW3L9U2BtoRIFClRlVqBce+d73vqcECgUFhbpA9jB10MhGRzY3jzNeMpS0AeFezqKBrO3DcC2hgr9ZqODpDxQqNkg2ooyat7Oc2PDm0A/va7NRlgvzOHv+HfEmOZ15+G3bKrmqh2y64h5kYQHRxIxIoMnXTTVEgoVAx56CbX4oDH89VMazz11DKDiGQI+NUE8KXdof0riII9Q3Ak030HP2Bs4+fwPB0E1h1Dv2L5G3Z5AypmGXgC+19yLW1AbjUJvwjLhB62SPH8v+ATr916mvAQT0EZzRbJzpKaCnL4bh5uMYaP8kPtWTQCr5v6KYn0HWrggSznIeGhZa+N7Af1dYmbZqX2vomHNCcBjLLeFbr/6PGGh5FhlPB4bcp5CkdYryqRb1by8gRX1xMs8HCR6KjU2FvYNGFCgUFOoFJVAoKCjUFbKHqoNEYfTQt1cbJUMpTYbKbSFYZGsM/O0kCxBVoYKFibWEirXCPjbKrLM6b0RkK29raZm+8wMVV/cHuLbvJPFf/pfS6Yp7kxxuJH5nlu6GSPDf1WtIfDuzKBbukOE+Q8b9LbruPxAChK6n0aUN4kzXEDR9AKG+YVFRwxdI0TgdRrd2BYnsL/EZfwmxpg7Em1ow2HwKv62XEeq5jh5fHprvMoKhKLq87LkRxfM9EZyjfsfNv0O+qRlDrV6kbwCpQk2IFVfm4O9l8jisZe28lRRhUDTmOC8GJ6q9euhRxFxHEHEdQ9zdgVJqHinuJ70Ei4UPIoeqyPpSbHwq7D00okChyowq1AtKoFBQUKgrZA9XB4mlZeMjn5sh4yaCidGPkCeDxawJk9gJridUsIdFZfra+Sl2k/5wmgxFm4zKxYdOIvowxGc+I52uuDdZzedSDZHgv7nah03XkMjvwAlcTaBIv7P020jMwjbY02IeaXsGtv2BKHWraSWc6Uwh0BeFPxShcRKBv/dVmM2P4wqHdTQdg+4dQrg7ikBogK7Vy9BDV3H+wrtIpX4II/UzWKk5UUJ0JE/rdD+OftdppGlbSsb7KNJ3Nnfnvm2vMpWcE5TNq5L3j8M5rBww3PQook1tyLQ8KRLWft3zHN5I36b5EBVJcsasOAbZ1M7eXxTrR4W9iUYUKFSZUYV6QQkUCgoKdYXsAeugkct6cnZ+n5aH1p2pGFDLRtVOksWHqlDBogQLFdX8FCuFitEVyzLTbGxJpm8X+S0vf/sDN0TJUf79oDfJO0mcPCmdrrg3KcKniNUQiep0DmvgsrwsDBRo3KVTy+1ZkKPpheVlR2k+T88580jEPkS47zq83jzy9nvCM+Gqux2m5yi+0BxAV9cVnPFeRlc4Al/4IkZLiyjQtRqLT8G254W4FivTOqk/2+1BzHMS79ofwaBpNx4i54xJ28jJMF869fswmp9A1tOOwZZPINLUjreu/lsMD83genZRVDfJc5UTGvNl5yFLACvuWSrsXTSiQKHKjCrUC0qgUFBQqCtkD1kHjTmOPRdiwSwC+lXhcs5veLkSgaz9drMqVLAYsVKo4N88LZObhbUibMMh465EBh2/ca6dzmTDaeW0rVBULqDvs+eTmCBjjn8/6I3yThKdndLpinuTwruArt+VwhaPL4eu7ZUeOcVSRbwocQWPmulpFjiyc8K76U9f/XfINLfDaXoCE03t6GsfwY3yHLLjMyLXBZNzyYzS9RpPzopkuEWLxrSziAkaF1dbTiHWehLp0UVkizT+Moso2nIPivVo0jLsOeG4DiPuOQVLJMNsQdLdIeZfJd4s0Lpt2obUIpIJ2j8axyrvxP6kwt5GIwoUCgr1ghIoFBQU6g7Zw9aBY2ZBiBRnnnsVAX8WydTuG+ErhQr2ovh0+JV7QkUcsGieQ4ZOdRmLlimSkcXfGet+t3GOh086C/dN2ywNo2Jc+rQUssbmjbidIF5/XTpdcW9yLUErz+U8JdPHJ+XTE8k7iNAyo4mPMOhqF/kczBz1Y9K4SS6LHhxqYd0Rv4tlGheZOaTMJYyOcgjJHRSSMzBaTiDZ2oXyGIskxAwLB5XfsvXKyMvYtN7L7pOINT+JK48cRqn9SXz5+Ofva3c9O4e0MYcsjcXJ0oLwespn52lcqRCP/USFvY9GFChUmVGFekEJFAoKCnWH7IHroJFd0G17DnbmA4SD/YiO/AS5AhnnkrY7TRYqWBSoChWh7n5cdD+B3ucuYyw3i3zmNkbJoMpYt0U1gAS1GaTtj7OxZt0zBiuJCO/AZPFiedpWyOEvicR/Rqf3kvgta7ObxD/5J8BS/cqeKtaHo+lZpNgjg67rr3R00lidhc3XfHbqbkgWf3OFEL72+bdNY8Om6flRIM3zikCqyYOr7o9h8trfoOzcRpra8LIWjaGNJMfNUT9Gag6R5lNIudvxDfdT6Pc8vabgwiVHOYFm5X6ygEJmXng/cSlWaXvFhqJCY6ARBQpVZlShXlAChYKCQt0he+g6aCwtGxfsSu7rteAPjAjDgt/Irmy7W6wKFW8kPsSw5zSMltNkCD2Ja67HkGx5BkOep5A75EHWnsNXT3wB3zj5RVx+4rfxlnULw61PiT7iY0CRDKrxEhlVy4bYZslVTazkDELhBPIZFT+vWD9mnRmk6VpO2j8U4oO5nNySxQgWGTnfBeebqAoWVuoOTPotckWk5/CFjs8hdegRmE1uIVAkIreEoCHabkCgKFqcG2MJcVc7Mp52xFufhuVqEdVuZO2rzHGJXnMRY1naNhrX7PE0Rts+llGeFI1MhcZBIwoUCgr1ghIoFBQU9gRkD18HjZywj79T5hQCgSQZ47MiYd/KdrtNftM6QEbQtdYnyDA6jommZoy7W1B0eRBreRIZdyviTceRdbUi39yOidaTiLWdQdHdjhHP04g2HUG/+wReOtSONwf/I7LmjHQ969GIAcFQAmbipztWgnUzxD/6R9LpivufHNJUom/OR1E7vZrroipO3J1uTSNbAiJJ4ObI3+Dllk5kWo7jclMHMjTdtJYqAkfNMmuRvTCs5uOwW07g8iOt+LrnDG4+IN8LixFZWgeXFWUPiiQLK0T2/hi25cso7m0qNB4aUaBQZUYV6gUlUCgoKOwJyB7CDhrHyPDJZhdFbPnZF76L3t6ccCdPp1cnoawHL7U8jhHXEQyPAtfi8+j1fg2f73wJibaTSLecxrWWU7hKRteX2sIYcLVixH0YX2w+jRvNHYi4jsPxPIqLzWdEBYRBjp0nI0m2HinJyHr+hXfg9Vt7IsyDiT/4A+l0xf3PrCXPrbJWvosJun4LBnDT+QgXO/pwpbUTr7T5hXcF55/gSiGy5WrJ4kTMc1xwwP0UJq78b8jFfy1tW+WNzDyy+SWMp36CdHYBEZpm0X3mjcw0+pu9eC3+K6SsKemyinuTCo2JRhQoVJlRhXpBCRQKCgp7ArIHsYNILk0YF67igB64hoGBv4bzkIkmt5MxVyuutHwMlw654MSnRZJA3R/Bb3V/EcPmHJwJ2vZxMuBo+03PCRSNKdykNkNkXN3IzgnD6GJbFwYOtSLp6oDztf8B5Q2+xc1mZhAOmzCNRfGmWtZmN4nDh6XTFRVl5HKgBXsGZWsaN1vacbG5E6+PctnP29L2tawVJ2LuY8jSGEul1w//KjvAVRp7yTKQM6cwTn38ceqnIhwrwV4Yrc8i3nQEN+I/xWjk59I+FPcWFRoXjShQqDKjCvWCEigUFBT2DGQPZAeNFhneZTIkRvPAhZ4/hB4cEfHje8VrgGmUgGuuk0g1Pync3NPpRRRNQNcTONv5FWTtO8T3kbeprasNyQJwfYIMNPqO0bSEMY9x80MUJ8mAcj8Nk5ZlQUa2rlrm6dho+ktCnNgrXiUIBqXTFRVlNOwlMcYvt+m4YU8jeVPersoEj68V4gT/LWtbS64sMkr3jSEaq4XcPMbSC8hEppFydSDl+QRGPKeQbWpC2t2C3z/+AgqJ2VWhKYp7iwqNjUYUKBQU6gUlUCgoKOwZyB7KDhrTWTJgzCXYbNyTIdPlzyHjTCGX22NVI6w5DJ74LIym04i420QFDyMP+IPX0Kdfhh5IC9FhpOU4Ei1PiYSbXD2A80dwHDwn6ON+uPJA8crfbjivRKjHRm/fdyuVEuw9IlL8yZ9IpysqrmSSxohTAt6wPsLLDxAERpPTcDjPi0ScKBUW4ayRe2LQXESc7h2j+VmkjY9ESdJ3Jmh688eon8dEiNWA6xlkmx+H2fIx/Gn0P8GxZnAz9qG0P8X6U6Hx0YgChSozqlAvKIFCQUFhz0D2YHYQmScjJmvM4eZ14C3zp3g2NIxyZu+EeTBZUIhaQKHIYR9HMOw5CoeMopK9IISKYNBGsM+AL5DHMBlEeVqGPR9EZZDMnBAravtzxmi/nfVFmGJpidY7T32b0vn1In7jN6TTFRVlLNI4GDempfOq5LCuePNTSLk8uNL61P3ihDWPyeQscuM0nmis1S6Xc97DkEHroHH5ujOLG1f/6v/f3r1Ax1Ud9v5X63baSaedTmXVsWpXlmtjMNROCBSXgrnGdm1waELIoyS3CXmWR8AQY2Pr/ZqnRqOHJRtDIA/SJEAvt6GFtqRpbkIoTZNLcnMb/ikBAuTF01TxtZdl1/799z4zI0vyti3bks6cme9nrd+SzpkzZ2TjYc3+6Zy9ddv8y9QyZ3m+nIgsUGdkkTK189RdfZY2VS/XgD0HV0+UbFAeglhQsMwo/EJBAaCkuD6gVVoGeg8oYwbydob/j57xMd0870Jt+LO4d4uD63i/kum197aPKNmTn+AzE6n1ftNri4puE7sk40WXxNUeqTMDozpvn12pIJsZ8YqKXPbkroCwfyf95u/kootaNNBXWoUNIVOVVHqfEpF6NUYWqzs2R01zzle6cIVRu3nPNXft8+aW6LJXESUP6e7i1Ujp3UrFR7SjY692dbyseO0Z3ko7zTVnjCsnbJoj89UaWaLe+D41bD/6ZyClEZSPIBYUgF8oKACUFNeHtEqMXRKwISXdk3hBqXC9brzgQ0r3lcYtDWNjr4aw99TblQjslR/N0TPUHpnn3cbR3rrb+01wsu05JUIxrVzXprVr0+OKisncT1+Mva3DXoWR6voPrVyVdB7jVxSLOfcTcjJJtO/35ncZDEV0U/hs3VC7wfx73+tNOmtXsrkr/YJ2Nb+iz29+XE2xS8z7ar7S4bBS5v021PYjdUUvVDq2VG3RxcpEFqk9fKaznGiPLvBer4crJ0o2KC9BLChYZhR+oaAAUFJcH9QqMf1msG8H+XZSye7Q2UpWn60LVg4onnzVebzf6enN/zbXTpCZNgMpW1S0hpcpZa8ESe9XMnaObo2drzVrm7xkM/u9osIWDunuQ85zupIxfx/JzCtad3lzSazkMTbatMm5n5DJZEdiWPFQTJlQWN3V52jHoNlv/o3bW592mn/32yKLFDdpMO+tj0UWqqt6ibrnLFJrbJEazf7bohd5q+zYiS+bas9WS/h8NZ55tRqWvndcOdFWKCf6kkf/DMT/oDwFsaBgmVH4hYICQElxfWCrxCTNwN7O05DqkT69+TEzwF+i682ApC99/HvX/U5vcp93dURf+qDaImeoM7ZQ1y251ltB4OZotXpTh7xyYmxRYe/JT5uvmeyJb9uwy7D2D0irV7ea7/c4j/EresMbpO9/3/kYIcdLq73qIVynT1Sfr23RJWqMnaVb69+h6+es1001yxWPxNQ6q1q3zV2hbGShbovWaeuseeqJ1qoleq62hRfrL2tX6caa89XUbd4nm36inTsKt15V1ytdu3zclROUE6UZlK8gFhQsMwq/UFAAKDmuD26VGHv7hL33PGkG9U2xOm2OzNVHz9usuBl0uI63sfM6tMWnf8UPuyTh9sTrzsdssll7L33+1o/mcMSbKPPW6gv0+cZ/8woM+5vh9Wv7dfn6Bu+2j1z3IW+5Ute5Jsaed9XKnHqye7yrNlzH+BW95z3O/YQcK801b1IyHFNbpFbN0YVK1S4329Ve+ZAwX2+LVqshFFEqUq+WOat025zztC06X++ve7duj/+77t72glJdezSQHVHLgHR7934Npka898nGyHLdZNIYWah0uNb5+qQ0gvIWxIIC8AsFBYCS4/rwVq7xboFw7LdJpkfUYQbyQ5lhdZnjGsMLlK0+R9fXXalc/yHvaoKJz8n256+86E4c8ibbnPj4lMaWEN32aoljFyLFouLj4bPMIGm5OqqqvFUG7PwTtqiwj61bm9Wq1U1qb3tRAz3u84xNOn5YPTlpzdpG5Y6x1KJfqTJ/Ptd+QlxpjJ6l7kiNOiK1SkQXKBOdpy2zatUyq0bNkUXaGFup/lufMO/1w+pLSQnz/tiRyd/m9bnMXjX0SR3JVxRP7dGAeS95K3LYc3ftUzo8V53mnB2ROu/7oeJjpOSC8hfEgoJlRuEXCgoAJcf1Aa6cE08cUjLhvr0h0W1X9ZByZiDSHDtDicgZSoaqNZgc1me6R7TdDFr6JpQcKbPPzl9hJ9ocu3+q05ceUcK8tl3Nw06UmUu4j7PZnj6kO8yAaltkjm6oqtWu1MH8Sh7muXaizHde9bDWru3Q0CRXFOg1WbWqQz3d+5xFjZ/Rn/yJcz8hY3N99XKlwnYyzD/05p7YFl2m9nM+oC01q7zVe+wqPj2de9XRKX06Pqwd6T1HFZo7+83/N3r2qDOxWzsKV1bZ91NDeKESsUXqssWHSXzC80jpBJUhiAUFy4zCLxQUAEqS64Nc2aYwwLa3Qwyk9417zJYTA5kRM8AfUTy6VC2xBWoLx3RbaI4yA1J714h6k2agbwYzqeyI95zB7r1KmHPaqy/Gnms6YueD2Lj4/dq66H3qMj9re89h76oK17HdZgC1vXu3bk/s0aboEn2keo23ykcmkZ9ksyclrVzZqlWrG93PH5Me83eVM3/OK/4s6U3K2V9iJQUhx0uuY7caoovVUb1SdzU/p5vnrlPWvJfu2m7+LfccUqf592yvTLLzs6Ry+dKhK330LVU7soc1aEu9eH5uGntcW2Sht9xvY8253q0dHcd6P55EtrVJ/3TDDudj5NSDyhHEggLwCwUFgJLk+jBXrulJH/CuoLDLaKbNYKIvtVfpwpUE9soJW050D5mBSlLeRHcds5ZoW3iObpyz3Putale/Gai07datiX3Kdj6nltASb3JNe2WBveVj4utNddrNz9Ufna/0nEXqMNv2t7z21g7XsTZp81h7y8/VHZmjVvO8bvOz2klBM0l7a4o00DesS1Zv1cqVHc7nF9Nj4t3mYb5mSuw3xKqrc+4nxCad2af7257WPb1Siy3nTPozB7Qr+Yq25/JXQQ2a/xckbflotrf37Heex6Z4dcTYcsLGbvclT39S3TvM+7MrWq8tsSVqiS13HkNOPqgsQSwoWGYUfqGgAFCSXB/oyjn26omM/W2pGWykzNe2LqnJ7PtUz2HtKAxYhvqlhtgitVQv0o2L36HW6rlqmHeRPly7Ujuu/bqaIjG1LVil9urztK0qou5ona5bfI3z9aYjLdHFao6dqYa5drWRg96fxU706TrWptX8mW6N1GlruMa7ZaMnuVfpRP74THJEK9c06bK3tqvPDN4mPreYP3/PA7pwZTx/RUX/NM+5cZJRe7tzPyG32feG+XfdudNsJ/eps/fIPC7t5n0x0C1lzTHeLVTZw8qMee7EtJhjXeWE69iTSc78P6iteqlS5v3ZFqtTU3iRuuNmf+FKLXJqQWUKYkHBMqPwCwUFgJLl+nBXtskW5ptI79OduRHdkT2o2+096O0/10DnC0qbQcr2hifVsPS9ZsCwRB+ed4G6IkuVrqpSZyiqlpo364bwWeqYVaNtkUXqDEfVGl2gptBcNdec537NKY4tJOxqHJ2RJWqOnuEtM2qLii5bvpjHXM+xyeSkLjP4uens6/XJ3LB3FYa9+iOd3Ktk6gWtXZPQ29+5Xb2O+Sl6ktL6yxvNIM8cn5r+1UtOJpo1S/rxj52PETKYHvaulOrpfGrc/mwq/+/f3tphSwy7Kk8yud95NdSu7Ye1s0/aGj03X05EFk5JOWGzufpN6rATbcbq1BFZoO3mvNnsIe9nch1PThxUriAWFCwzCr9QUAAoWa4PeOUcu/pGygxYdm79vje7f2N0mfrDYd0arlPDnAvUaNIWXqikSUNsqXLherXXLFPjrJjiVVXaFlmihpoLdOvc87QlVKvstu+b4+eoKVKvLeYcds6KVIf7tacqg5n8lROtkTPUHpnnFRV33vKYd/VHp0naDL5cz7Npiy4xA61lGjB/B9nUiJI98lYlSHUd1vrLG9Sd2nPUczLZg+axLd73/WagljrOiiJ+hFU9yPFy5zGW1rVzUNiCzt7+NJg95F1B5V1FlTlyy8bt6T264azr1VV9jm417/epLCc6zLmaY+b/O5E6dUQXqSdufh7z/6e0eT+6jicnDipbEAsKwC8UFABKlutDXjmnt/uQN1Hep3aYwUi4VunIXDXWrPCWG9wSXa5tcy5UIjJfg5FqJUNRbYnU66O1K9QSO0ed1cvUv+3/U7rrRfW3vay+joPePBB9do6K8BxvKcPWM96mvuwB9Rcm1JvK9MYLk3t2H1bcfJ1YVNjVBJLROvP6B9Xb+bo358TEc9xiBj+N4YXqCdeoZenV3m0bdiWSwX57qal5jV57L/6R47M5M4AzX1et6dX69XeP7i+l6I1vdO4n5ETJJg97//7tijx2Thn7HshlRrw5J+yEsi3m/W/TGJqjjdHztL1vam69KJYTLea92xVdpEHzM2R7DnhXeLmOJycOEMSCgmVG4RcKCgAlzfVhr1zTYwfjfWZQb77/XOezagnVaHN4gRnkn2UG7dVKzXmTPlG7QUPtP1FTqFa5mlpteGuTcqk9XhHQusM81wwi7CAmZwY1W82APtu2W9nIfDVGzlR3aL52ZvZNyyXadvDSbwZQLclD3u0oduLPsUXFTbEV6jSDqduqL1RbVVgd4TrF21/X7al8yVCMLSG8++5rz9RttpwpDNDsJe72cXvu4rFZM2jrNbG/NZ7Myh9+RZdd5txPyLHS3z3i/bu2VwjZ1Xi8xA94RUVrdKFy0ZhujdlVfc7UJ2/+quJdI0p3us91MplYTtgVguxrZrly4pQDWEEsKFhmFH6hoABQ0lwf+Mo5dslM+7WlSxoYNIODOcvVM+csJWL13sSRdpDSlJAZ7C9WW+wsrV+b1Oo1bbrJHNc6q8a7CuP25G7lkgeVNedpn3OJ2kK12hRbobvie/RRWxD0m0F+/EdHvfbpJmkGMXYVEnsVhS0SvKIidWi0qLjzdqnNDLS6YovUZX7exthybYvU6daqaiUG8ucYig8rGx/xJg297uxr1R6t19C2Z7zfHk98PZtU8pB6Moe1ctWt6nM8XgrReedJ99/vfIyQibHlXiJ52CsG7szsUVtK+pz5f8Fd3cNqMe97W1jGq5fq1sgSrxS0zzneJJqTzbHKiQyTYp5ygKIgFhSAXygoAJQ014e+co9dWtRbBcMMPvoS+3TjkuuU9u4Fn+tNQNlj9g2l9nj3httbJtasb9S5G5K6o+GH6gqfoeZueRPndXXsVrMZdPRG56kvVqPewmCmyQw8eo8zF8SppiluXjezVx3mdWwxMbGo6MuaAY95XbuUov1zDDZ9zxsIJSI13sCrPTxfm6PL1BR7k5Lmz2AnCuy5+d/UOuccb3A22D3+agsvuRH1mddbv65bay/Led8fdUwJRH/4h879hIxN2sS+T+MmA8lhNZj31L1dz3ur8TSb90iH+f9Aes5y3bLkL9SfPKBe8z7JTsEVUadTTgym5b1fXY9VcoCxglhQsMwo/EJBAaDkuT78VUJ6k/s1kDmgTJ8ZrKRGFJ9VrXh0oTqrz/AGKq3hem2L1mn12rTWrNqmhg7pzpYn1BWbq8+2/oc+VnuV7oyEzIBjoe6O/1h3xX/qfJ2pzF03P6atNRd5t3XYqybGFhV2ydFk4rBy5rGUGVQ1xRZ7z+nt2K0dmWHFw/PUGKpVezT/59sZf0lZb+JLMwCKVCt7jEFQb98hXfH2z2jlJW3Ox0sl9v4V135Ciskm9nrz0MTbhzU4aK+MOKTWkH2vnyk730Rz5Gzd2b1bdxYmnG1xnONkczrlRH96ROmOfcpMw21jQQ3gEsSCgmVG4RcKCgAlz/UhsJLSawbp/Vmp3Xy/PSczSFmim8NL1BupVap6rj7Z8ANd8bYOpbr3qqtDeld4tVqitWqrXqr+WK02Vl+goeRL6kiNqMGcx/UaU5VUy7D5+ebp+uoLvSVHbbmwI33Qu2zdFhVDZl/S/Ax2ronWiBkMjSkderOHtTOzR7lN31V6ziJ1xBbqnsQL3vGd9tzbnlSbGTiNfT0bO5lmr3mdS9bd4k0s2NFx9GofpRDFYvZXUs7HCLHpMe/vrviId+tGqvln5j2yRInQMnVG69QcXa60ed+kzb/vlHlP2PeF6xwnk9MpJ7rMz2Kv5uofyF/FsT3ruMKpwgIcSxALCpYZhV8oKACUPNcHwUqMN1mkvfrADCB2JF5SX+uPlIrVKhWpU2O4Rm9f1ao74od0XZ90e+NPdUt4vlpqluvGyJt1e++Id9n4TMzEPzQofWzpB9Vur/IwA59iUWHnougxX3vN1z4zoNm0/MPaFl1w1PPtPBb3JF9RS9chNcxdou5+MwBKH/CuwOgyz594vE28U1q1KqNczx4NOEqMUgnLjpITxQ724+bf8Kdu/YZy5j20rca8B+LmfW8es1ci9fccOu5yvZOJ/f9AV3TOKZcTzamD2tl3wJuMt8v8f6XNpNW8N+2qI67jKyHA8QSxoAD8QkEBoOS5PgxWcrYnRsxAf0QNZjDRGX6zWqpiujFkl/Ks86462G4GL59NvKyuWTGTsG6LnadEZp86zKCkz2RHPL8ixnSly7x+j10uNf6i2szgxy4zOraosMuG9puffWvkHG2uvlDNLe7fvHpXWuzI/1bZTpxp93XZCUJdgyCzr631aa2/fEgZW4L0OY4pgSgcdu4nZGxsUfDBOSu9VToG0vn3bk/vXm3v/Jkyp1kCJO1kuzWL1BheoJbospMuJ+wSp/Z2q1xyv1d07Oo7bHJQLeYctnjsMu9v1/PKOcCJBLGgYJlR+IWCAkAguD4UVmzah9ViBgGfSdnbKeaa1Oje1ufVGK1RVziipuhyfdYM6NtjC9UdO1vx8FzdEDlfTfa5qT3q7pz+WyBu91bj2OtN9mlXJhlbVNhJADtNBrZLTZE6Dfbs9wY9rvPYtPcc9s5hlx91PV7MgBkorblsq3d5fCZzwHlMKUR//ufO/YSMzf1b/kWpphe8FW3SPXbp4Je88s117GTT1zWsRM0Zao2do67IYmXN/y9OpZzIZA97P8udid3acvYHdfOZH9Q9mRe1w7zv7BVMlXQlBTAZQSwoWGYUfqGgABAIrg+GlZyhXvPVDBQ+37NXLeHF6jeDhS1tr2vtmoxykTN1S7hWG6MXqjE8Rw90/FCdkfnaFF6guHnO0HHKgOmIvWpiYlHRFZqnoVu/pVtqzlO7+VntRJnHmgTTxq78YSfXdD1WTKZnn9at6fK+tyVI0gy8Jh5TCtHixdI//qPzMUKK2Wbe4z1moJ81SWX3q+dE/56zI+6riwpJJw5qW6ReTdGztHlWnZpnhbUlvFCtsTedsJwYW0x4K43Y96r5edKRavVGq9Vh/v/ynrn/XXdsN++7rhEl4oc0mCr/OSmAyQpiQQH4hYICQCC4PhxWchpNGswgoW3I3ktufyO6whtkvPWSm7RqXb9yoQWKzz1Ludg87dj6hAbSexSPLNLGM/9CbQNS56D7vNMVb5DlKCo6w7XaFqrVPb3D3m9k7QDoeEXF8QZgNus2NKql8QXnY6UUXXSRcz8hY2PfK12JPd77x/V4Mdm0Xcb32O+dXE76RHW9ec+dqWR4gTbVnKf/Gf8/6o7UKROd63xOMccqJzoiC9Qcna90uEYb69+tT9p5bhKHNLhdXhHaW+a3egAnI4gFBcuMwi8UFAACw/UhsZJjZ/TfmdmnHa0/1+bQUvWn92lXxz5dfkmDbqs5UzeGztIN0Tdpe029tsTOUm/Hs8rE5qvZDCjuyEzvPBTHiquo6A1Xqym6VDfNWZ3/raw5bntq2JtM03UOV+Lx/Uq2H/QuLV+9KuM8ptSiu+927idkbOycMq79xdgle+3VQgPmq31fTZxINhOXNzeNt2pOKKbW6rPVnpM+fMaHvQky7USZdjWPsc8p5njlRFN0nhf73M9mXlTcvL6d3NNe9dGb3p+fFDdZnqvWACcriAUFy4zCLxQUAALD9UGxknN3fLfiLbt1S90GdYRq9YnqN6vNDCDeueYWfTxynuLR+d7cE11mMJGeu1QNkTptDi9RQ3iuPhFe6N137jrvTMQWFXbAUywqPpnZrW3hRd5vZO3gxw6E7MBre/eIWvsnV6bYe98vuqRNa9Y1KJs77DymlKIFR69gQsjJxBYItshL5cx2ckRJ832yz7y/kge9x6+ve6eazfuqMXKO2kwGkq97K4D09Yx4c0/YCTKPVVJ45YR5nx6/nDD/hs0++1hPYkSZzr3aldnjTVo79lzlEuBUBbGgYJlR+KWqWE5QUAAoda4PjBWdnj1KdBxWSzisHeGQukMxbe+XPt35I/VWz9HW6uX6bOpxb0JKe8l1U2S+WqJnKhldqLZwjRqqYmreaQYgE37jOpMZvaIiM6K2hNQcWTI6+GmtXqLOzsPq3y7ttPe2m4GQ6xw9haLFriCwY3BEq9c0qLPjuaOOI6Sc0peSBnv2KmuvWkiPeJPSdpr3v13lwxYGiVi92mZFlQjVmPfTAn2y52VlzP6d5n1ibwezBeXEkqJ47sldOXGknLDH2GMHSnjul9MNcDqCWFAAfqGgABAorg+OlZx06rDiHWbgEFpgBhiLFe80A4uqWm2tWar+OQv0kfmr1NN+5HhbBmwNnaXW2ou8JQyz0YW6Yd7blGwbHh3o+xFbVPTYS9TtoMkMeIoDoc5wndqidXrfog9r14A5Lr1XLYnxzy2u2GGLlkR8t9Zd0aqBvmFv4Db2uFKMfuVXnPsJOV7se8VeKZHOSXf1H9YO875IDpr3d+vL+tTmb6ohMl/pSJ1a5l2kvzznevWlXvfeN0M9R265cJUU9iqKTyZePO6cE8cqJ7znTHhvlkuA0xXEgoJlRuEXCgoAgeL68FjJyfWO6DNdw2qKzVUmXKN4pMYMHurUXBVVIrpA77xkk3pvP/p5nXHpturlujm0SF2hmDoj9WbAceJlBk8nvYkR9XQf/zWS9pL17kOjAyN760qn+bPEo0vUETtXt4brzJ9xjj5909+rY8KVHxnz3O1m0Lbykq26ZO1WJTrHP16q0cc+5txPiCuZ7v3e1UK57fJKuC3Ne9Rg/t3vzO7VjZGzlY4tUDw0R+3Rs/PzUXzSrtxzQHFzzFHnGlNS2IIiHa5Vl/n/yLbIwuNcObHQWU7Yqy4mnr8cAkyFIBYULDMKv1BQAAgU1wfISo+d8O7uzV9WW2S5bgmfoe5QtVprLtTArFn685XblE6/pM4JgxM7uWZLl/Se2verqfosNVefraaaC5Sd5pn3P1D3PuXMVzuhnuvxYsb+Bjdl0vOJ7+i6xdcoVb1AbbHz1Bxd5BUxm8x5tg+YY81AzF4B0mf+nGsua9OGywbVkzug7t7Sn4uiqqpK+td/dT5GyNh02KuIzNcd5r0xmD3oFXJ3mn32PWDfxy2hGqXmLNeNS67TQGpE7ebYpHlvZI9zZUOxpGiMLFGqZrka5lyoTDiipoWrHOWE+8oJygng+IJYUAB+oaAAEDiuD5KVnIHc695EedcsfY9SZrDbXm0GGeF6bwLKtavv0OrLmhU3A5iJz7MD+q6cdMOCdxcGH/N0Q9X8o46bytxhB1jV+ds27P3wrmPGxg5++pP7lTPpHpI+N2h+Zjvgsj979dlqCdd5x9iJ/3L90tUf+B9avaZJq1b3KWmf0136BYWNLSlc+wkpJtNn3uudLyjXa/79m/S2/Ew3Lrpa7aEatYcXqTsS0Scib9aOzD59pveg7FwUtrjrS5/4yqiGpLSz+VltW/xeJcJzvNvFErXn6raalZQTwBQIYkHBMqPwCwUFgMBxfZgk+dzR9aJumLNK25N7lOnc7Q0mLn/rgC4xA/aJA4murkPenBRtObM95jelY4+ZjuS69ykVWai26CK1ma+TKSrsz9dnBkT2Cgn7297B7r3e/n7zs/cO2nPa20P2KpX4uVatuVGZ5LPq6jisnDnWlhdHnY+QACU9YIuGw9qRGlGjvfrI/Lvvj8R0e/UiJcNz1WW+bqq+SJ/reknpjn1emdFrjp3MvDIpc95uW3p0jqjZvpfMuXPmfJtD9WoIv4lyApgCQSwoWGYUfqGgABA4rg+UZHx603uVNQOKrBmk9PYd1urLt5iByA+9QsIuAZgxx6TM497xXXvVZvbbwUexqJh4vimPGQQNmq+2oDiZoqLf/Ox9yQNKjxl42QFTl0nKXkXRvU9rL2vRmssGvMdy5ng7kWjx2FKOli1z7icVHvNezqX25d+v5n2zMXq+UpF6bYteoFTtMt0SOVc3nPmXGogPq6nPvKfMezmX2Gfe9xPO40giedA7tsMc22neU0Nb/l139o1oa/V5SkYXqyU8V7fFLji6nLCT2pZhOQFMlyAWFCwzCr9QUAAIHNcHS+JOLjmieHq/1qy7W5es3qK1a/uU7d6Tf8xeJm4GM7a0GOo97A087ADEKyrGnGO6Y4uJiUVFx3F+BntPfU/moLoS+asobNo6hr0VQLanR7Tu8nZdtn5QPWYQ1dWVf7yrc3onAJ2q2EtEXPtJ5abPZGfvXqVy0i3z36rsrGp1RM9Qa6hOnxyUstlD2jVwQLnMiAbTe/S5zle997brXGNj30P2Kgt7tUVfYp8GzLnaZ81Rx6yIPhE7R/FwTG2x5crFzXsncaDsr5wAplMQCwrALxQUAALJ9QGTHDt2ULFm1ae1bn2bVqzcrNu2/F8zQDEDDTOIz5qBjS0q7JUV9rhiUeE6z3RmbFHREKn3bt9IFK/ymJDBfvOzj1kRJJEcVndcWrXmTpMm9ZlzDZhBWsIMvMY+r9Sj3/kd535S2elM7vWKhK1nv0/dsVq1RpYokzmk2xJ25Zr96m99RRnz793ONZOexJUTA+Y9b684svNUDHW8ooEbvqFt0eVKxep0W3SB2uwtI7MWakd8rwYzB7xz9ub2UU4ApyiIBQXLjMIvFBQAAsn1IZOcOIn2Z7Ry5VatXLVN/b3D3m9nbRlRLCq6e/IDEDsQcT1/JlIsKjpDNWo0X+08EnZSzLHH2Fs8BrOHNJA0P+/2/D67Okgy8ROtufxWpVM/VTZttuPmuebPNva5pR7deqtzP6nsJM2/488kfqqPL7hag8lhxc2+OzN78rdlmfdsuvuANxeL67ljkzHvHXucXeHDrvRxY+RCNc2a4y1Puilcr821F6ntjKu8kq8/PaJ0r5RKDJvnHMoXmRPOF/QAMyGIBQXLjMIvFBQAAsn1QZNMPtnMK1qztlGrV+XM9/u9qydsUZFMHFTK/nbV3kbhw29Kc335W0687a592hhZrnTtcm2NLlNH+rA3B0Xx2IT53k6amc5Jne2vq9v8vIn4j7VqTaP6ener1+wvHhukKByWnnzS+Rip3CSyhzSUGtadt0uZ5IgGksPehLG20GvvPnDC92uxmOhJ5ku7+KxqpSN1ajFpii7SdQuv1s7uYTWY95QtPFpt2ZEdUTp90LtaI32Mq5mCHGCmBLGgAPxCQQEgsFwfOMnkYgcp69d/Vqsvv1Vr1zdq7dr0aFGR7MhPoNljBviTWQEjmTrk3H+qsVc+2HvjvdIkcVCfvPnLildVKTXnbCUic9QQnquUOc4uN9prjmntl3aYnzXZsc9brWT1mrhSqZe9qyf6zGOu1yj1sOwocaXFlged+eVz494tUIfV3z2itoT7+GImlhOtkTq1xurVEjvT+/5Oc46dO817aNC8pzp2e+eMJ/Z487rYK5Nc5wx6gJkUxIKCZUbhFwoKAIHl+tBJJh878Mhlh7VqTU5r1jZ5sUVFa/N31ZfLTzq5Y3BE3anDyqTNICdzwHkem7S96sEMfFyP2dhJKid728jOzD7FzWt3mvNlu/ZoS2SRmqtC+qvb/pe6q5eqp2ahEjWLtS00Rxvr1+q6xddoR+olxc3gbd36bq3/szb1ZnZ75+roOjKRZpCiRYuc+wnJ9Usp816yVwj1pM178jjvO5ue3qPLiebYArVGF6rDvLe6zXvXXj3VZB+P71Vv9yF1m/fSYHJEPXH3OYMeYKYFsaBgmVH4xSso7r//fgoKAIHj+uBJTiJZMwAxgxMbe/WELSeKRcWqNa26xOTCVRt10cq0Bvr2eBNTproOe7+9nXiudCZfBNgBkL1NY+LjNnaeC3tFhl360/X4HeZ52cSw97091l66viv9qtojNfpE7Dx1hWbp083/oXT7sD7ZO+IVF51zzlJnuE5N4Tfro7Vv1duvfECrLunQe95z/1HnD1p00UXO/YRkE3vzE9k63otjY+du6e85pLh5LznLicJxafNY0nwd6D7orZJjJ9DsnmShGKQAfgliQcEyo/ALBQWAQHN9CCWTT48ZwNirI+yKGfY3saNFxVubtWpVm9as6dL6y9q1dr3JZX165zv+VqtWt3n3wGcm3P5hr5CwSx7a38ja20OyufGDJ/s6do4L+31P/2HvN8FjH7fJbZd2Dki98b3abr4+sOnvdXPoDKWra3Vj7Fy1h2oUD83RzvSImvukHem9ui42X5tji9QQO1PdsxZp7eomDfTszQ+yJpw/aNHddzv3k8qOLRRc+8cmmz6gdvOezHS8rtym7yoeO8tZTtjY26X60gfVb763t01l7P8PxjxeDgH8FMSCAvALBQWAQHN9ECUnn0RiJH+Fg90uFBWNTU+qv3+v4slntW59u9as3ab1G9q0as1t3nKlq1Z3Kp0YVntL/qqH7b3mucn8pef29pF41yFvfop44sitId4yhT22yJBSmYPea27P7hl9fEfPAW/pw0ZzzKe2Pq6OORdoIDRP11Wv1GDukLpSUmdooZLh+dqU2qNM+8u63bxuw7bn9b41A2qqXaJEdIH5eoE3B0XxvEGN6uud+wk5Xnqzh70JNHdm9uhm895pDNUqGVviLCeKse9N+/7PpYJ5W9TxAvgtiAUFy4zCLxQUAALN9WGUnFpssWCXGh0tKky8yTLHXImwbn2LLrxol9Zv6NCq1U1atapd69d36aJLmr373C/f8FfmuT/Xu97z18qmh3Xzxm+rO/5TZRJ7tX1QGkjny4mdt5vzZg4qncqvzNHaKcUH8q9hi47clh9oS3S+2iMXamOsXjfXXeVNBNhpXqPRnGNj5BzdMHe1+sxrrLusSesva9VVa7t1+SWtuia2To1VNbrKDMS2F249CXLU2encT4grt/eOeJNc2qKxIzRHHXbJ3thSbauKKBOZ43xOMZlj3J4V5AClIIgFBcuMwi8UFAACz/WhlJx6em2JkDEDHPO9vS3Du21jwjGJ1KveJJpr1trbP7Z6V1ds2JDUmnUtWnnJNq1eu1Wr12z2bhdZuaZFa1YnddFFLd6EnFddtT1/68jlXzLHDGjVqk5tqllqBlPn6Lr17RroeUU3112trllVag0tUnPkIvW2Dys5sFvd3T/1nrt6bY/ao4u0asX1umBVSusua9CFFzV557xi7aCuqG1WT5c5viv/5why9Ku/Kv3kJ87HCBmblpTUlpWGMnuUjC1SR/QMtVcvVXt4vj6y6Brnc8o5QKkIYkEB+IWCAkDguT6YktOPLSrsb2Ez5vt4V37uiImxl4XbuShWrupQX/ag1qzv0VXv/JzWrMlp3frbtWr9Fl12WVyr1qS14fKcLtvQqEtWNZvjN2vd2pQuWXODVq3eZrZvUWO4To2hWdoUrVNbeKG2xSK64uyLdOOCNXrPykatXNOote9pM6+xVZdv6NSadQ36eGi+3nnRNbps/V+pq+tpbe8/5F2dYX+2QfOz2bk1ch1HbiEJalh2lJwoycxh9e2UeR8e0G2Rc9QZsSvdLFA8usgrLVzPKecApSSIBQXLjMIvFBQAAs/14ZRMbXr7zED/RBPn2UFQ1l6xsEe9KfOc3p8qm96rNev61dX5nNZt6NOqNRnviosLV7ab77u07rIuXX55Tpes6tHqy+5Sds4CNc9aqC2Rat0UW6k/u+hjetv6nM5bdYvWXN6kK69K6M/W36o165Nauzapd27oUC4UU0dn/taUnTvMQC25X+n0iLdiiP257PKKR/2sAYt+93ed+wmxGUq8oi7z/tyy/C/VGlvurWxjb+2Ix85W/ETv2zIMUGqCWFCwzCj8QkEBoCy4PqQSf2KvqLBzS9hioNds27kmMskjVzHEO/aqr9cet0cDuUOK29s3Os33ffmrNNJmQJUKr9HG8BVKp1/ySo9sz37tMOftyR1QY2ZY7W3mHLk9XjK7zHkjZ6htwDwvfVhJe/+9OY+dP6P4muUQbdjg3E+IXZI3HYoqHq5VMrpQTdFzlA7PUcLsdx1fzgFKURALCpYZhV8oKACUBdcHVeJvsrk96jEDJHtlg52vIt4+fi4LO7+FTaJjWOm4lOoa//zPp3+mHU0jujt3UN3erSR7vYLCXiHhrThQuEKioU+6NXaJOuYsVjZ9SLv6pZx5Tfu4PW7sOYMcnXuu9D/+h/MxUrmx5URbZKHaoou8lTo2V83V5uoLNZja7Ty+XAOUsiAWFIBfKCgAlAXXB1ZSGkml8rdbdHXtcz5u05eV+vuldOHqh3GPdb6qVPyAenvyhUY6PX4+DHt1Rc/dZn846k2umUke0M7BwmNlVFDYaPly535SmRlbTtj0RWuVuPl7zmPLOUCpC2JBwTKj8AsFBYCy4PrQSkor9tYPezWF67FibAHh2l9MvHDbxtgrKGwGU/uU7ZM6ay7StYs+oHh8/+hj5Rbb5Lj2k8rKuHLCfLXbruPKPUAQBLGgYJlR+IWCAkDZcH14JeUZW1BMLDvsbSR35kaUi8V0R+rVcQVGOUXV1c79pDIy8aoJygmg9AWxoAD8QkEBoGy4PsCSYKY/ZW/7cC9tOjZ9fUe+T5vkeqTP9+3VxuoL1VrGqxdo82bnflLeoZw4EiBIglhQsMwo/EJBAaBsuD7EkuAm0ScNpczXkxiAJRMHlclKndEl2lx9gVJlWlLo13/duZ+UbygnjgQImiAWFCwzCr9QUAAoK64PsySYuf128wEpITX37cvPOdF19ASaE5Oyc1jYFTzM8alQtTIdw87jyiG6+mrnflJe+UzDN9Xf+gLlRCFAEAWxoGCZUfiFggJAWXF9oCXBTH/Ly7o1XKsbI/VKD0qJrDTYc1jZ9IETrs7RY4755HapcVadtpxg4s2gpqqqSvryl52PkfLIR2reqZtjF6hpVq0aI2dWdDkBBFkQCwrALxQUAMqK64MtCW42LbhSjbPmKBGq0ebocjX94YfU1CvlBm0JMaKs+d71vGJub3tBdyVfdT5WDrElhWs/CX4Gcwd0h/nv2xo7R7lZMSWqZlFOAAEVxIKCZUbhFwoKAGXH9QGXBDNb4tLOzB41Rc7UlvAZapo1R/HwPDWF5ummMz+kZDJ/20dPhV7uTso39qqhjaF6NYZi2hRdrl1tzyq33X1sOQcoB0EsKFhmFH6hoABQdlwfcklw098jr4jozR5We6RO7eE6NVSfq+3VC9QSPVNbImfo5qUf0va+E89RUY5Rfb1zPwl+Ogeka+uuUDa9x5tbpX3C0rrlHqBcBLGgAPxCQQGg7Lg+6JLgZntmv7rSUk/msJJmu69jWJ/e8m/qjNSpbVZE8Zrl6gxVqzVcW7mXwHd2OveTYGdn+qDu6t+vVJ/U0uM+plwDlJMgFhQsMwq/UFAAKEuuD7wkuOkyyWXyS4h2Z0c0mNwz7vGelHTDWddra/Tc0ZUO0uGo2mPLxh1XrlEo5NxPgp9Nu6Sh+IvOx8o1QLkJYkHBMqPwCwUFgLLk+tBLgp3tWam3V0qnpFTXIcUdv1Huyox4V1AUl2TcNuc8JSL1aqq5SPe3fOeo48sp+su/dO4nJEgBylEQCwqWGYVfKCgAlCXXB19SPulJva5szv1YMbao2Bw9R7fVXKCucJ3aI/Vqjp2tpkh5XlXhLTv6zW86HyOk1AOUsyAWFIBfKCgAlC3Xh2BSHsllD6inV4on3Y9350bUX1iCNNW1VzsGpYbqs9UWqVVLuEbp6sVqH5jwnDIIy46SIAYod0EsKFhmFH6hoABQtlwfhEl5JNsv9XePqDtxSMljlBS526W+nNQblz7T8SP1h6NK1S5XIrpAmegcNUQXa0fnbudzCSEzE6ASBLGgYJlR+IWCAkDZcn0YJuWTVMqu7HFQfeZrMicNpCc8njykz29+XPHIIt0wZ5U2R2vVbL7fUrNK2QHzHHsFRufwuOeUQ/SmNzn3E1JqASpFEAsKwC8UFADKlusDMSmfDHbvVSIrtZjvexK71ZWTurZLHV1Sb+GYRFVInaFadUXq1BCKaGNspVJNLypuntefOaDu5D4NpsuwpBgYcO4npFQCVJIgFhQsMwq/UFAAKGuuD8akfNKVlnqz+Vs+tuWkzo79+mR6r3Z07NVQ24/UGlukjnBUbeF6fXzWBebYw9ppjmtoO6RdyVe8c/Sa5048b9Cj2bOd+wkphQCVJogFBcuMwi8UFADKmuvDMSmf9A5It8VWqsVeJVHzJn1627d1Tf1HdVvkbPVWVSkeq9P1cy7T++verR2ZV7UjvUfb01I2PqJU1n3Ocom2bHHuJ8TPAJUoiAUFy4zCLxQUAMqa6wMyKa/san9e2VBIHeGI2qL1ui40X4lZMfP9YrWFa3Tr/NVq2S59LrPXO74r/bpyOSlri4qU+5zlEP3ar0k/+IHzMUL8CFCpglhQAH6hoABQ9lwflEn5pKVf2mrnmKiqUmdkkVoiC7yioiV8vu7qHlam46fenBOdE66YyORM7DwUY/aVW/Te9zr3EzKTASpdEAsKlhmFXygoAJQ91wdmUl5JJ/doU/VybY4s9EoKm4al79XOHVJ/Uhqw81MkdmtH9vDoc5LJ/eo3+wd6y7ek0B/8gXM/ITMVAMEsKFhmFH6hoABQ9lwfmkkZplvqje9Te3SBmiPzvZLi1uhypcNzlTGP2WN6Cl+LsUuV9iUPqL97xDz/SHlRTtHKlc79hEx3AOQFsaAA/EJBAaAiuD48k/JMXzL/1RYV6XCtOiJ1SsQWqS2ycLSoKGawZ79360cme1CJ5GGlxzxWTtGnP+3cT8h0BcARQSwoWGYUfqGgAFARXB+gSXnHFhVe0iNKVS9WW3RRPpGF2tkn3Z7e4x2XTB1SW0oaSryuePuwenLu8wU5VVVVzv2ETEcAjBfEgoJlRuEXCgoAFcH1IZpUTpL9JukRr5ywJUVz7CzdWlWjZLharZGzTJboY7FVGkjvU0fnfuc5CCEnDoCjBbGgYJlR+IWCAkDFcH2YJpUXe5uHLSpaw7VKVJ+h7prFSoTnqSVSr0RomT6+4Gq19LmfG+QoFHLuJ2SqAsAtiAUF4BcKCgAVw/WBmlRu7O0f8a4RbyWPW5b8hbaGFioTCmtLdZ2+kNjtfE7Qo2uvde4n5HQC4PiCWFCwzCj8QkEBoGK4PlgTkrarf5gM9RxSV8rsi0stsTPVtP3oY4MezZ7t3E/IqQbAiQWxoGCZUfiFggJAxXB9uCakmHhOyvRI2QGpo1vqybqPC3r01rc69xNysgEwOUEsKAC/UFAAqCiuD9mEjE0mmy8nUtn9SqfdxwQ9euAB535CJhsAkxfEgoJlRuEXCgoAFcX1QZuQYyWdGHbuD3r05jc79xMymQA4OUEsKFhmFH6hoABQUVwftkl5Zlubez8h5NQD4OQFsaBgmVH4hYICQMVxfegm5Zd/umGHPhGqU67L/XilRzU1zv2EHCsATk0QCwrALxQUACqO64M3Kc9siS1RKlyjzdVvcj7uSqbPvb8co9tuc+4nZGwAnJ4gFhQsMwq/UFAAqDiuD+CkPJPpkprDdWqN1anZpCOy0Ivr2LFJm2Ry7sfKKQqFnPsJKQbA6QtiQcEyo/ALBQWAiuT6IE7KM9nsIfUmpcZQnVoiZ3gplhWu421yyYMa6JV6zfd9KTtZ5n7nceUQve99zv2EAJgaQSwoAL9QUACoSK4P46R8k85J2Z4DXlFh0xVdNL6o6JP6uias2GFv9UiO6K7+w8ptN883+5JleFVFVVWV9JWvOB8jlRsAUyeIBQXLjMIvFBQAKpLrAzkp/2RzUqonn7FFRWN4gdqql2lr9AzliscmD6qzX2rMSlua92gwe1C5XqkvfVjd6b1HnTvI0SWXOPeTygyAqRXEgoJlRuEXCgoAFcv1wZxUTjLZkXFFRU8opK7IWWoL16o1Uq/r695pvtbpuoVXa/uAtGPj19WX2qtOW3KY52Q7X3Wel5AgB8DUC2JBwTKj8AsFBYCK5fpwTiovxaIiFVmg/xn/P2qtPlttkXOUjC1RR3i+euacpU3hejWY7Y3hs7Qltlx9t/1InVn3+YIa/cEfOPeTygmA6RHEggLwCwUFABiuD+ukAhMK684dUn/idTVWL9JfnnO9ctFFSs1Zru5IRMnwXDXPqldH9AxtPft96up2nCPAUTzu3E/KPwCmTxALCpYZhV+qbDlBQQEA47k+wJPyj50w097u0dczoky31DcgdfVLO+PD2pHZp03VF+mWyLnepJv2a85OpOk4T1CjX/s16ec/dz5GyjMApl8QCwqWGYVfKCgA4ARcH+pJQJOWkinH/jGxk2baWz6K29mElDHPy/RJWwfs3BPD2t63Xw1xKdX8s3HHlkN03XXO/aT8AmBmBLGgAPxCQQEAJ8H1IZ8EK53xQxrMHVJPSl4mPl68isLOTTF2f0+PlEvsU3fTsDK9Zl9OGsjsV0fn/nHHBT2aPVv61recj5HyCYCZE8SCgmVG4RcKCgA4Ra4P/aT0k8hKqZzUmxpRJntYWbM9saiYeBXFxGQS+9U/ZM6TPuxNlpnrdx8X1OiKK5z7SXkEwMwKYkHBMqPwCwUFAEwB1yCAlGa229U3dkq9DT/ybt1Im31eUdGt0bLiWFdRTExbwhyfPqBsYq/z8aBGb3qTcz8JfgDMvCAWFCwzCr9QUADAFHMNCkhppa9XuvnMD+oDkYvUnZR6u48UFTafqLlQWyLLJz+/RPdh9/4AR29+s3M/CW4A+COIBQXgFwoKAJhmroEC8Tnte/Tp5v9QR2S+mqPzzdcFo0VFsaxojy5QR3iRunvNvjJbrWOy0fbtzv0keAHgnyAWFCwzCr9QUADADHINHIg/GeyV7k69rHS4Rk3ReV6KRYVN08JVSoTnKJ6TWtJSf9ZOinn8Wz7KLfrd35X2ltftK5UWAP4LYkHBMqPwCwUFAPjENZggM5fB1F4NbjcfwnpHvELClhPFoqJYViRqz1UuJ+3qlT7Te1AdKSnXnU+mzJYXPVaqqqqc+0npB0BpCGJBAfiFggIASoBrcEGmP739UkevSU/+1o5iUVEsKxrCb9KtsfPUMSuibdHlujFyobrShck0zbED6b3qyRxWKr7Pef5yiH71V537SWkHQOkIYkHBMqPwCwUFAJQY12CDTE96ksMaSg0r07nXmxzTzj1RLCqKZUUyMkdt1Yt0W3SB0jGTcK1aY/VqjdR5RUWm43VvMs3mAallwnKl5RL99//u3E9KMwBKSxALCpYZhV8oKACghLkGH2TqY4uGZLf5am/dsCt5FJYftWXFoHmsKbxIbWdcpW2ROjVFF6kldqZaowvVHFugeOws3Vy9UvHwPPWl9qpvp/s1ghzV1zv3k9ILgNITxIKCZUbhFwoKAAgI12CETH16UmOKisJVFYOZA9qxXWrok1KtL+vO7vxkmR2RRV5R0Wq+tlcvVWdksVpjy9UcW6a2yEJl7NUYY84d5Oi//TfnflI6AVCaglhQAH6psm8CCgoACB7XAIVMXWxRUSwrenP7lO6VWu33HbvV2S+ls0eOzUTmaGfzk4pHF6kjslDJ6EK1me+9jCkqmgO+XKk++1nnfuJ/AJSuIBYULDMKv1BQAEAZcA1YyNTFKypsIdF9WFm7ekdyRN3HKBvazHEtoblK3Pw9r5wYW1TYfLzuSvUGdFJNLVrk3E/8C4DSF8SCgmVG4RcKCgAoM65BDJmipKU+87XXZKA3f3WF8ziTwdRu76u9emJsUdEYOVOtsXOUbnvpqOcEISw7WjoBEAxBLCgAv1BQAEAZcw1qyNQkkzNfs/m5KCYTW1QUy4pE1SzdFlvqPK7Uo1//ded+MrMBEBxBLChYZhR+oaAAgArhGuQQf5LbLvWlh3VX/37n46UeXX+9cz+ZmQAIliAWFCwzCr9QUABABXINesjMpj0r3ZXc43ys1KPqaunb33Y+RqY3AIIniAUFy4zCLxQUAADnQIiQ40V/9mfO/WT6AiCYglhQAH6hoAAAjOMaGBEyMXayTP3N3zgfI1MfAMEVxIKCZUbhFwoKAMAxuQZKhBSjc8917idTGwDBFsSCgmVG4RcKCgDApLgGToSQ6QuA8hDEggLwCwUFAOCkuQZTpDKj3/1d535yegFQPoJYULDMKPxCQQEAOC2uwRWprGjrVud+cmoBUF6CWFCwzCj8QkEBAJhSrgEXKe94E2Y+9ZTzMXJyAVB+glhQsMwo/EJBAQCYNq4BGCnP2JLCtZ9MPgDKUxALCsAvFBQAgBnhGpCR8gkFxekFQPkKYkHBMqPwCwUFAGDGuQZoJPjRqlXO/eT4AVDeglhQsMwo/EJBAQDwlWvARkglBEBlCGJBAfiFggIAUDJcgzgSrGjxYud+Mj4AKkcQCwqWGYVfKCgAACXJNagjwYiSSed+kg+AyhLEgoJlRuEXCgoAQCC4BnqkNKNwWHrxRedjlR4AlSeIBQXLjMIvFBQAgMBxDfxIaYVVPY4OgMoUxIIC8AsFBQAg0FwDQeJ/9Du/49xfqQFQuYJYULDMKPxCQQEAKBuugSHxL3rb25z7Ky0AKlsQCwqWGYVfKCgAAGXJNVAkMxstWyZ96UvOxyohAGAFsaAA/EJBAQAoe67BI5mZ6C1vce4v9wBAURALCpYZhV8oKAAAFcc1oCTTFw0NOfeXawBgrCAWFCwzCr9U2XKCggIAUKlcA0wytdGcOTKfvJ2PlVsAYKIgFhQsMwq/UFAAAFDgGnCSqUklLDsKAC5BLCgAv1BQAADg4BqAklOPfuVXnPvLJQBwLEEsKFhmFH6hoAAA4ARcA1Jy8tFf/IVzf9ADAMcTxIKCZUbhFwoKAABOgmuASiYXLVggffWrzseCGgA4kSAWFIBfKCgAADgNrkErOXa0apVzf9ACAJMVxIKCZUbhFwoKAACmiGsgS46O7rnHuT8oAYCTEcSCgmVG4RcKCgAApoFrYEvy0eLFzv1BCACcrCAWFCwzCr9QUAAAMM1cA91KTxCXHQWAUxHEggLwCwUFAAAzyDXwrcToDW9w7i/VAMCpCmJBwTKj8AsFBQAAPnENhCsp+vjHnftLLQBwOoJYULDMKPxCQQEAQAlwDYzLPfY2D/Op3flYqQQATlcQCwrALxQUAACUINdguRxTqnNRAMBUCWJBwTKj8AsFBQAAJc41gC6XlGJBAQBTKYgFBcuMwi8UFAAABIhrQB306LzznPv9CABMtSAWFCwzCr9QUAAAEFCuAXZQox07nPtnMgAwHYJYUAB+oaAAAKAMuAbcQYre+Ebn/pkKAEyXIBYULDMKv1BQAABQZlwD8CBEDQ3O/dMdAJhOQSwoWGYUfqGgAACgzLkG5aUYzZolPf2087HpCgBMtyAWFIBfKCgAAKggrkF6KWWmVvUAgJkSxIKCZUbhFwoKAAAqlGvg7ndUV+fcP5UBgJkUxIKCZUbhFwoKAADgHMj7FV16qXP/VAQAZloQCwqWGYVfKCgAAMA4roH9TEZ/8ifS5z7nfOx0AgB+CGJBAfiFggIAAByTa6A/E9EZZzj3n2oAwC9BLChYZhR+oaAAAACT5hr8T1eUSjn3n2wAwE9BLChYZhR+oaAAAACnxFUGTGX0hjdIL7/sfGyyAQC/BbGgAPxCQQEAAE6bqxyYiujjH3fun0wAoBQEsaBgmVH4hYICAABMKVdZcKrRb/+2c//xAgClJIgFBcuMwi8UFAAAYNq4CoSTjd7+dud+VwCg1ASxoGCZUfiFggIAAMwIV6EwmVRVVUkPPuh8bGwAoBQFsaAA/EJBAQAAZpyrYDhebEnh2l8MAJSqIBYULDMKv1BQAAAA37lKh8kGAEpZEAsKlhmFXygoAABASXGVEDaaO/fofQBQ4oJYUAB+oaAAAAAl66hCorHxyPcAEABBLChYZhR+oaAAAACB4JUSv/zL0jPP5HcAQAAEsaBgmVH4hYICAAAER1ub9IEPFDYAoPQFsaBgmVH4hYICAAAEx+HD0u//vvS1rxV2AEBpC2JBAfiFggIAAATLJz8prV5d2ACA0hbEgoJlRuEXCgoAABA8F14o/dVfFTYAoHQFsaBgmVH4hYICAAAEzz/8g7RkSWEDAEpXEAsKwC8UFAAAIJje/W4pnS5sAEBpCmJBwTKj8AsFBQAACCZ7f/Rv/Ib0yiuFHQBQeoJYULDMKPxCQQEAAILrE5+QbryxsAEApSeIBQXLjMIvFBQAACC4Xn9d+u3flr7zncIOACgtQSwoAL9QUAAAgGDr6ZGuvLKwAQClJYgFBcuMwi8UFAAAIPjOPlv6278tbABA6QhiQcEyo/ALBQUAAAi+e++Vzj+/sAEApSOIBQXgFwoKAABQHtatk3buLGwAQGkIYkHBMqPwCwUFAAAoD489JtXWynyqLuwAAP8FsaBgmVH4hYICAACUjw9/WGpsLGwAgP+CWFCwzCj8QkEBAADKx/PPS7/0S9IzzxR2AIC/glhQAH6hoAAAAOWltVW65prCBgD4K4gFBcuMwi9eQXHfffdRUAAAgPJw6JA0f7709a8XdgCAf4JYULDMKPxCQQEAAMrPnXdKa9YUNgDAP0EsKAC/UFAAAIDy9Md/LH3+84UNAPBHEAsKlhmFXygoAABAefr7v5fOPLOwAQD+CGJBwTKj8AsFBQAAKF/vepeUyRQ2AGDmBbGgYJlR+IWCAgAAlC87C30kIr36amEHAMysIBYUgF8oKAAAQHm75RbpppsKGwAws4JYULDMKPxCQQEAAMrb669L0aj03e8WdgDAzAliQcEyo/ALBQUAACh/PT3SO95R2ACAmRPEggLwCwUFAACoDGefLf3d3xU2AGBmBLGgYJlR+IWCAgAAVIYvflH6oz8qbADAzAhiQcEyo/ALBQUAAKgc69ZJt99e2ACA6RfEgoJlRuEXCgoAAFA5vvENqbbWfuov7ACA6RXEggLwCwUFAACoLB/6kNTUVNgAgOkVxIKCZUbhFwoKAABQWZ57znwCqpKefbawAwCmTxALCpYZhV8oKAAAQOVpaZGuuaawAQDTJ4gFBeAXCgoAAFB5/uu/pHnzpK9/vbADAKZHEAsKlhmFXygoAABAZbrjDmnt2sIGAEyPIBYULDMKv1BQAACAyrVihfT5zxc2AGDqBbGgYJlR+IWCAgAAVK6HH5bOOquwAQBTL4gFBeAXCgoAAFDZ3vlOqbu7sAEAUyuIBQXLjMIvFBQAAKCyfe970m/+pvTaa4UdADB1glhQsMwo/EJBAQAAcPPN0saNhQ0AmDpBLCgAv1BQAAAA7N4t/dZv2ZFEYQcATI0gFhQsMwq/UFAAAABY2ax01VWFDQCYGkEsKFhmFH6hoAAAAChaulR66KHCBgCcviAWFCwzCr9QUAAAABR98YvSBRcUNgDg9AWxoAD8QkEBAAAw1p/+qbRrV2EDAE5PEAsKlhmFXygoAAAAxvrGN6Tf+z3p4MHCDgA4dUEsKFhmFH6hoAAAAJjoQx+SmpsLGwBw6oJYUAB+oaAAAACY6Ec/Mp+SqvJfAeA0BLGgYJlR+IWCAgAAwMVeQfHBDxY2AODUBLGgYJlR+IWCAgAAwMXOQTFvnvToo4UdAHDyglhQsMwo/EJBAQAAcCx2NY+1awsbAHDyglhQAH6hoAAAADieCy6QvvCFwgYAnJwgFhQsMwq/UFAAAAAcz0MPSUuXFjYA4OQEsaBgmVH4hYICAADgRK66SuruLmwAwOQFsaAA/EJBAQAAcCL2M9Jv/Zb02muFHQAwOUEsKFhmFH6hoAAAAJiMjRulm28ubADA5ASxoGCZUfjFKyjuvfdeCgoAAIDjsVdP/OZv5q+mAIBJCmJBwTKj8AsFBQAAwGTZeSje+c7CBgCcWBALCsAvFBQAAAAn46yzpIcfLmwAwPEFsaBgmVH4hYICAADgZHzhC9KKFYUNADi+IBYULDMKv1BQAAAAnKy1a6U77ihsAMCxBbGgAPxCQQEAAHCyHn1UmjdP+q//KuwAALcgFhQsMwq/UFAAAACcig9+UGppKWwAgFsQCwqWGYVfKCgAAABOxY9+ZD5JVUnPPVfYAQBHC2JBwTKj8AsFBQAAwKlqbpY+9KHCBgAcLYgFBeAXCgoAAIBTZQcPv/d70je+UdgBAOMFsaBgmVH4hYICAADgdOzaJf3pnxY2AGC8IBYULDMKv1BQAAAAnK4LLpC++MXCBgAcEcSCAvALBQUAAMDp+ru/k5YuLWwAwBFBLChYZhR+qbrvvvtkQ0EBAABwGt7xDimbLWwAQF4QCwqWGYVfKCgAAACmwne/K/3Wb0m7dxd2AEAwCwqWGYVfKCgAAACmyk03STffXNgAAOagAE4GBQUAAMBUefVVKRKRvve9wg4AlS6IBQXLjMIvFBQAAABTKZOR3vWuwgaAShfEgoJlRuEXCgoAAICpduaZ0sMPFzYAVLIgFhSAXygoAAAAptrnPy/98R8XNgBUsiAWFCwzCr9QUAAAAEyHNWukO+8sbACoVEEsKFhmFH6hoAAAAJgOX/+6NH++9F//VdgBoBIFsaBgmVH4hYICAABgulxzjdTaWtgAUImCWFAAfqGgAAAAmC7PPiv90i9Jzz9f2AGg0gSxoGCZUfiFggIAAGA6NTVJH/5wYQNApQliQcEyo/ALBQUAAMB0sgOM2lrpsccKOwBUkiAWFIBfqu6//34KCgAAgOl0++3SunWFDQCVJIgFBcuMwi8UFAAAADPhj/5IuvfewgaAShHEgoJlRuEXCgoAAICZ8Hd/J519dmEDQKUIYkHBMqPwCwUFAADATHnHO6SensIGgEoQxIIC8AsFBQAAwEz5znekaFR6/fXCDgDlLogFBcuMwi8UFAAAADPpppukW24pbAAod0EsKFhmFH6hoAAAAJhJr7wiRSISv50EKkIQCwrALxQUAAAAMy2dlt71rsIGgHIWxIKCZUbhFwoKAAAAPyxZIv393xc2AJSrIBYULDMKv1BQAAAA+OGv/kr64z8ubAAoV0EsKFhmFH6hoAAAAPDL6tXSnXcWNgCUoyAWFIBfKCgAAAD88rWvSb//+9KhQ4UdAMpNEAsKlhmFXygoAAAA/PSBD0htbYUNAOUmiAUFy4zCL15Bce+991JQAAAA+OGZZ6Rf/mXp+ecLOwCUkyAWFIBfKCgAAAD81tgofeQjhQ0A5SSIBQXLjMIvFBQAAAB+swOBuXOlf/mXwg4A5SKIBQXLjMIvFBQAAAClYOdOaf36wgaAchHEgoJlRuEXCgoAAIBScf750n33FTYAlIMgFhSAXygoAAAASsXf/q10zjmFDQDlIIgFBcuMwi8UFAAAAKXkyivtDeCFDQBBF8SCgmVG4RcKCgAAgFLyne9Iv/3bMiOWwg4AQRbEggLwCwUFAABAqbnxRukTnyhsAAgyCgpg8igoAAAASs3LL0u/8RvSv/97YQeAoKKgACaPggIAAKAUpdPSu99d2AAQVKdbULiOnYnYn5mQmQ4FBQAAQKlaskT6h38obAAIoqkoKIaHh7Vnz54ZiX0t+5oTB46EzEQoKAAAAErV5z4nXXhhYQNAEE1FQWGLg4nHT1eKrzVx4EjITISCAgAAoJStXm3X/CtsAAgaCgpCJh8KCgAAgFL2v/6X9Pu/Lx0+XNgBIEgoKAiZfCgoAAAASt373y+1tRU2AAQJBQUhkw8FBQAAQKl7+mlp1izphRcKOwAEBQUFIZMPBQUAAEAQNDRIH/lIYQNAUFBQEDL5UFAAAAAEwf790hvfKP3LvxR2AAgCCgpCJp8pLyiqqqrGxeVEj4/lOm7s8yfG5XiPAQAABMaOHdJllxU2AASBnwXFV7/6VX3qU5/y8pWvfMV5zMRQUBA/M6UFxWSKgLHHnOzxx+M6rrjP9RgAAEAgnXeeZD6/AQgGPwqK1157Td/4xjdGy4mvfe1reuWVV5zHTgwFBfEzU1ZQTKYEcB1zvOcVHzvW42NN5jwAAACB9+CD0h/+YWEDQKmb6YLi9ddf1+OPPz5aTtirKF588UXnsa5QUBA/UxYFxYmOmcw5AAAAAuPtb5d6ewsbAErZTBcU//7v/z5aTtjzTfbKiWIoKIifKdmCorj/WI+PdaJjJnMOAACAwHjiCSkWk4aHCzsAlKqZLCi+9a1v6TOf+YxXTjzyyCP68Y9/7DzueKGgIH5myguKiRnrVPa5Hh/rRI9bkzkGAAAgUD7+cWnTpsIGgFI1UwXF008/PVpOfOELXzip2zrGhoKC+JlpvYJi4r7JHGON3ed6fKwTPW5N5hgAAIBAefll6Q1vkL7//cIOAKVopgqKhx9+ePTWjscee8x5zGRCQUH8TNV9991XUgXFibYnOtHj1mSOAQAACJxUSnrPewobAErRTBUUduWOBx98cLSkmMxrukJBQfxMyRYUrkx0rP0TTfY4AACAwDnjDOkf/7GwAaDUzFRBYfOzn/1M//zP/zxaUvzrv/6r87jjhYKC+JmSKygmOt7jJ3pu0WSPAwAACJzPfU76kz8pbAAoNTNZUNic7pUUFBTEz8xoQWGN3ed6fKLjHTOZ51uTPQ4AACCQLr1UuuuuwgaAUjLTBYXN6VxJQUFB/MyUFRRWsQgYG5cTPT7WZM5zIpM9DgAAIJC++lWprq6wAaCU+FFQ2JzqlRQUFMTPTGlBAQAAAJ+8//1Se3thA0Cp8KugONVQUBA/Q0EBAABQDn74Q2nWLOnHPy7sAFAKKCgImXwoKAAAAMrFtm3SRz9a2ABQCigoCJl8KCgAAADKhRng6I1vlB5/vLADgN8oKAiZfCgoAAAAysnQkHTZZYUNAH6joCBk8qGgAAAAKDdveYt0//2FDQB+oqAgZPKhoAAAACg3X/qStGxZYQOAnygoCJl8KCgAAADK0dveJvX2FjYA+GUqCorh4WGvOJiJ2Neyrzlx4EjITISCAgAAoByZD3r6nd+RGW0UdgDww1QUFH5k4sCRkJkIBQUAAAAATJPTKSiASkNBAQAAAADThIICmDwKCgAAAACYJhQUwOSNKygefvhh7w1BCCGEEEIIIeT0Y8dYJ1NQMCYjlZxxBQUhhBBCCCGEkKnNyRQUhFRyRguK//f//h8hhBBCCCGEkCmOXb7TVUqMzS9+8QvncwmppIwWFK43CSGEEEIIIYQQQshMhIKCEEIIIYQQQgghvoeCghBCCCGEEEIIIb6HgoIQQgghhBBCCCG+h4KCEEIIIYQQQgghvoeCghBCCCGEEEIIIb6n6v7776egIIQQQgghhBBCiK+hoCCEEEIIIYQQQojvGS0oAAAAAAAA/EJBAQAAAAAAfEdBAQAAAAAAfEdBAQAAAAAAfFd+BcVTd2l1pEqh+o165NXCvqky/BVtqg+pKrJau548UNgJAAAAAABOV9kVFE8NrVBVVZWX6x8p7DzKI7q+cMxojn3wEY9cP3r8iqGnCjsBAAAAAMDpchcU+57Wg61X6C21kcKAPKLat1yh1gef1r7CISVrUldQnGJBwRUUAAAAAABMi6MKigNP7vIG+OMG76NZofK7cKBQVkymoAAAAAAAANNifEEx/BVtnJcvI+Zd2a0vf/+1whUTB/SL57+tezddq7soKAAAAAAAwBQbV1C8cPdar5wIbbhbz07yDoZ9Tz+o1iuWaXYoX2yEZtfr0k0P6ulx94LkS4AVQ0/qyXverXp7bOE2iVcf2aQz7RUbkfPV9dhw4Xg73YPZN7tBjx14Tg+1XqFls0Pe+SO1l2rTQ89p4o/nHW+LhtFcb151Mk5cUIyd1yKfY19Jkj/WvPaBF/X40PtGf+7Q7GV6393/13GLzAG9+PiQ3veWWkXGvcaJXwsAAAAAgHIxpqB4VrsutgPixUo8kX/wRF595HrNcw6qTeaZQfroHBD5EmD2hg1aMeaY2e/5C20oFBteNtyjnxef4RUOK3TxxfkB/vjMU8Nj4yuK0iooZmvZsnkTnmMzW9c/cqSEsY77d+iFggIAAAAAUP7GFBSFgfpkB/bD5vjZ9vh5ev+939dr3qUB9laQR5UolArzWr/pHXrk3FUKXX2vXtz3kD5a3L54SE/u+5baF5vt0EZ9pfiM0cJhnq4celTP/+KAOf0v9J3+ixWy+69+QOOH+kfknzt1BcVY+QLiRAWFff2Q6j9yr35Q/Lmz+f2hjcU/ofU9dS81x4aWaeODP5A91B77/KMJXRyyfze7RDcBAAAAAKgEp1xQDD9wtTfgXpp44qjbLfTqA7raXhmxOKH8xRjFcxcH9k9paIXdXqrEE/bZxe0jr50vGZZq89cnLsXxhBITyoyJ/C8oQlrW8HWN+8l/fo82HPU6hdde9yn9uLAnb58evOZk/gwAAAAAAATbKRcUxVsZGh4r7BhnYuFQOPeKocIVAYXHJ24fVVC4fpYDeuijx3osz/+CwvW463UeU4O9CiW0TA2PPH/kCopHGrRsXMEDAAAAAEB5G1NQFK5MmOQcFPmB+LGOnc6CYlgPXH2sx/KCU1BIrz54jX7L7j8q83T9kUk8AAAAAAAoa2MKigP6+ubZ3uB49kcfGn97gsPP79ngHbu0+3uFPWMUb/EYLSCmsKAY/pLef4KrC4JTUDylXXa+jnnn69LRVTwiqn3L+zT0+ItH3zoDAAAAAECZGlNQGE8NFVbZCKn+3UN69JnXCsti7tNrz3xb9266VncVB94v3K219thQvT4ydpLMHzyojcvyk2SuvfsF79BTLyiu0qefeSl/64N37i+rbXXEO/eKYzUERmAKisLf91uS/6qf/vSnein/B52EA3py12qv0Iic36qjpumY6NVHtLHe/Dcx/63efc+TJyg+TvLcAAAAAABMgfEFhR2c3nPlcZa9HDvwNscOFVbUcCSyepeeHB0Jn2pB4Y638sfYUfZosXKsjC8M8iWC67hCRn8uq/CzHyfjO4eTKCh+/gVdaa8GmXA+L5FaXXrt3fqWsyAY/zOdqFsZ9+cd92dzOblzAwAAAAAwFSYUFHn7nn5QmfdeqvrZ+SshqkKzVX/ptRr68tOFKyqKDui5h1p1xejtCVWK1F6qa+9+XC+O+zX9VBQUIc2ud53bCGpBYf7+/k96mXeOSO3iI3/fY7O0W0ffRGOvcrhcs0OTv4Ji05mRk7iC4iTODQAAAADAFHAWFKXg5G7TCKbhr2z0rlZZkf2/E4ofad9PHtBH7QofzrIDAAAAAIDyQkHho+JVIivaH9Uz+Uk8PAd+8ZK+/+D1WmqvoAiZv4PjX/IAAAAAAEDgUVD46IV7NhxzDo985unKL3D5BAAAAACg/FFQ+Gqfnv7ykK69dLFqI0eKidDsel363owefHrijR8AAAAAAJSnki0oAAAAAABA5ai67777KCgAAAAAAICvKCgAAAAAAIDvKCgAAAAAAIDvKCgAAAAAAIDvKCgAAAAAAIDvyq+geOourY5UKVS/UY+8WtgHAAAAAABKWtkVFE8NrVBVVZWX6x8p7DzKI7q+cMxojn3w1HhqSCuO+zrFn2mD7vl5YRcAAAAAABXCXVDse1oPtl6ht9RGCgP4iGrfcoVaH3xa+wqHlKxJXUFRygXF9eY7AAAAAAAqy1EFxYEnd3kD/HGD99Gs0NBThQPLRqEY8L2geFL9b7F/xxQUAAAAAIDKM76gGP6KNs7LlxHzruzWl7//WuGKiQP6xfPf1r2brtVdFBSn5oQFxVMaWkFBAQAAAACoTOMKihfuXuuVE6ENd+vZA96uE9r39INqvWKZZofyxUZodr0u3fSgnh53L0i+BFgx9KSevOfdqrfHRlZr15MH9Oojm3SmvWIjcr66HhsuHG+ecb3ZN7tBjx14Tg+1XqFls0Pe+SO1l2rTQ89p4o/nHW8LgNFMdqA/uYJi4p/T+zmOdcvLgRf1+N3X6tL62QoVfp7I7ML3FBQAAAAAABxlTEHxrHZdbAfIi5V4Iv/gibz6yPWaVxiAH5V5ZqA9OgdEvgSYvWFD/iqCQma/5y+0oTDg97LhHhXnh8wXDit08cX5YmJ85qnhsfEVxXQWFMOPtWrZ2J9zTOZt/IqO1CrGgSe1a3Vx7g5HKCgAAAAAADjKmIKiMFCf7AB52Bw/2x4/T++/9/t6zbuUwN4K8qgShVJhXus3vUOPnLtKoavv1Yv7HtJHi9sXD+nJfd9S+2KzHdqorxSfMVo4zNOVQ4/q+V8cMKf/hb7Tf3H+SoSrHxhfDIyRf+4UFRQHHlODve0ldLEav/wD2R/D+3P+4Mtq9P6cS9X9Pe9IT/EqlMjqbj36/C8KV3rs02v/mtRbjvc6xYJizN8BAAAAAACV4pQLiuEHrvYG4ksTTxx1u4VefUBX2ysOFieUvxijeO7iJJvFqwWWKvGEffbRVw/kS4al2vz1iUtxPKHEhDJjoiktKB5r0Gzz+Nq7XyjsGOOJhBabxy7e9WxhR7FkeL++NLE9OeEcFIUrWFYMmbMAAAAAAFBZTrmgeGpohTl2thoeK+wYZ2LhUDj36OC78PjE7aMKCtfPckAPffRYj+VNZUHx7K6Lzbns+Y6d0MbR6z7y57p4l4qVxagTFhSFn5uCAgAAAABQgcYUFIUrEyY5B0W+oDjWsdNZUAzrgauP9VjeVBYU+T+nPd+xc1RBMWYujVEUFAAAAAAAHNOYguKAvr55tjfgnv3RhzTxxoqJfn7PBu/YpWMnYCgq3uIxOtiewoJi+Et6/7jbR442lQWFOZn357z6gWPNeDHWY2qw83Ic9bMd0JNDhbkzjlNQAAAAAABQqcYUFEbxt/xVIdW/e0iPPvNaYRnNfXrtmW/r3k3X6q7ir/dfuFtr7bGhen1k7CSZP3hQG5flJ8k8Mm/DqRYUV+nTz7w0bmLKtsIKGSvyk1k4TWlBUSxEIqvV9uXv66X8D3MMw/rS++2fPaSLE4/rRXPogV/8QA9uXDa63OgxX+fAY2qtDylUv3HM6icAAAAAAFSG8QWF/U3/PVcee+nQ0UkurTFXBTgSWb1LT46O5U+1oHDHW/ljbE8wWqwcK2N/bnv4CW7bGP258p66a7UiruO8jD/3gccaHH9/IdVvvF5X2e+PVVB8bdPoa3CRBQAAAACg0kwoKPL2Pf2gMu+9VPWz81dCVIVmq/7SazX05acLV1QUHdBzD7XqirfUjg6uI7WX6tq781cPHDEVBUVIs+td5zamuaCwf84XH79b115ar9n2aopxx48/t3fsP7fq0tr8lR7272PTg/bv7QRXanAFBQAAAACggjkLilJwcrdpAAAAAACAIKOgAAAAAAAAvqOgAAAAAAAAvqOgAAAAAAAAvivZggIAAAAAAFQOCgoAAAAAAOC7qvvvv5+CAgAAAAAA+IqCAgAAAAAA+I6CAgAAAAAA+I6CAgAAAAAA+I6CAgAAAAAA+I6CAgAAAAAA+I6CAgAAAAAA+I6CAgAAAAAA+I6CAgAAAAAA+I6CAgAAAAAA+I6CAgAAAAAA+I6CAgAAAAAA+I6CAgAAAAAA+I6CAgAAAAAA+I6CAgAAAAAA+I6CAgAAAAAA+I6CAgAAAAAA+I6CAgAAAAAA+I6CAgAAAAAA+I6CAgAAAAAA+I6CAgAAAAAA+I6CAgAAAAAA+I6CAgAAAAAA+I6CAgAAAAAA+I6CAgAAAAAA+I6CAgAAAAAA+K7qvvvuo6AAAAAAAAC+oqAAAAAAAAC+o6AAAAAAAAC+o6AAAAAAAAC+o6AAAAAAAAC+o6AAAAAAAAC+o6AAAAAAAAC+o6AAAAAAAAC+o6AAAAAAAAC+o6AAAAAAAAC+o6AAAAAAAAC+o6AAAAAAAAC+o6AAAAAAAAC+8woKGwAAAAAAAL9QUAAAAAAAAN9RUAAAAAAAAN9RUAAAAAAAAN9RUAAAAAAAAN9RUAAAAAAAAN9RUAAAAAAAAN9RUAAAAAAAAN9RUAAAAAAAAN9RUAAAAAAAAN9RUAAAAAAAAN9RUAAAAAAAAN9RUAAAAAAAAN9V3X///br33nsLmwAAAAAAADOPggIAAAAAAPiOggIAAAAAAPiOggIAAAAAAPiOggIAAAAAAPiOggIAAAAAAPiOggIAAAAAAPiOggIAAAAAAPiOggIAAAAAAPiOggIAAAAAAPiOggIAAAAAAPiOggIAAAAAAPiOggIAAAAAAPiOggIAAAAAAPiOggIAAAAAAPiOggIAAAAAAPiOggIAAAAAAPiOggIAAAAAAPiOggIAAAAAAPiOggIAAAAAAPiOggIAAAAAAPiOggIAAAAAAPiOggIAAAAAAPiOggIAAAAAAPiOggIAAAAAAPiOggIAAAAAAPiOggIAAAAAAPiOggIAAAAAAPiOggIAAAAAAPiOggIAAAAAAPiOggIAAAAAAPiOggIAAAAAAPiOggIAAAAAAPiOggIAAAAAAPiOggIAAAAAAPiOggIAAAAAAPiOggIAAAAAAPiOggIAAAAAAPiOggIAAAAAAPiu6r777pMNAAAAAACAXygoAAAAAACA7ygoAAAAAACA7ygoAAAAAACA7ygoAAAAAACA70YLiv/8z/8khBBCCCGEEEII8SXjCorh4WHt2bNnRmJfy76m6zFCCCGEEEIIIYRUVsYVFHZHsbmY7szkaxFCCCGEEEIIIaS0Q0FBCCGEEEIIIYQQ30NBQQghhBBCCCGEEN9DQUEIIYQQQgghhBDfQ0FBCCGEEEIIIYQQ30NBQQghhBBCCCGEEN9Tdf/99592QfH888/r+9//vpenn37aeczEUFAQQgghhBBCCCGkmNMuKH7yk5+MKydeffVV53ETQ0FBCCGEEEIIIYSQYk6roHjxxRf1gx/8wCsnnnrqKW/bdZwrFBSEEEIIIYQQQggp5pQLitdff90rJYpXT9grKVzHHSsUFIQQQgghhBBCCCnmlAoKW04899xzo+WEnYPCddzxQkFBCCGEEEIIIYSQYk6poPjZz342Wk7YWzxsYeE67nihoCCEEEIIIYQQQkgxp1RQ/PCHPxwtKH784x87jzlRKCgIIYQQQgghhBBSjFdQ3Hvvvd7GZEsDu1LHk08+6RUU9usrr7ziPO54oaAghBBCCCGEEEJIMac8SebE5UVfe+0153HHCgUFIYQQQgghhBBCiqn667/+a6+geOmll066NHjmmWdGS4qTnSiTgoIQQgghhBBCCCHFVP3N3/yN7FUUdsnQky0NXn755dGlRu2tHnbyTNdxrlBQEEIIIYQQQgghpJiqBx980Csovv3tb59SafDTn/509CoKO3mmnZ/CddzEUFAQQgghhBBCCCGkmKp/+qd/8gqKf/7nfz7l0uC5554bLSnsbR+uYyaGgoIQQgghhBBCCCHFVD3++ONeQfGlL31pRksDCgpCCCGEEEIIIYQUU/XEE0+oOA+F/d510HSEgoIQQgghhBBCCCHFeAXFo48+6hUU9957r370ox85D5zqUFAQQgghhBBCCCGkmKrvfOc7+t//+397t3jY5Ub/4R/+wXngVIeCghBCCCGEEEIIIcV4BYW9iuKb3/zm6FUU3/rWt5wHT2UoKAghhBBCCCGEEFJM1Xe/+12voLBXUdhbPexVFF/84hf18MMPT+vtHhQUhBBCCCGEEEIIKWZcQfHtb397XEnxhS98Qf/2b//mfOLphoKCEEIIIYQQQggh+fyn/n8WSIWGbb1qJAAAAABJRU5ErkJggg==;fillOpacity=70;fontSize=20;fontStyle=0" parent="lGv7E5U7d9qnfZNcLOAO-19" vertex="1">
          <mxGeometry x="12" width="402.65" height="400" as="geometry" />
        </mxCell>
        <mxCell id="lGv7E5U7d9qnfZNcLOAO-6" value="" style="rounded=0;whiteSpace=wrap;html=1;fillColor=none;strokeColor=#000000;fontSize=20;fontStyle=0" parent="lGv7E5U7d9qnfZNcLOAO-19" vertex="1">
          <mxGeometry x="11" y="55" width="329" height="275" as="geometry" />
        </mxCell>
        <mxCell id="lGv7E5U7d9qnfZNcLOAO-7" value="" style="endArrow=classic;html=1;rounded=0;fillColor=#f8cecc;strokeColor=#00FF00;exitX=0;exitY=1;exitDx=0;exitDy=0;entryX=0;entryY=0;entryDx=0;entryDy=0;strokeWidth=2;fontSize=20;fontStyle=0" parent="lGv7E5U7d9qnfZNcLOAO-19" source="lGv7E5U7d9qnfZNcLOAO-6" target="lGv7E5U7d9qnfZNcLOAO-6" edge="1">
          <mxGeometry width="50" height="50" relative="1" as="geometry">
            <mxPoint x="59" y="40" as="sourcePoint" />
            <mxPoint x="10" y="64.39393939393949" as="targetPoint" />
          </mxGeometry>
        </mxCell>
        <mxCell id="lGv7E5U7d9qnfZNcLOAO-8" value="" style="endArrow=classic;html=1;rounded=0;fillColor=#f8cecc;strokeColor=#FF0000;exitX=0;exitY=1;exitDx=0;exitDy=0;entryX=1;entryY=1;entryDx=0;entryDy=0;strokeWidth=2;fontSize=20;fontStyle=0" parent="lGv7E5U7d9qnfZNcLOAO-19" source="lGv7E5U7d9qnfZNcLOAO-6" target="lGv7E5U7d9qnfZNcLOAO-6" edge="1">
          <mxGeometry width="50" height="50" relative="1" as="geometry">
            <mxPoint x="70" y="338.6" as="sourcePoint" />
            <mxPoint x="70" y="63.60000000000002" as="targetPoint" />
          </mxGeometry>
        </mxCell>
        <mxCell id="lGv7E5U7d9qnfZNcLOAO-9" value="$$y$$" style="text;html=1;align=center;verticalAlign=middle;whiteSpace=wrap;rounded=0;fontSize=20;fontStyle=0" parent="lGv7E5U7d9qnfZNcLOAO-19" vertex="1">
          <mxGeometry y="55" width="60" height="30" as="geometry" />
        </mxCell>
        <mxCell id="lGv7E5U7d9qnfZNcLOAO-10" value="$$x$$" style="text;html=1;align=center;verticalAlign=middle;whiteSpace=wrap;rounded=0;fontSize=20;fontStyle=0" parent="lGv7E5U7d9qnfZNcLOAO-19" vertex="1">
          <mxGeometry x="309.34" y="330" width="60" height="30" as="geometry" />
        </mxCell>
        <mxCell id="lGv7E5U7d9qnfZNcLOAO-11" value="" style="endArrow=classic;startArrow=classic;html=1;rounded=0;entryX=0.25;entryY=0;entryDx=0;entryDy=0;fontSize=20;fontStyle=0" parent="lGv7E5U7d9qnfZNcLOAO-19" edge="1">
          <mxGeometry width="50" height="50" relative="1" as="geometry">
            <mxPoint x="129" y="330" as="sourcePoint" />
            <mxPoint x="129.25" y="55" as="targetPoint" />
          </mxGeometry>
        </mxCell>
        <mxCell id="lGv7E5U7d9qnfZNcLOAO-12" value="$$h$$" style="text;html=1;align=center;verticalAlign=middle;whiteSpace=wrap;rounded=0;fontSize=20;fontStyle=0" parent="lGv7E5U7d9qnfZNcLOAO-19" vertex="1">
          <mxGeometry x="79" y="100" width="60" height="30" as="geometry" />
        </mxCell>
        <mxCell id="lGv7E5U7d9qnfZNcLOAO-13" value="" style="endArrow=classic;startArrow=classic;html=1;rounded=0;entryX=1;entryY=0.75;entryDx=0;entryDy=0;fontSize=20;fontStyle=0" parent="lGv7E5U7d9qnfZNcLOAO-19" target="lGv7E5U7d9qnfZNcLOAO-6" edge="1">
          <mxGeometry width="50" height="50" relative="1" as="geometry">
            <mxPoint x="10" y="260" as="sourcePoint" />
            <mxPoint x="-60" y="170" as="targetPoint" />
          </mxGeometry>
        </mxCell>
        <mxCell id="lGv7E5U7d9qnfZNcLOAO-14" value="$$w$$" style="text;html=1;align=center;verticalAlign=middle;whiteSpace=wrap;rounded=0;fontSize=20;fontStyle=0" parent="lGv7E5U7d9qnfZNcLOAO-19" vertex="1">
          <mxGeometry x="30" y="230" width="60" height="30" as="geometry" />
        </mxCell>
        <mxCell id="lGv7E5U7d9qnfZNcLOAO-15" value="$$O(o_x,o_y)$$" style="text;html=1;align=center;verticalAlign=middle;whiteSpace=wrap;rounded=0;fontSize=20;fontStyle=0" parent="lGv7E5U7d9qnfZNcLOAO-19" vertex="1">
          <mxGeometry x="30" y="290" width="60" height="30" as="geometry" />
        </mxCell>
      </root>
    </mxGraphModel>
  </diagram>
</mxfile>
